<?xml version="1.0" standalone="no"?>
<!DOCTYPE svg PUBLIC "-//W3C//DTD SVG 20010904//EN"
 "http://www.w3.org/TR/2001/REC-SVG-20010904/DTD/svg10.dtd">
<svg version="1.0" xmlns="http://www.w3.org/2000/svg"
 width="900.000000pt" height="900.000000pt" viewBox="0 0 900.000000 900.000000"
 preserveAspectRatio="xMidYMid meet">

<g transform="translate(0.000000,900.000000) scale(0.100000,-0.100000)"
fill="#000000" stroke="none">
<path d="M8133 6703 c15 -2 37 -2 50 0 12 2 0 4 -28 4 -27 0 -38 -2 -22 -4z"/>
<path d="M8473 6693 c31 -2 83 -2 115 0 31 2 5 3 -58 3 -63 0 -89 -1 -57 -3z"/>
<path d="M8676 6681 c-3 -5 7 -6 22 -4 29 5 26 1 -25 -35 -10 -7 5 -1 32 14
28 15 51 28 53 29 2 2 -15 3 -37 3 -22 0 -43 -3 -45 -7z"/>
<path d="M8720 6652 c-51 -33 -60 -36 -130 -35 l-75 0 63 -6 64 -6 -33 -19
c-17 -10 -29 -14 -25 -8 9 15 -30 25 -51 13 -10 -6 -13 -11 -8 -12 6 -1 15 -2
20 -3 31 -4 7 -24 -105 -91 -69 -40 -126 -70 -128 -65 -2 5 -10 6 -17 3 -8 -3
-191 0 -407 6 -398 11 -712 20 -1723 46 -824 22 -1683 48 -2185 65 -679 25
-839 31 -1220 45 -223 8 -868 33 -1435 55 -566 22 -1054 40 -1082 40 l-53 0 0
-55 c0 -54 0 -55 30 -55 l30 0 0 -60 c0 -57 -1 -60 -25 -60 l-25 0 0 -510 0
-511 30 -6 c29 -5 30 -8 30 -59 0 -50 -2 -54 -24 -54 l-24 0 -7 -412 c-3 -227
-5 -456 -3 -508 l3 -95 28 -3 c26 -3 27 -5 27 -67 0 -56 -2 -63 -18 -58 -18 4
-19 -9 -25 -214 -4 -120 -7 -417 -7 -659 l0 -442 63 -6 c172 -17 764 -73 2737
-261 1185 -113 2839 -270 3675 -350 836 -80 1529 -145 1540 -145 15 0 87 92
268 336 l248 336 9 451 c5 249 14 830 20 1292 14 1136 29 2025 36 2113 6 87
-1 90 -86 34z m-4793 -238 c-3 -3 -12 -4 -19 -1 -8 3 -5 6 6 6 11 1 17 -2 13
-5z m53 -9 c0 -8 -2 -15 -4 -15 -2 0 -6 7 -10 15 -3 8 -1 15 4 15 6 0 10 -7
10 -15z m335 -5 c18 -5 -5 -6 -59 -4 -49 2 -91 6 -94 9 -8 8 119 4 153 -5z
m240 -10 c-16 -4 36 -5 118 -2 113 3 147 2 147 -8 0 -9 12 -11 43 -7 23 3 71
2 107 -2 52 -7 32 -9 -97 -8 -89 1 -165 -2 -169 -6 -4 -3 32 -6 80 -6 102 0
246 -11 264 -20 7 -4 -16 -6 -50 -4 -35 2 -153 8 -263 13 -118 6 -201 14 -203
20 -4 12 -35 13 -47 1 -6 -5 -41 -11 -80 -14 -41 -4 -60 -3 -45 2 24 8 24 8
-10 14 -19 4 -53 8 -75 10 -22 2 25 5 105 7 133 3 138 4 65 10 l-80 6 110 1
c67 0 98 -2 80 -7z m598 -17 c-7 -2 -19 -2 -25 0 -7 3 -2 5 12 5 14 0 19 -2
13 -5z m100 -10 c-7 -2 -21 -2 -30 0 -10 3 -4 5 12 5 17 0 24 -2 18 -5z m120
0 c-13 -2 -35 -2 -50 0 -16 2 -5 4 22 4 28 0 40 -2 28 -4z m-1124 -7 c-10 -8
-89 -13 -89 -5 0 5 21 9 47 9 25 0 44 -2 42 -4z m897 -3 c-7 -7 -87 -5 -95 3
-2 2 20 4 49 4 29 0 50 -3 46 -7z m77 -10 c-7 -2 -19 -2 -25 0 -7 3 -2 5 12 5
14 0 19 -2 13 -5z m44 1 c-3 -3 -12 -4 -19 -1 -8 3 -5 6 6 6 11 1 17 -2 13 -5z
m-109 -21 c-10 -2 -28 -2 -40 0 -13 2 -5 4 17 4 22 1 32 -1 23 -4z m59 1 c-3
-3 -12 -4 -19 -1 -8 3 -5 6 6 6 11 1 17 -2 13 -5z m-1222 -52 c-3 -3 -11 0
-18 7 -9 10 -8 11 6 5 10 -3 15 -9 12 -12z m400 3 c121 -3 378 -12 570 -20
193 -8 429 -17 525 -21 112 -4 178 -10 183 -18 5 -8 9 -7 15 2 7 10 28 11 98
4 l89 -9 -90 -2 c-49 -2 -102 -2 -117 -2 -20 0 -26 -4 -21 -14 7 -19 -29 -20
-60 -3 -12 7 -33 13 -47 14 -14 1 -44 4 -67 7 -24 3 -45 1 -48 -4 -4 -5 -2 -9
4 -9 5 0 17 -7 26 -17 13 -13 19 -13 25 -3 6 9 12 10 26 1 18 -10 18 -11 -4
-17 -17 -5 -20 -10 -12 -19 8 -10 8 -15 -1 -20 -6 -4 -14 -3 -18 2 -3 6 -13
13 -21 16 -12 4 -11 6 3 6 29 1 9 21 -21 21 -19 0 -23 -3 -14 -9 11 -6 9 -9
-6 -13 -15 -4 -19 -2 -15 8 3 9 -1 14 -12 14 -9 0 -13 -4 -10 -10 3 -5 2 -10
-4 -10 -5 0 -13 5 -16 10 -10 15 -35 12 -35 -5 0 -11 11 -15 36 -15 20 0 33
-4 29 -10 -6 -10 42 -46 52 -37 3 3 3 14 -1 23 -5 13 -9 14 -20 5 -9 -7 -17
-8 -20 -3 -11 19 27 22 53 5 32 -22 38 -43 11 -43 -21 0 -28 -19 -7 -21 10 0
10 -2 0 -6 -18 -7 -16 -21 5 -26 13 -4 12 -5 -5 -6 -12 0 -24 -7 -27 -13 -3
-7 -3 -3 0 9 5 21 3 22 -25 12 -17 -6 -31 -15 -31 -21 0 -5 -5 -6 -11 -2 -7 4
1 14 20 26 17 11 28 24 25 29 -3 5 2 6 10 3 9 -3 16 -2 16 3 0 14 -63 34 -73
24 -5 -5 -16 -7 -23 -4 -17 6 -18 -19 -2 -35 9 -9 9 -12 -2 -13 -58 -3 -120
-19 -120 -30 0 -13 24 -11 39 4 10 10 14 9 22 -5 10 -17 42 -26 36 -10 -2 7 6
12 24 12 5 0 7 -4 4 -10 -3 -5 3 -10 14 -10 10 0 28 -3 38 -6 15 -5 15 -4 3 5
-13 9 -13 11 0 10 8 0 24 -4 35 -9 19 -7 19 -8 -5 -18 -16 -6 -35 -6 -53 1
-23 8 -31 6 -42 -9 -9 -12 -14 -14 -15 -6 0 7 -4 11 -9 8 -5 -3 -14 0 -20 8
-13 15 -51 10 -51 -6 0 -5 10 -13 23 -16 20 -6 20 -7 -7 -12 -38 -7 -35 -25 4
-25 17 -1 36 -9 45 -20 19 -26 19 -36 0 -29 -8 3 -13 11 -12 17 1 6 -9 13 -23
15 -17 2 -21 0 -12 -6 7 -5 10 -16 6 -25 -7 -20 -24 -23 -24 -4 0 8 -3 7 -10
-3 -6 -9 -5 -17 3 -22 9 -5 9 -10 -1 -20 -9 -9 -12 -9 -12 0 0 8 -9 10 -24 6
-21 -5 -25 -2 -23 15 1 12 5 21 10 21 4 0 5 5 1 11 -5 8 -9 8 -14 -1 -4 -6
-10 -11 -14 -11 -18 3 -26 0 -26 -9 0 -5 7 -7 15 -4 8 4 15 1 15 -6 0 -9 -10
-11 -31 -6 -27 5 -30 4 -19 -9 15 -18 10 -18 -25 -5 -41 16 -137 20 -132 6 2
-6 12 -11 23 -11 29 -1 65 -15 59 -24 -2 -5 4 -19 15 -31 24 -28 25 -30 2 -30
-10 0 -22 12 -29 30 -10 26 -20 32 -49 30 -3 -1 -13 8 -22 19 -19 21 -69 41
-58 22 4 -6 3 -11 -3 -11 -5 0 -13 5 -16 10 -3 6 -21 10 -40 10 -41 0 -55 -25
-14 -26 18 -1 26 3 22 10 -4 6 1 5 10 -3 9 -7 14 -17 11 -22 -3 -5 0 -9 6 -9
6 0 8 -4 5 -10 -3 -5 -1 -10 5 -10 7 0 9 8 5 19 -4 15 0 20 17 23 13 2 28 -3
33 -10 6 -7 17 -14 25 -16 22 -3 62 -27 57 -33 -3 -2 -14 0 -26 6 -13 7 -22 8
-26 1 -4 -6 7 -13 24 -16 29 -6 30 -8 14 -20 -15 -10 -23 -9 -51 8 -18 11 -36
18 -39 14 -4 -3 0 -6 8 -6 10 -1 9 -3 -3 -11 -29 -16 -21 -25 20 -22 l37 4
-40 -16 c-46 -17 -75 -19 -75 -5 0 6 5 10 11 10 7 0 4 11 -6 27 -15 23 -15 25
-2 20 9 -3 19 -2 22 2 3 5 -3 12 -12 15 -9 4 -20 1 -25 -6 -11 -18 -10 -28 2
-28 6 0 10 -5 10 -11 0 -6 -13 -1 -29 10 -15 11 -32 17 -36 13 -5 -4 -5 -2 -2
5 4 6 0 19 -9 27 -12 12 -12 16 -2 16 7 0 19 -10 27 -21 10 -17 15 -19 21 -8
11 17 4 28 -27 40 -13 5 -22 13 -19 18 7 11 -22 23 -36 14 -7 -3 -8 -1 -4 5 4
7 24 13 44 13 37 1 37 2 -8 9 -34 5 -47 4 -53 -6 -4 -8 -17 -14 -27 -14 -11 0
-20 -4 -20 -10 0 -5 -16 -8 -35 -7 -36 2 -54 -14 -22 -19 29 -4 33 -14 6 -14
-33 0 -51 13 -44 32 5 11 -1 14 -27 13 -44 -3 -68 -14 -68 -31 0 -11 -8 -9
-31 8 -25 19 -32 20 -39 8 -7 -11 -11 -11 -24 -1 -11 9 -20 10 -33 2 -16 -9
-16 -10 5 -11 12 0 22 -4 22 -9 0 -5 -6 -9 -12 -8 -7 0 -24 -1 -38 -1 l-25 -2
29 -15 c16 -9 31 -13 34 -10 3 3 10 1 16 -4 19 -15 76 -24 76 -11 0 6 -4 9 -9
5 -5 -3 -12 -1 -16 5 -3 5 7 12 22 16 15 3 33 7 38 9 6 1 17 -4 26 -12 14 -12
16 -11 15 9 -1 16 -7 22 -19 20 -19 -3 -23 13 -6 23 6 4 17 -2 25 -14 8 -12
22 -21 30 -21 13 0 12 -3 -1 -23 -17 -26 -11 -38 13 -30 10 3 8 -2 -5 -11 -22
-17 -32 -56 -14 -56 5 0 8 8 7 18 0 10 6 16 16 16 10 -1 15 2 12 7 -3 5 -1 9
5 9 20 0 7 40 -14 41 -20 0 -20 0 0 9 14 6 24 3 35 -9 16 -17 65 -27 55 -10
-4 5 -13 9 -21 9 -21 0 -17 17 6 23 13 3 18 1 13 -5 -4 -8 8 -9 38 -5 24 3 36
3 26 0 -9 -2 -14 -9 -11 -15 4 -7 -2 -8 -17 -3 -13 4 -21 4 -16 0 4 -5 15 -9
25 -11 46 -5 82 -18 82 -28 1 -29 28 -45 84 -50 48 -5 57 -3 52 9 -3 10 5 16
29 21 18 3 38 3 43 0 5 -3 24 -1 41 5 21 7 39 8 58 1 l28 -10 -27 -1 c-16 -1
-28 -6 -28 -12 0 -6 -9 -8 -22 -4 -18 5 -20 4 -8 -4 26 -18 -2 -34 -41 -23
-26 8 -29 10 -11 11 13 1 20 6 17 11 -9 15 -41 12 -55 -5 -7 -8 -21 -15 -31
-15 -21 0 -27 -19 -6 -21 6 0 55 0 107 0 60 1 90 -2 81 -7 -7 -5 -9 -12 -4
-15 5 -3 14 3 21 14 11 17 9 19 -10 20 -13 1 -30 1 -38 0 -11 -1 -10 3 4 14
26 20 31 19 55 -6 16 -18 27 -20 63 -15 24 3 57 2 73 -3 28 -9 26 -9 -19 -10
-68 -1 -52 -12 19 -12 38 -1 53 -4 44 -10 -8 -5 -26 -6 -41 -3 -17 3 -28 1
-28 -5 0 -6 5 -11 12 -11 6 0 8 -3 5 -6 -4 -4 -13 -1 -22 6 -19 16 -32 5 -16
-14 9 -11 7 -15 -9 -19 -11 -3 -23 -1 -26 4 -3 5 1 9 8 9 9 0 9 3 -2 10 -13 9
-13 11 0 21 12 8 10 9 -9 4 -13 -4 -35 -8 -50 -10 -14 -1 -35 -6 -45 -10 -15
-7 -18 -5 -14 7 10 26 -13 38 -73 38 -41 0 -58 -4 -63 -15 -4 -11 -20 -15 -55
-15 -36 0 -51 -4 -55 -16 -5 -14 -1 -16 28 -11 19 3 38 1 45 -6 9 -9 14 -9 19
-1 9 14 42 14 42 0 0 -6 23 -12 54 -13 l55 -3 -23 24 c-18 17 -32 22 -55 18
-18 -2 -31 0 -31 6 0 16 53 24 81 13 13 -5 20 -10 15 -10 -24 -2 40 -51 66
-51 17 0 27 -4 23 -10 -3 -5 2 -10 11 -10 15 0 14 -3 -6 -22 -22 -21 -22 -22
-4 -30 10 -4 -17 -5 -61 -1 -44 3 -95 7 -113 8 -18 1 -46 11 -62 23 -34 26
-52 28 -44 7 4 -9 0 -15 -10 -15 -9 0 -16 -4 -16 -10 0 -5 -5 -10 -11 -10 -5
0 -7 5 -4 10 3 6 -1 10 -9 10 -9 0 -16 5 -16 10 0 6 -12 10 -27 10 -20 0 -24
-3 -14 -9 11 -7 10 -10 -5 -14 -11 -3 -5 -5 16 -7 26 -1 30 -3 17 -9 -17 -6
-16 -8 6 -20 28 -15 63 -11 60 7 -2 7 6 12 18 12 11 0 17 5 14 10 -3 6 -2 10
3 10 17 0 21 -28 6 -34 -9 -3 -12 -11 -8 -17 4 -7 0 -9 -12 -5 -11 3 -26 1
-34 -4 -13 -8 -12 -10 5 -12 11 -1 27 -2 35 -4 8 -1 21 -2 28 -3 7 -1 10 -5 7
-11 -3 -6 4 -10 17 -10 19 0 20 2 8 11 -12 8 -9 9 11 5 14 -3 29 -3 33 1 9 9
56 10 56 1 0 -4 -8 -9 -17 -10 -10 0 -25 -2 -33 -2 -8 -1 -14 -7 -13 -14 2 -8
-15 -12 -55 -11 -41 0 -51 3 -37 9 16 7 13 9 -17 9 -41 1 -68 -7 -68 -20 0 -5
12 -9 28 -10 15 0 36 -4 46 -8 16 -6 17 -9 5 -17 -54 -34 -101 -45 -114 -24
-3 6 -17 10 -30 10 -20 0 -23 -4 -19 -25 3 -18 0 -25 -11 -25 -8 0 -15 -5 -15
-11 0 -7 9 -9 22 -6 19 5 20 5 6 -10 -18 -17 -38 -10 -38 13 0 8 -6 14 -12 15
-7 1 -2 5 12 9 21 7 22 8 5 9 -11 1 -29 8 -39 16 -11 8 -27 15 -35 15 -14 0
-14 -1 -1 -10 13 -9 13 -10 0 -10 -8 0 -25 8 -38 18 -22 17 -21 18 50 15 l73
-3 -44 14 c-24 8 -47 15 -50 14 -25 -2 -73 3 -68 8 3 4 45 3 92 -1 67 -5 85
-10 81 -21 -4 -10 9 -13 64 -11 39 1 70 6 70 10 0 4 -22 6 -50 4 -27 -3 -50
-1 -50 4 0 5 5 9 11 9 5 0 7 5 4 10 -3 6 -38 10 -76 10 -41 0 -68 4 -64 9 3 5
1 13 -5 16 -6 4 -9 1 -8 -6 4 -16 -60 -19 -66 -3 -2 6 -21 10 -43 8 -21 -1
-47 -2 -57 -3 -20 -1 -20 -1 0 -16 19 -14 18 -14 -3 -15 -24 0 -32 -25 -10
-33 7 -3 4 -6 -6 -6 -10 -1 -16 -5 -12 -11 3 -5 13 -6 23 -3 13 5 15 3 5 -7
-12 -13 -17 -11 -63 15 -25 15 -25 15 -2 15 12 0 22 6 22 13 0 8 -17 12 -57
10 -75 -2 -73 -1 -73 -13 0 -5 18 -10 40 -10 31 0 38 -3 34 -15 -4 -8 -10 -15
-16 -15 -5 0 -7 3 -4 8 2 4 -8 8 -22 8 -15 1 -40 2 -57 3 -29 2 -29 3 -6 12
19 8 21 12 11 24 -11 13 -7 15 26 15 51 0 32 19 -25 24 -46 5 -69 16 -32 16
l23 0 -23 20 -24 19 37 -6 c29 -4 39 -2 44 11 8 20 44 21 44 1 0 -8 -5 -15
-11 -15 -8 0 -7 -6 2 -17 12 -14 12 -16 0 -8 -10 5 -12 4 -7 -3 9 -15 56 -16
56 -2 0 6 7 10 15 10 8 0 15 4 15 9 0 5 -7 11 -15 15 -20 7 -19 24 3 29 9 2 2
3 -16 1 -22 -2 -30 1 -26 8 5 7 2 9 -9 5 -9 -3 -18 1 -22 11 -6 15 -8 15 -24
-4 -13 -16 -25 -20 -44 -17 -15 3 -27 1 -27 -4 0 -6 -14 -10 -31 -11 -44 -1
-26 11 33 23 59 12 71 28 31 42 -36 13 -86 16 -79 4 9 -14 -4 -41 -20 -41 -8
0 -14 5 -14 10 0 6 4 10 8 10 5 0 9 7 9 16 0 12 -7 14 -35 9 -23 -4 -32 -3
-27 4 3 6 13 11 21 11 20 0 45 25 36 35 -4 5 -1 5 6 1 7 -5 11 -13 9 -20 -3
-8 7 -12 27 -13 29 -1 29 -1 6 7 -25 8 -25 8 5 11 17 1 38 1 48 1 10 -1 15 3
12 8 -4 6 9 8 36 5 29 -4 45 -1 51 7 6 10 11 9 19 -5 8 -14 18 -17 40 -12 18
4 29 3 29 -4 0 -6 7 -11 15 -11 8 0 15 4 15 10 0 5 7 7 15 4 8 -4 15 -1 15 6
0 8 -9 10 -24 6 -16 -4 -30 0 -40 9 -17 17 -30 20 -21 5 3 -5 -1 -10 -9 -10
-8 0 -18 5 -21 11 -4 6 -23 8 -44 5 -43 -6 -171 4 -171 14 0 3 14 4 31 2 21
-3 30 -1 25 6 -4 6 -14 8 -24 5 -13 -4 -11 0 6 16 31 31 28 45 -8 37 -21 -4
-29 -2 -24 5 3 6 25 10 48 8 22 -1 50 -1 61 0 19 2 19 2 3 15 -19 14 -25 32
-8 21 5 -3 19 -1 30 5 13 7 20 7 20 0 0 -5 -4 -10 -10 -10 -5 0 -10 -4 -10
-10 0 -5 8 -10 18 -10 10 0 22 -4 28 -10 12 -12 86 9 78 22 -3 4 -14 3 -25 -2
-10 -6 -19 -7 -19 -3 0 4 -4 2 -9 -5 -6 -10 -10 -10 -21 3 -10 12 -10 15 1 15
8 0 4 6 -8 15 -12 8 -29 12 -39 8 -13 -5 -15 -3 -9 7 6 10 2 12 -18 8 -15 -3
-24 -1 -21 3 3 5 12 9 20 9 8 0 14 5 14 10 0 6 -9 10 -20 10 -27 0 -25 17 2
26 13 4 24 2 26 -5 2 -6 11 -11 20 -11 14 1 14 3 -3 16 -11 8 -19 23 -18 32 1
9 0 11 -3 5 -3 -7 -15 -13 -25 -13 -11 0 -17 -4 -14 -10 3 -5 -3 -10 -14 -10
-12 0 -21 4 -21 9 0 14 28 33 40 26 5 -3 10 -1 10 4 0 6 11 11 25 11 14 0 25
5 25 10 0 14 -37 13 -46 -1 -4 -8 -8 -8 -13 -1 -4 6 -33 12 -66 13 -94 2 -103
0 -110 -21 -7 -23 -22 -27 -22 -5 0 8 4 15 9 15 4 0 8 4 8 9 0 5 -7 8 -16 7
-11 0 -18 7 -19 22 -2 24 18 28 65 11 23 -8 22 -8 -7 -6 -18 2 -30 0 -27 -5 7
-12 84 -10 84 2 0 6 -5 10 -11 10 -5 0 -7 5 -3 12 6 9 9 9 12 0 2 -7 10 -12
18 -12 8 0 14 -5 14 -11 0 -21 45 -4 48 18 2 16 -8 27 -47 49 -28 15 -51 31
-51 35 0 5 14 15 30 24 17 9 30 20 30 25 0 18 -28 10 -51 -15 -32 -33 -40 -31
-28 5 11 29 31 37 78 31 7 -2 10 2 6 8 -9 15 -83 14 -88 -1 -2 -7 -3 -5 -1 5
2 16 -2 18 -24 12 -15 -4 -30 -12 -34 -18 -6 -9 -8 -9 -8 0 0 7 8 17 18 23 15
10 14 11 -6 6 -13 -2 -21 -2 -17 2 10 10 94 9 88 -1 -3 -4 8 -6 24 -3 15 2 39
5 53 6 l25 1 -25 13 c-14 7 -42 13 -62 12 -21 -1 -38 2 -38 6 0 4 14 8 30 8
19 0 29 5 28 13 -3 14 -19 27 -33 27 -5 0 -3 -4 5 -10 18 -11 8 -23 -14 -14
-21 8 -21 34 2 34 15 1 14 2 -3 12 -11 6 -22 14 -25 17 -10 12 -40 8 -40 -5 0
-8 9 -14 20 -14 11 0 20 -7 20 -15 0 -8 -4 -15 -10 -15 -5 0 -10 5 -10 10 0
14 -27 12 -33 -2 -2 -7 -4 4 -4 25 l1 38 65 -5 c37 -3 165 -8 286 -11z m-398
-31 c-3 -3 -12 -4 -19 -1 -8 3 -5 6 6 6 11 1 17 -2 13 -5z m1920 -30 c-3 -3
-12 -4 -19 -1 -8 3 -5 6 6 6 11 1 17 -2 13 -5z m-1822 -23 c9 -16 -9 -18 -35
-5 l-25 14 27 0 c15 0 29 -4 33 -9z m1510 -32 c3 -4 -10 -5 -30 -2 -23 4 -35
2 -35 -6 0 -6 -7 -11 -15 -11 -12 0 -12 3 3 18 17 18 67 19 77 1z m-41 -24 c4
-10 -1 -15 -15 -15 -17 0 -18 2 -7 15 16 18 15 18 22 0z m32 -32 c-10 -10 -19
5 -10 18 6 11 8 11 12 0 2 -7 1 -15 -2 -18z m94 11 c0 -8 -4 -12 -10 -9 -5 3
-10 10 -10 16 0 5 5 9 10 9 6 0 10 -7 10 -16z m-143 -26 c-3 -8 -6 -5 -6 6 -1
11 2 17 5 13 3 -3 4 -12 1 -19z m117 1 c-6 -11 -24 -2 -24 11 0 5 7 7 15 4 8
-4 12 -10 9 -15z m-1564 1 c0 -13 -11 -13 -30 0 -12 8 -11 10 8 10 12 0 22 -4
22 -10z m1423 -7 c-7 -2 -19 -2 -25 0 -7 3 -2 5 12 5 14 0 19 -2 13 -5z
m-1419 -56 c16 -23 21 -25 35 -15 14 11 14 11 4 -3 -9 -10 -29 -16 -60 -16
-32 0 -37 1 -15 4 38 5 40 18 8 48 -14 13 -22 25 -19 28 7 7 23 -9 47 -46z
m1469 6 c-7 -2 -19 -2 -25 0 -7 3 -2 5 12 5 14 0 19 -2 13 -5z m122 -23 c3 -5
1 -10 -4 -10 -6 0 -11 5 -11 10 0 6 2 10 4 10 3 0 8 -4 11 -10z m-230 -19 c-4
-14 0 -21 15 -24 18 -4 17 -4 -2 -3 -16 1 -24 8 -26 24 -2 12 2 22 8 22 7 0 9
-8 5 -19z m72 -17 c-3 -3 -12 -4 -19 -1 -8 3 -5 6 6 6 11 1 17 -2 13 -5z
m-237 -28 c0 -3 -4 -8 -10 -11 -5 -3 -10 -1 -10 4 0 6 5 11 10 11 6 0 10 -2
10 -4z m280 -16 c0 -5 -7 -10 -16 -10 -8 0 -12 5 -9 10 3 6 10 10 16 10 5 0 9
-4 9 -10z m-194 -55 c12 -11 7 -35 -6 -35 -5 0 -12 9 -15 20 -3 11 -15 20 -25
20 -10 0 -20 6 -23 14 -5 11 0 12 26 2 18 -6 37 -16 43 -21z m-1218 -6 c2 -17
-3 -29 -12 -32 -11 -4 -13 -1 -9 11 6 15 5 15 -11 3 -9 -8 -16 -10 -15 -5 3
19 -3 49 -8 36 -2 -6 -9 -10 -14 -6 -18 10 1 22 33 20 28 -1 34 -6 36 -27z
m1322 21 c0 -5 -5 -10 -11 -10 -5 0 -7 5 -4 10 3 6 8 10 11 10 2 0 4 -4 4 -10z
m-53 -7 c-9 -2 -15 -9 -12 -14 4 -5 2 -9 -3 -9 -6 0 -12 7 -16 15 -4 11 2 15
22 14 17 -1 20 -3 9 -6z m-1330 -29 c-3 -3 -12 -4 -19 -1 -8 3 -5 6 6 6 11 1
17 -2 13 -5z m1413 -6 c0 -10 -19 -9 -45 2 -16 7 -14 8 12 7 18 -1 33 -5 33
-9z m-226 -13 c3 -8 1 -15 -3 -15 -5 0 -11 7 -15 15 -3 8 -1 15 3 15 5 0 11
-7 15 -15z m39 8 c-7 -2 -19 -2 -25 0 -7 3 -2 5 12 5 14 0 19 -2 13 -5z m-632
-36 c-13 -13 -26 -3 -16 12 3 6 11 8 17 5 6 -4 6 -10 -1 -17z m49 3 c0 -5 -7
-10 -16 -10 -8 0 -12 5 -9 10 3 6 10 10 16 10 5 0 9 -4 9 -10z m640 6 c0 -3
-4 -8 -10 -11 -5 -3 -10 -1 -10 4 0 6 5 11 10 11 6 0 10 -2 10 -4z m-950 -21
c0 -17 -2 -18 -25 -9 -13 5 -14 8 -3 15 19 13 28 11 28 -6z m640 -9 c0 -2 -7
-6 -15 -10 -8 -3 -15 -1 -15 4 0 6 7 10 15 10 8 0 15 -2 15 -4z m-660 -16 c0
-5 -7 -7 -15 -4 -8 4 -15 8 -15 10 0 2 7 4 15 4 8 0 15 -4 15 -10z m855 0
c-27 -12 -43 -12 -25 0 8 5 22 9 30 9 10 0 8 -3 -5 -9z m-67 -7 c-10 -2 -26
-2 -35 0 -10 3 -2 5 17 5 19 0 27 -2 18 -5z m-39 -30 c2 -2 -17 -3 -43 -3 -31
0 -45 4 -40 11 3 6 15 9 25 6 11 -3 19 0 19 5 0 6 8 5 18 -3 9 -7 19 -15 21
-16z m151 17 c-8 -5 -19 -10 -25 -10 -5 0 -3 5 5 10 8 5 20 10 25 10 6 0 3 -5
-5 -10z m-63 -16 c-3 -3 -12 -4 -19 -1 -8 3 -5 6 6 6 11 1 17 -2 13 -5z m90
-10 c-3 -3 -12 -4 -19 -1 -8 3 -5 6 6 6 11 1 17 -2 13 -5z m-182 -14 c-3 -5
-11 -10 -16 -10 -6 0 -7 5 -4 10 3 6 11 10 16 10 6 0 7 -4 4 -10z m143 5 c-11
-11 -60 -16 -53 -5 3 5 18 10 32 10 15 0 24 -2 21 -5z m-106 -28 c7 -8 20 -16
28 -20 12 -4 11 -6 -2 -6 -10 -1 -18 -5 -18 -10 0 -14 -35 -7 -53 11 -16 16
-16 17 0 27 24 14 29 13 45 -2z m113 4 c-3 -6 2 -14 11 -19 15 -8 12 -11 -15
-17 -42 -9 -50 0 -21 25 25 22 35 26 25 11z m65 -1 c0 -5 -8 -10 -17 -10 -15
0 -16 2 -3 10 19 12 20 12 20 0z m-1235 -29 c-3 -6 -11 -11 -16 -11 -5 0 -4 6
3 14 14 16 24 13 13 -3z m-35 -1 c0 -5 -4 -10 -10 -10 -5 0 -10 5 -10 10 0 6
5 10 10 10 6 0 10 -4 10 -10z m-45 -9 c3 -5 2 -12 -3 -15 -5 -3 -9 1 -9 9 0
17 3 19 12 6z m1382 3 c-3 -3 -12 -4 -19 -1 -8 3 -5 6 6 6 11 1 17 -2 13 -5z
m-1492 -34 c-3 -5 -16 -10 -28 -9 -21 0 -21 1 -2 9 28 12 37 12 30 0z m173 3
c-10 -2 -28 -2 -40 0 -13 2 -5 4 17 4 22 1 32 -1 23 -4z m1322 -3 c11 -7 8 -9
-15 -9 -16 1 -41 5 -55 9 -22 7 -20 8 15 9 22 0 47 -4 55 -9z m-110 -40 c0 -5
-2 -10 -4 -10 -3 0 -8 5 -11 10 -3 6 -1 10 4 10 6 0 11 -4 11 -10z m-1347 -17
c-7 -2 -19 -2 -25 0 -7 3 -2 5 12 5 14 0 19 -2 13 -5z m87 -55 c0 -6 -6 -5
-15 2 -8 7 -15 14 -15 16 0 2 7 1 15 -2 8 -4 15 -11 15 -16z m125 3 c-3 -6
-11 -8 -17 -5 -6 4 -5 9 3 15 16 10 23 4 14 -10z m1010 -21 c-3 -5 -13 -10
-21 -10 -8 0 -14 5 -14 10 0 6 9 10 21 10 11 0 17 -4 14 -10z m-1106 -17 c12
3 24 1 27 -4 3 -5 -12 -9 -33 -9 -30 0 -35 -3 -23 -11 10 -7 11 -9 2 -7 -8 2
-13 7 -13 11 1 4 1 15 1 25 0 13 2 14 9 3 5 -8 18 -12 30 -8z m66 -23 c3 -5
-1 -10 -10 -10 -9 0 -13 5 -10 10 3 6 8 10 10 10 2 0 7 -4 10 -10z m831 -15
c-33 -17 -39 -19 -32 -6 4 5 0 12 -6 14 -7 3 5 6 27 6 l40 1 -29 -15z m94 1
c0 -2 -9 -6 -20 -9 -11 -3 -18 -1 -14 4 5 9 34 13 34 5z m-987 -13 c-7 -2 -21
-2 -30 0 -10 3 -4 5 12 5 17 0 24 -2 18 -5z m1030 0 c-7 -2 -19 -2 -25 0 -7 3
-2 5 12 5 14 0 19 -2 13 -5z m37 -23 c8 -5 11 -12 7 -16 -4 -4 -15 0 -24 9
-18 18 -8 23 17 7z m-1020 -10 c12 -8 9 -10 -13 -10 -16 0 -26 4 -22 10 8 12
16 12 35 0z m70 -10 c0 -4 -12 -5 -26 -2 -17 3 -22 7 -13 12 13 9 39 2 39 -10z
m890 5 c-7 -8 -17 -15 -23 -15 -6 0 -2 7 9 15 25 19 30 19 14 0z m-1060 1 c0
-2 -7 -6 -15 -10 -8 -3 -15 -1 -15 4 0 6 7 10 15 10 8 0 15 -2 15 -4z m445
-10 c7 3 16 0 20 -6 5 -8 0 -11 -16 -8 -12 1 -24 9 -25 16 -1 7 0 8 2 3 3 -6
11 -8 19 -5z m655 -6 c0 -5 -4 -10 -9 -10 -6 0 -13 5 -16 10 -3 6 1 10 9 10 9
0 16 -4 16 -10z m-966 -20 c28 0 10 -13 -20 -15 -14 0 -30 6 -37 14 -10 12 -8
13 13 8 14 -4 34 -7 44 -7z m306 -10 c11 -7 7 -10 -18 -10 -20 0 -31 4 -27 10
8 13 26 13 45 0z m492 -3 c-31 -7 -46 -7 -54 1 -9 9 1 12 43 11 l54 -1 -43
-11z m63 0 c-10 -8 -15 -18 -12 -24 3 -5 -10 -9 -31 -10 l-37 -1 33 16 c17 9
32 19 32 24 0 4 8 8 17 8 15 0 15 -1 -2 -13z m65 -3 c0 -2 -9 -4 -20 -4 -11 0
-20 4 -20 9 0 5 9 7 20 4 11 -3 20 -7 20 -9z m-160 -21 c-8 -3 -18 -11 -22
-17 -4 -6 -10 -7 -15 -3 -9 10 16 27 37 26 13 -1 13 -1 0 -6z m-377 -10 c-7
-2 -19 -2 -25 0 -7 3 -2 5 12 5 14 0 19 -2 13 -5z m-267 -21 c-5 -8 -76 -4
-76 4 0 2 18 4 41 4 22 0 38 -4 35 -8z m84 -12 c13 -11 20 -23 17 -27 -4 -3
-15 3 -25 14 -10 12 -29 23 -42 26 l-25 4 26 2 c14 0 36 -8 49 -19z m55 10 c3
-5 1 -10 -4 -10 -6 0 -11 5 -11 10 0 6 2 10 4 10 3 0 8 -4 11 -10z m115 -4 c0
-11 -19 -15 -25 -6 -3 5 1 10 9 10 9 0 16 -2 16 -4z m85 -6 c8 -13 -5 -13 -25
0 -13 8 -13 10 2 10 9 0 20 -4 23 -10z m-136 -47 c2 -2 -3 -3 -11 -3 -9 0 -19
7 -22 16 -6 15 -4 15 11 3 10 -7 20 -15 22 -16z m41 23 c0 -3 -4 -8 -10 -11
-5 -3 -10 -1 -10 4 0 6 5 11 10 11 6 0 10 -2 10 -4z m380 -6 c0 -5 -7 -10 -16
-10 -8 0 -12 5 -9 10 3 6 10 10 16 10 5 0 9 -4 9 -10z m-783 -16 c-3 -3 -12
-4 -19 -1 -8 3 -5 6 6 6 11 1 17 -2 13 -5z m138 -4 c-3 -5 -16 -10 -28 -9 -20
1 -20 2 3 9 14 4 26 8 28 9 2 1 0 -3 -3 -9z m316 -4 c-7 -8 -28 -14 -47 -14
-19 0 -33 2 -30 6 3 3 19 5 36 4 16 0 32 4 35 9 4 5 9 9 12 9 3 0 0 -6 -6 -14z
m289 6 c0 -5 -13 -7 -30 -4 -16 2 -30 6 -30 8 0 2 14 4 30 4 17 0 30 -4 30 -8z
m-212 -22 l27 -8 -31 -1 c-20 -1 -34 5 -38 15 -3 9 -2 12 5 8 6 -3 23 -10 37
-14z m95 -7 c-7 -2 -21 -2 -30 0 -10 3 -4 5 12 5 17 0 24 -2 18 -5z m100 -10
c-7 -2 -19 -2 -25 0 -7 3 -2 5 12 5 14 0 19 -2 13 -5z m-575 -130 c-10 -2 -26
-2 -35 0 -10 3 -2 5 17 5 19 0 27 -2 18 -5z m205 -10 c-13 -2 -33 -2 -45 0
-13 2 -3 4 22 4 25 0 35 -2 23 -4z"/>
<path d="M4433 6363 c9 -2 23 -2 30 0 6 3 -1 5 -18 5 -16 0 -22 -2 -12 -5z"/>
<path d="M4608 6363 c6 -2 18 -2 25 0 6 3 1 5 -13 5 -14 0 -19 -2 -12 -5z"/>
<path d="M4250 6266 c0 -2 11 -6 25 -8 13 -3 22 -1 19 3 -5 9 -44 13 -44 5z"/>
<path d="M4313 6245 c0 -6 12 -9 29 -7 41 6 45 22 5 20 -18 -1 -34 -6 -34 -13z"/>
<path d="M4399 6246 c9 -11 9 -15 -1 -18 -9 -3 -9 -6 1 -12 8 -5 14 -1 18 13
7 27 23 27 23 0 0 -18 3 -19 15 -9 8 6 18 9 23 7 13 -9 35 9 28 22 -4 6 -15
11 -24 10 -11 0 -12 -3 -4 -6 20 -8 14 -22 -8 -16 -11 3 -17 9 -14 14 3 5 -11
9 -32 9 -30 0 -34 -2 -25 -14z"/>
<path d="M4240 6240 c0 -5 7 -10 16 -10 8 0 12 5 9 10 -3 6 -10 10 -16 10 -5
0 -9 -4 -9 -10z"/>
<path d="M4800 6233 c0 -5 13 -8 29 -8 16 0 27 3 24 8 -2 4 -15 7 -29 7 -13 0
-24 -3 -24 -7z"/>
<path d="M4930 6220 c0 -6 17 -10 37 -10 42 0 37 12 -7 17 -16 1 -30 -2 -30
-7z"/>
<path d="M5065 6220 c-3 -5 -2 -10 4 -10 5 0 13 5 16 10 3 6 2 10 -4 10 -5 0
-13 -4 -16 -10z"/>
<path d="M5330 6222 c0 -12 19 -26 26 -19 2 2 -2 10 -11 17 -9 8 -15 8 -15 2z"/>
<path d="M4240 6210 c13 -9 13 -10 0 -11 -8 -1 -24 -1 -35 0 -17 2 -17 0 -5
-8 8 -6 24 -11 36 -11 32 0 35 -11 11 -31 -14 -13 -16 -17 -6 -13 10 3 20 1
24 -5 3 -6 -2 -11 -12 -11 -15 0 -16 -2 -3 -10 8 -5 16 -6 18 -1 1 4 13 6 26
4 26 -5 56 19 56 45 0 12 -6 9 -23 -12 -23 -29 -24 -29 -48 -12 l-24 18 27 -6
c15 -3 30 -2 33 4 3 5 -1 10 -10 10 -9 0 -13 5 -10 10 3 6 0 10 -7 10 -7 0
-19 9 -26 20 -7 11 -18 20 -25 20 -8 0 -7 -4 3 -10z"/>
<path d="M4483 6209 c-11 -5 1 -8 31 -8 27 -1 46 2 43 6 -10 9 -52 10 -74 2z"/>
<path d="M5273 6208 c-19 -25 -24 -38 -14 -38 6 0 11 8 11 17 0 13 3 14 12 5
18 -18 27 -15 21 8 -6 23 -16 25 -30 8z"/>
<path d="M5375 6210 c3 -5 14 -10 23 -10 15 0 15 2 2 10 -20 13 -33 13 -25 0z"/>
<path d="M5220 6200 c0 -5 5 -10 11 -10 5 0 7 5 4 10 -3 6 -8 10 -11 10 -2 0
-4 -4 -4 -10z"/>
<path d="M4416 6184 c-6 -15 -4 -15 11 -3 10 7 20 15 22 16 2 2 -3 3 -11 3 -9
0 -19 -7 -22 -16z"/>
<path d="M4865 6190 c-3 -5 -2 -10 4 -10 5 0 13 5 16 10 3 6 2 10 -4 10 -5 0
-13 -4 -16 -10z"/>
<path d="M5050 6190 c0 -5 5 -10 11 -10 5 0 7 5 4 10 -3 6 -8 10 -11 10 -2 0
-4 -4 -4 -10z"/>
<path d="M4768 6183 c7 -3 16 -2 19 1 4 3 -2 6 -13 5 -11 0 -14 -3 -6 -6z"/>
<path d="M5106 6180 c-12 -4 -16 -9 -9 -13 6 -4 19 -4 30 0 16 6 17 5 3 -11
-8 -10 -23 -22 -35 -26 -12 -6 -14 -9 -5 -9 18 -1 29 7 53 35 17 21 17 22 0
26 -10 3 -27 2 -37 -2z"/>
<path d="M5333 6183 c9 -2 25 -2 35 0 9 3 1 5 -18 5 -19 0 -27 -2 -17 -5z"/>
<path d="M5183 6173 c-18 -7 -16 -23 3 -23 8 0 13 4 10 9 -4 5 0 12 6 14 7 3
9 5 3 5 -5 0 -16 -2 -22 -5z"/>
<path d="M4558 6163 c7 -3 16 -2 19 1 4 3 -2 6 -13 5 -11 0 -14 -3 -6 -6z"/>
<path d="M5060 6160 c8 -5 20 -10 25 -10 6 0 3 5 -5 10 -8 5 -19 10 -25 10 -5
0 -3 -5 5 -10z"/>
<path d="M5260 6149 c-22 -6 -20 -7 13 -8 38 -1 47 3 25 11 -7 3 -24 1 -38 -3z"/>
<path d="M4390 6140 c0 -5 11 -10 24 -10 14 0 28 5 31 10 4 6 -7 10 -24 10
-17 0 -31 -4 -31 -10z"/>
<path d="M4775 6130 c3 -5 12 -7 20 -3 21 7 19 13 -6 13 -11 0 -18 -4 -14 -10z"/>
<path d="M4850 6129 c0 -5 5 -7 10 -4 6 3 10 8 10 11 0 2 -4 4 -10 4 -5 0 -10
-5 -10 -11z"/>
<path d="M5148 6133 c7 -3 16 -2 19 1 4 3 -2 6 -13 5 -11 0 -14 -3 -6 -6z"/>
<path d="M4476 6119 c4 -7 44 0 44 7 0 2 -11 3 -24 2 -14 -1 -23 -5 -20 -9z"/>
<path d="M4570 6120 c8 -5 24 -10 34 -10 26 0 18 6 -19 14 -22 5 -26 4 -15 -4z"/>
<path d="M4665 6117 c12 -9 44 -15 74 -15 62 -1 62 8 -1 14 -24 2 -54 6 -68 9
-24 6 -24 6 -5 -8z"/>
<path d="M4938 6123 c7 -3 16 -2 19 1 4 3 -2 6 -13 5 -11 0 -14 -3 -6 -6z"/>
<path d="M4988 6123 c12 -2 32 -2 45 0 12 2 2 4 -23 4 -25 0 -35 -2 -22 -4z"/>
<path d="M4890 6105 c0 -8 2 -15 4 -15 2 0 11 -3 19 -6 12 -4 14 0 10 15 -6
24 -33 29 -33 6z"/>
<path d="M5125 6109 c8 -11 42 -12 49 -1 3 5 -8 9 -25 10 -16 0 -27 -4 -24 -9z"/>
<path d="M5198 6113 c6 -2 18 -2 25 0 6 3 1 5 -13 5 -14 0 -19 -2 -12 -5z"/>
<path d="M5315 6110 c-4 -6 5 -10 20 -10 15 0 24 4 20 10 -3 6 -12 10 -20 10
-8 0 -17 -4 -20 -10z"/>
<path d="M4385 6100 c-15 -6 -11 -8 16 -7 21 1 35 5 32 10 -5 9 -22 8 -48 -3z"/>
<path d="M4834 6095 c20 -15 36 -12 36 8 0 7 -4 6 -10 -3 -6 -10 -10 -11 -10
-2 0 6 -8 12 -17 12 -17 -1 -16 -2 1 -15z"/>
<path d="M5006 6102 c-3 -5 -18 -8 -33 -6 -16 2 -20 1 -10 -2 21 -7 23 -24 3
-24 -8 0 -18 -4 -21 -10 -12 -19 25 -10 42 10 24 27 37 25 66 -10 14 -16 33
-30 42 -30 9 0 14 -4 11 -9 -3 -5 5 -8 19 -8 14 0 22 3 19 8 -3 5 9 6 27 2 23
-4 30 -3 25 5 -4 7 -17 12 -30 12 -12 0 -26 3 -30 8 -7 7 -12 8 -38 11 -7 0
-4 7 7 14 24 18 3 32 -25 17 -15 -8 -20 -8 -20 1 0 6 -6 9 -14 6 -7 -3 -18 -1
-24 5 -6 6 -12 6 -16 0z"/>
<path d="M4312 6088 c-15 -15 -16 -38 -1 -38 5 0 7 5 4 10 -4 6 -1 17 5 25 15
18 9 20 -8 3z"/>
<path d="M5175 6090 c-16 -8 -11 -9 20 -8 43 1 95 -16 107 -35 5 -7 8 -1 8 14
0 15 -7 29 -16 33 -23 9 -96 6 -119 -4z"/>
<path d="M4626 6075 c-11 -8 -15 -15 -9 -15 6 0 16 7 23 15 16 19 11 19 -14 0z"/>
<path d="M4250 6069 c0 -5 -10 -7 -22 -4 -13 4 -31 -1 -43 -10 -20 -15 -20
-15 4 -35 13 -12 27 -17 30 -12 3 4 16 8 27 8 15 0 20 -5 17 -16 -4 -9 1 -7
10 5 14 19 14 20 -6 26 -12 3 -34 4 -49 1 -16 -2 -28 0 -28 6 0 15 23 28 27
15 4 -11 50 -5 58 7 3 4 -2 10 -10 14 -8 3 -15 1 -15 -5z"/>
<path d="M4358 6073 c6 -2 18 -2 25 0 6 3 1 5 -13 5 -14 0 -19 -2 -12 -5z"/>
<path d="M4670 6066 c-6 -8 -24 -17 -38 -19 -24 -4 -24 -4 6 -6 17 0 32 4 32
9 0 6 7 10 15 10 8 0 15 5 15 10 0 15 -16 12 -30 -4z"/>
<path d="M4755 6070 c3 -5 14 -10 23 -10 15 0 15 2 2 10 -20 13 -33 13 -25 0z"/>
<path d="M5135 6070 c3 -5 8 -10 11 -10 2 0 4 5 4 10 0 6 -5 10 -11 10 -5 0
-7 -4 -4 -10z"/>
<path d="M4850 6062 c0 -5 7 -13 16 -16 10 -4 14 -1 12 6 -5 15 -28 23 -28 10z"/>
<path d="M5210 6063 c14 -3 28 -10 32 -16 4 -6 10 -8 15 -4 11 12 -18 27 -47
25 l-25 -1 25 -4z"/>
<path d="M4355 6051 c-3 -6 13 -10 36 -9 23 0 45 -5 49 -12 4 -7 10 -8 13 -3
8 12 -36 33 -68 33 -13 0 -26 -4 -30 -9z"/>
<path d="M5027 6046 c-6 -15 1 -26 15 -26 11 0 10 27 -1 34 -5 3 -11 0 -14 -8z"/>
<path d="M4705 6040 c3 -5 14 -10 23 -10 15 0 15 2 2 10 -20 13 -33 13 -25 0z"/>
<path d="M4503 6033 c9 -2 23 -2 30 0 6 3 -1 5 -18 5 -16 0 -22 -2 -12 -5z"/>
<path d="M4596 6015 c5 -11 1 -14 -12 -9 -15 5 -16 4 -5 -4 16 -11 44 -5 36 8
-3 5 3 11 12 13 11 3 8 5 -9 6 -21 1 -26 -3 -22 -14z"/>
<path d="M4658 6013 c7 -3 16 -2 19 1 4 3 -2 6 -13 5 -11 0 -14 -3 -6 -6z"/>
<path d="M4700 6010 c-9 -6 -10 -10 -3 -10 6 0 15 5 18 10 8 12 4 12 -15 0z"/>
<path d="M5077 6001 c23 -22 39 -28 28 -11 -3 5 -16 15 -28 21 l-22 11 22 -21z"/>
<path d="M4380 6000 c0 -5 9 -10 21 -10 11 0 17 5 14 10 -3 6 -13 10 -21 10
-8 0 -14 -4 -14 -10z"/>
<path d="M4507 5993 c4 -11 9 -11 22 -1 9 7 18 14 20 15 3 2 -7 2 -21 1 -17
-1 -24 -7 -21 -15z"/>
<path d="M4758 6003 c7 -3 16 -2 19 1 4 3 -2 6 -13 5 -11 0 -14 -3 -6 -6z"/>
<path d="M4828 6003 c7 -3 16 -2 19 1 4 3 -2 6 -13 5 -11 0 -14 -3 -6 -6z"/>
<path d="M4320 5996 c0 -2 11 -6 25 -8 14 -3 25 -1 25 3 0 5 -11 9 -25 9 -14
0 -25 -2 -25 -4z"/>
<path d="M4431 5977 c-13 -21 -12 -21 5 -5 10 10 16 20 13 22 -3 3 -11 -5 -18
-17z"/>
<path d="M4918 5986 c3 -6 7 -17 7 -23 0 -13 20 -18 20 -5 1 18 17 30 37 24
15 -3 19 -2 14 7 -4 6 -25 11 -46 9 -24 -1 -36 -6 -32 -12z"/>
<path d="M5015 5990 c3 -5 13 -10 21 -10 8 0 12 5 9 10 -3 6 -13 10 -21 10 -8
0 -12 -4 -9 -10z"/>
<path d="M4735 5981 c3 -5 0 -13 -6 -17 -6 -3 -14 -2 -18 4 -4 6 -12 7 -20 3
-20 -13 5 -24 35 -17 23 6 35 36 13 36 -5 0 -8 -4 -4 -9z"/>
<path d="M5066 5976 c4 -11 0 -16 -12 -16 -13 0 -15 -3 -7 -11 6 -6 16 -8 22
-5 14 9 14 33 1 41 -6 3 -7 -1 -4 -9z"/>
<path d="M5125 5980 c-3 -5 -3 -10 2 -11 4 0 -3 -5 -16 -10 -13 -5 -21 -12
-18 -15 3 -3 15 0 27 6 12 7 31 10 41 7 12 -3 19 0 19 8 0 19 -17 28 -23 13
-4 -10 -6 -10 -6 0 -1 14 -17 16 -26 2z"/>
<path d="M5203 5979 c3 -9 0 -22 -6 -28 -13 -13 2 -15 20 -3 10 6 9 12 -3 28
-12 14 -14 15 -11 3z"/>
<path d="M4806 5968 c7 -11 34 -10 34 1 0 6 -9 9 -19 8 -11 0 -17 -5 -15 -9z"/>
<path d="M4956 5972 c-10 -9 15 -32 35 -32 12 0 16 5 13 14 -6 15 -39 28 -48
18z"/>
<path d="M4276 5961 c-4 -5 2 -12 11 -14 13 -3 11 -5 -6 -6 -18 -1 -22 -4 -14
-12 8 -8 17 -8 33 1 12 6 20 13 18 14 -1 1 -10 7 -20 14 -10 8 -19 9 -22 3z"/>
<path d="M4339 5957 c6 -8 8 -17 4 -20 -3 -4 7 -7 23 -7 28 1 28 1 9 17 -19
15 -19 15 10 9 22 -5 26 -4 15 4 -8 5 -28 10 -44 10 -23 0 -26 -3 -17 -13z"/>
<path d="M4620 5959 c0 -6 -9 -8 -22 -4 -17 6 -20 4 -12 -4 13 -14 67 -4 58
10 -7 12 -24 11 -24 -2z"/>
<path d="M4865 5961 c-3 -2 7 -10 22 -18 14 -7 28 -11 31 -8 3 3 0 5 -7 5 -7
0 -11 6 -8 14 4 10 -1 14 -14 13 -11 -1 -22 -3 -24 -6z"/>
<path d="M4433 5953 c-23 -9 -14 -23 15 -23 19 0 23 3 13 9 -11 7 -11 9 0 14
11 4 11 5 -1 5 -8 0 -21 -2 -27 -5z"/>
<path d="M4485 5950 c3 -5 8 -10 11 -10 2 0 4 5 4 10 0 6 -5 10 -11 10 -5 0
-7 -4 -4 -10z"/>
<path d="M4510 5940 c0 -12 26 -19 39 -10 9 5 4 9 -13 12 -14 3 -26 2 -26 -2z"/>
<path d="M5136 5934 c-11 -28 -7 -31 37 -31 l42 -1 -35 11 c-24 7 -30 12 -17
14 9 3 15 9 12 14 -10 14 -32 11 -39 -7z"/>
<path d="M4937 5924 c-4 -7 0 -25 8 -40 8 -16 15 -27 16 -24 0 3 2 13 4 23 2
9 -1 17 -5 17 -5 0 -10 8 -12 18 -2 11 -6 13 -11 6z"/>
<path d="M4998 5923 c6 -2 18 -2 25 0 6 3 1 5 -13 5 -14 0 -19 -2 -12 -5z"/>
<path d="M5053 5923 c9 -2 23 -2 30 0 6 3 -1 5 -18 5 -16 0 -22 -2 -12 -5z"/>
<path d="M4897 5905 c-4 -9 -1 -15 8 -15 8 0 15 -4 15 -10 0 -5 -5 -10 -11
-10 -6 0 -9 -5 -7 -11 4 -12 23 -13 23 -1 0 4 4 12 7 18 4 6 -1 19 -11 28 -16
15 -19 15 -24 1z"/>
<path d="M4410 5900 c0 -15 21 -23 32 -12 6 6 2 11 -11 15 -12 3 -21 1 -21 -3z"/>
<path d="M4569 5887 c-20 -17 -20 -19 -4 -13 11 5 35 12 53 16 47 11 51 20 10
18 -19 -1 -46 -10 -59 -21z"/>
<path d="M4680 5900 c-9 -6 -10 -10 -3 -10 6 0 15 5 18 10 8 12 4 12 -15 0z"/>
<path d="M4765 5900 c3 -5 8 -10 11 -10 2 0 4 5 4 10 0 6 -5 10 -11 10 -5 0
-7 -4 -4 -10z"/>
<path d="M4823 5903 c18 -5 24 -33 6 -33 -5 0 -7 -4 -4 -10 3 -5 11 -10 16
-10 6 0 7 5 4 10 -3 6 1 10 11 10 13 0 14 3 5 13 -6 8 -8 17 -4 20 3 4 -7 6
-23 6 -17 -1 -22 -3 -11 -6z"/>
<path d="M4360 5885 c-9 -11 -10 -15 -1 -15 7 0 19 7 27 15 13 13 13 15 1 15
-8 0 -20 -7 -27 -15z"/>
<path d="M5033 5884 c2 -14 -7 -20 -33 -24 -34 -6 -34 -6 -8 -11 15 -4 30 -3
34 0 3 3 18 7 32 7 35 2 62 13 62 26 0 6 -14 8 -34 5 -18 -3 -38 -1 -44 5 -7
7 -10 4 -9 -8z"/>
<path d="M5005 5880 c-3 -5 -1 -10 4 -10 6 0 11 5 11 10 0 6 -2 10 -4 10 -3 0
-8 -4 -11 -10z"/>
<path d="M4317 5868 c-2 -7 3 -18 12 -25 25 -19 36 -15 18 5 -10 10 -14 22
-10 25 3 4 1 7 -4 7 -6 0 -13 -6 -16 -12z"/>
<path d="M4435 5872 c-3 -4 -11 -8 -16 -8 -5 -1 -17 -3 -26 -4 -13 -1 -11 -4
7 -9 14 -4 30 -4 36 1 6 4 20 7 30 7 37 -4 64 1 64 11 0 12 -32 9 -41 -4 -4
-4 -15 -3 -26 3 -11 5 -24 7 -28 3z"/>
<path d="M4599 5876 c-6 -12 -5 -36 2 -36 5 0 9 5 9 11 0 8 12 10 36 6 20 -3
34 -4 31 -1 -5 5 -76 24 -78 20z"/>
<path d="M4894 5789 c-10 -17 14 -35 28 -21 9 9 9 12 -1 12 -7 0 -9 5 -6 10 3
6 2 10 -4 10 -5 0 -13 -5 -17 -11z"/>
<path d="M4495 5761 c-6 -11 9 -23 19 -14 9 9 7 23 -3 23 -6 0 -12 -4 -16 -9z"/>
<path d="M4466 5725 c-3 -8 -16 -15 -30 -15 -14 0 -28 -4 -31 -10 -4 -6 10 -9
34 -8 23 1 41 5 41 9 0 4 3 14 6 23 3 9 2 16 -4 16 -5 0 -12 -7 -16 -15z"/>
<path d="M4520 5731 c0 -6 5 -13 10 -16 6 -3 10 1 10 9 0 9 -4 16 -10 16 -5 0
-10 -4 -10 -9z"/>
<path d="M4620 5711 c0 -24 34 -22 38 2 2 12 -3 17 -17 17 -14 0 -21 -6 -21
-19z"/>
<path d="M4690 5705 c10 -12 76 -13 87 -1 7 7 5 7 -54 10 -31 2 -40 -1 -33 -9z"/>
<path d="M4360 5678 c-14 -11 -18 -19 -10 -16 8 3 25 1 38 -3 14 -6 22 -5 22
2 0 7 11 9 28 6 15 -3 34 -2 42 4 10 5 -5 7 -43 5 -47 -3 -57 -1 -53 10 7 18
6 18 -24 -8z"/>
<path d="M4245 5680 c-3 -5 1 -10 9 -10 9 0 16 5 16 10 0 6 -4 10 -9 10 -6 0
-13 -4 -16 -10z"/>
<path d="M4294 5682 c-9 -5 -8 -11 2 -20 8 -7 14 -11 14 -8 0 2 3 11 6 20 6
17 -3 21 -22 8z"/>
<path d="M4600 5666 c14 -8 28 -12 33 -9 11 7 7 9 -28 17 l-30 6 25 -14z"/>
<path d="M4670 5670 c19 -13 30 -13 30 0 0 6 -10 10 -22 10 -19 0 -20 -2 -8
-10z"/>
<path d="M4725 5670 c-15 -6 -11 -8 17 -7 21 1 38 5 38 10 0 9 -29 8 -55 -3z"/>
<path d="M4230 5648 c0 -11 8 -18 20 -18 11 0 20 5 20 11 0 5 -5 7 -11 3 -6
-3 -15 0 -20 7 -7 11 -9 10 -9 -3z"/>
<path d="M4775 5651 c-17 -7 -17 -8 8 -13 19 -4 27 -1 27 8 0 15 -6 16 -35 5z"/>
<path d="M4320 5640 c0 -5 4 -10 9 -10 6 0 13 5 16 10 3 6 -1 10 -9 10 -9 0
-16 -4 -16 -10z"/>
<path d="M4425 5640 c3 -5 13 -10 21 -10 8 0 14 5 14 10 0 6 -9 10 -21 10 -11
0 -17 -4 -14 -10z"/>
<path d="M4470 5640 c0 -6 7 -10 15 -10 8 0 15 2 15 4 0 2 -7 6 -15 10 -8 3
-15 1 -15 -4z"/>
<path d="M4510 5646 c0 -10 28 -13 41 -5 10 6 7 9 -13 9 -16 0 -28 -2 -28 -4z"/>
<path d="M4588 5638 c13 -12 111 -13 98 -1 -4 5 -29 8 -56 8 -27 0 -46 -3 -42
-7z"/>
<path d="M4725 5640 c-3 -5 1 -10 9 -10 9 0 16 5 16 10 0 6 -4 10 -9 10 -6 0
-13 -4 -16 -10z"/>
<path d="M4485 5610 c3 -5 13 -10 21 -10 8 0 12 5 9 10 -3 6 -13 10 -21 10 -8
0 -12 -4 -9 -10z"/>
<path d="M4610 5610 c0 -5 10 -10 23 -10 18 0 19 2 7 10 -19 13 -30 13 -30 0z"/>
<path d="M4690 5610 c0 -5 5 -10 11 -10 5 0 7 5 4 10 -3 6 -8 10 -11 10 -2 0
-4 -4 -4 -10z"/>
<path d="M5153 5613 c9 -2 23 -2 30 0 6 3 -1 5 -18 5 -16 0 -22 -2 -12 -5z"/>
<path d="M4778 5603 c7 -3 16 -2 19 1 4 3 -2 6 -13 5 -11 0 -14 -3 -6 -6z"/>
<path d="M4525 5590 c-17 -7 -16 -9 10 -11 30 -2 30 -2 -5 -8 l-35 -7 28 -6
c18 -3 33 0 43 10 11 10 18 12 23 4 3 -6 20 -14 36 -18 27 -7 29 -6 16 9 -11
15 -11 17 2 17 8 0 18 -8 22 -17 6 -17 7 -17 17 0 5 10 8 20 6 21 -9 9 -146
13 -163 6z"/>
<path d="M4790 5580 c19 -13 30 -13 30 0 0 6 -10 10 -22 10 -19 0 -20 -2 -8
-10z"/>
<path d="M4283 5565 c0 -8 4 -15 8 -15 4 0 9 7 13 15 3 9 0 15 -8 15 -7 0 -13
-7 -13 -15z"/>
<path d="M4700 5576 c0 -2 7 -6 15 -10 8 -3 15 -1 15 4 0 6 -7 10 -15 10 -8 0
-15 -2 -15 -4z"/>
<path d="M4380 5549 c0 -8 9 -20 20 -27 18 -11 23 -10 38 5 16 16 16 16 -2 10
-12 -5 -26 -1 -37 9 -15 14 -19 14 -19 3z"/>
<path d="M4480 5529 c0 -5 -7 -9 -17 -9 -9 0 -14 -3 -11 -6 3 -3 21 -1 39 4
31 7 32 9 12 14 -13 3 -23 2 -23 -3z"/>
<path d="M4913 5533 c9 -2 23 -2 30 0 6 3 -1 5 -18 5 -16 0 -22 -2 -12 -5z"/>
<path d="M4620 5511 c0 -6 -19 -11 -42 -12 -31 0 -37 -3 -23 -8 19 -8 19 -8 0
-19 -11 -6 -15 -12 -9 -12 5 0 15 5 22 12 9 9 15 9 24 0 9 -9 10 -15 2 -20
-17 -10 -28 -52 -14 -52 6 0 9 4 6 8 -2 4 0 14 5 22 8 12 12 12 16 3 2 -7 9
-13 14 -13 6 0 7 5 4 10 -3 6 -1 10 4 10 6 0 11 -5 11 -10 0 -6 6 -10 13 -9
34 4 49 -4 17 -11 l-35 -7 37 -2 c29 -1 38 3 43 19 5 17 9 18 28 8 l22 -12
-25 -8 c-21 -6 -19 -7 8 -3 17 2 32 0 32 -5 0 -6 7 -10 16 -10 14 0 14 3 4 15
-7 8 -9 15 -6 15 4 0 1 7 -8 15 -8 8 -31 15 -51 15 -33 0 -35 2 -25 21 11 19
10 20 -9 9 -12 -6 -21 -15 -21 -20 0 -6 -16 -10 -36 -10 -21 0 -33 4 -29 10 4
6 11 8 16 5 13 -9 49 19 41 32 -10 15 -52 27 -52 14z m30 -21 c0 -5 -4 -10
-10 -10 -5 0 -10 5 -10 10 0 6 5 10 10 10 6 0 10 -4 10 -10z"/>
<path d="M4942 5508 c5 -15 95 -30 147 -26 19 2 36 9 39 17 3 9 -1 11 -16 7
-11 -4 -23 -2 -26 3 -4 6 -13 8 -21 5 -8 -4 -12 -10 -9 -15 3 -5 -16 -6 -43
-2 -26 3 -49 10 -51 15 -6 13 -24 9 -20 -4z"/>
<path d="M4698 5503 c7 -3 16 -2 19 1 4 3 -2 6 -13 5 -11 0 -14 -3 -6 -6z"/>
<path d="M4497 5493 c10 -3 10 -9 0 -26 -7 -12 -16 -26 -22 -30 -5 -5 0 -5 13
-2 13 4 22 2 22 -4 0 -8 6 -8 19 0 16 11 17 15 4 40 -8 16 -22 29 -31 28 -10
0 -12 -3 -5 -6z"/>
<path d="M4420 5440 c-23 -7 -23 -8 -3 -9 12 -1 25 4 28 9 3 6 5 10 3 9 -2 -1
-14 -5 -28 -9z"/>
<path d="M4338 5383 c6 -2 18 -2 25 0 6 3 1 5 -13 5 -14 0 -19 -2 -12 -5z"/>
<path d="M4798 5313 c6 -2 18 -2 25 0 6 3 1 5 -13 5 -14 0 -19 -2 -12 -5z"/>
<path d="M4140 5879 c0 -5 5 -7 10 -4 6 3 10 8 10 11 0 2 -4 4 -10 4 -5 0 -10
-5 -10 -11z"/>
<path d="M5170 5680 c0 -5 5 -10 10 -10 6 0 10 5 10 10 0 6 -4 10 -10 10 -5 0
-10 -4 -10 -10z"/>
<path d="M8507 6633 c18 -2 50 -2 70 0 21 2 7 4 -32 4 -38 0 -55 -2 -38 -4z"/>
<path d="M8498 6573 c28 -11 11 -25 -25 -20 -27 5 -33 3 -25 -5 19 -19 14 -27
-14 -22 -15 3 -23 1 -20 -5 4 -5 2 -12 -4 -16 -6 -4 -8 -11 -5 -16 6 -9 97 38
103 53 2 4 10 8 17 8 8 0 17 4 20 10 3 5 0 7 -8 4 -8 -3 -18 -1 -22 5 -3 6
-12 11 -18 10 -9 0 -9 -2 1 -6z"/>
<path d="M8340 6550 c8 -5 20 -10 25 -10 6 0 3 5 -5 10 -8 5 -19 10 -25 10 -5
0 -3 -5 5 -10z"/>
<path d="M8375 6470 c-16 -7 -17 -9 -3 -9 9 -1 20 4 23 9 7 11 7 11 -20 0z"/>
</g>
</svg>
