<?xml version="1.0" standalone="no"?>
<!DOCTYPE svg PUBLIC "-//W3C//DTD SVG 20010904//EN"
 "http://www.w3.org/TR/2001/REC-SVG-20010904/DTD/svg10.dtd">
<svg version="1.0" xmlns="http://www.w3.org/2000/svg"
 width="160.000000pt" height="160.000000pt" viewBox="0 0 160.000000 160.000000"
 preserveAspectRatio="xMidYMid meet">

<g transform="translate(0.000000,160.000000) scale(0.100000,-0.100000)"
fill="#000000" stroke="none">
<path d="M0 1014 c0 -520 2 -585 15 -574 12 10 15 10 15 -3 0 -9 -8 -18 -17
-20 -14 -4 -12 -5 5 -6 16 -1 22 5 22 19 0 32 28 23 35 -11 6 -26 11 -30 31
-26 20 3 22 2 13 -9 -9 -11 -8 -14 2 -14 11 0 11 -2 -1 -10 -13 -8 -12 -10 3
-10 9 0 17 -4 17 -10 0 -5 5 -10 10 -10 6 0 22 -7 36 -16 20 -14 22 -19 12
-32 -9 -11 -4 -10 16 4 21 13 31 15 34 6 2 -6 20 -19 40 -29 20 -9 44 -22 52
-28 25 -20 53 -27 47 -12 -7 18 63 22 76 5 6 -9 7 -8 3 5 -3 11 0 17 9 17 9 0
16 -11 17 -27 3 -53 4 -58 11 -71 12 -18 27 -15 27 6 0 23 45 40 128 48 52 6
62 4 62 -8 0 -10 -16 -20 -45 -27 -25 -6 -43 -16 -40 -21 3 -6 2 -10 -4 -10
-5 0 -11 3 -14 8 -2 4 -2 1 -1 -5 2 -7 -3 -18 -10 -25 -10 -10 -10 -16 5 -31
11 -12 25 -17 34 -13 13 5 15 1 10 -17 -4 -13 -3 -17 2 -10 9 13 53 7 53 -7 0
-4 9 -10 21 -13 12 -3 19 -9 16 -14 -3 -4 19 -9 49 -11 61 -3 80 14 50 47 -26
29 -19 38 39 46 42 5 60 3 77 -9 12 -9 32 -17 43 -17 17 -1 17 -2 2 -6 -22 -6
-12 -23 13 -23 10 0 22 -4 25 -10 4 -6 -11 -7 -39 -4 -37 5 -46 4 -46 -8 0
-13 44 -15 320 -17 l320 -2 0 801 0 800 -800 0 -800 0 0 -586z m1324 544 c-6
-10 -4 -10 7 0 19 17 29 15 29 -7 0 -11 8 -22 18 -26 18 -5 42 -44 42 -67 0
-18 -31 -48 -50 -48 -9 0 -27 -11 -40 -25 -72 -77 -153 42 -84 124 14 17 32
31 40 31 8 0 17 7 20 15 4 8 10 15 16 15 5 0 6 -6 2 -12z m-841 -840 c-56 -56
-105 -99 -109 -96 -3 4 14 24 38 45 23 21 70 64 103 95 98 94 78 66 -32 -44z
m207 45 c8 -21 15 -46 16 -56 1 -20 14 -37 14 -19 0 7 7 12 15 12 24 0 17 -26
-9 -38 -14 -6 -30 -20 -36 -31 -9 -17 -3 -16 34 9 24 17 46 35 48 41 2 7 23
13 46 14 23 2 50 6 61 10 11 3 22 1 26 -5 3 -5 1 -10 -5 -10 -7 0 -9 -8 -5
-21 8 -25 -15 -73 -65 -140 -19 -26 -40 -55 -46 -65 -10 -17 -14 -17 -75 10
-35 16 -69 34 -75 42 -6 8 -13 11 -16 8 -9 -9 -138 50 -138 63 0 7 9 17 20 23
11 6 38 38 61 73 49 72 88 117 104 117 6 0 17 -17 25 -37z m405 -190 c-13 -19
-16 -48 -13 -142 3 -108 2 -117 -14 -113 -10 2 -18 8 -18 13 0 5 -3 8 -7 7 -5
-2 -31 7 -60 20 l-51 22 29 52 c31 58 34 68 18 68 -5 0 -21 -24 -35 -52 -13
-29 -21 -42 -18 -28 12 46 44 101 56 94 6 -4 9 -1 6 7 -7 19 50 89 66 83 8 -3
17 0 21 6 5 8 11 8 21 -1 13 -10 12 -15 -1 -36z m95 1 c0 -4 -12 -33 -26 -66
-24 -53 -26 -61 -13 -86 l13 -27 4 35 c6 57 34 79 47 38 6 -21 8 -20 18 12 15
43 25 60 38 60 15 0 10 -26 -18 -95 -26 -64 -26 -65 -7 -79 17 -13 20 -13 24
3 9 31 70 93 86 87 13 -5 13 -10 -2 -38 -21 -42 -115 -158 -127 -158 -5 0 -18
12 -30 26 -11 15 -35 32 -52 40 l-32 13 1 90 c2 85 4 92 31 121 27 28 45 38
45 24z m-902 -61 c2 -14 8 -20 18 -16 9 3 14 -2 14 -16 0 -18 -5 -21 -42 -20
l-43 2 40 7 c35 6 31 7 -30 9 -39 0 -76 -4 -81 -9 -7 -7 -19 -7 -35 -1 -13 5
-19 10 -12 10 7 1 10 8 7 16 -5 11 1 15 22 16 16 0 47 7 69 14 52 17 69 15 73
-12z m1112 -28 c0 -14 -4 -25 -8 -25 -4 0 -9 11 -10 25 -1 14 3 25 8 25 6 0
10 -11 10 -25z m34 -165 c-37 -72 -72 -130 -76 -130 -5 0 -7 3 -5 8 2 4 35 62
71 130 37 67 70 122 72 122 3 0 -25 -58 -62 -130z m-1098 108 c4 -7 3 -8 -4
-4 -7 4 -14 -3 -18 -19 -6 -24 -47 -45 -61 -31 -11 11 19 55 41 59 12 2 24 5
28 6 4 0 10 -4 14 -11z m-166 -32 c0 -2 -7 -6 -15 -10 -8 -3 -15 -1 -15 4 0 6
7 10 15 10 8 0 15 -2 15 -4z m80 -71 c0 -8 -4 -15 -10 -15 -5 0 -10 7 -10 15
0 8 5 15 10 15 6 0 10 -7 10 -15z m180 -15 c0 -5 -5 -10 -11 -10 -5 0 -7 5 -4
10 3 6 8 10 11 10 2 0 4 -4 4 -10z m207 -206 c-3 -3 -12 -4 -19 -1 -8 3 -5 6
6 6 11 1 17 -2 13 -5z m140 -8 c0 -8 -6 -12 -15 -9 -11 5 -11 7 0 14 7 5 13 9
14 9 0 0 1 -6 1 -14z"/>
<path d="M75 370 c3 -5 11 -10 16 -10 6 0 7 5 4 10 -3 6 -11 10 -16 10 -6 0
-7 -4 -4 -10z"/>
<path d="M456 165 c4 -8 8 -15 10 -15 2 0 4 7 4 15 0 8 -4 15 -10 15 -5 0 -7
-7 -4 -15z"/>
<path d="M552 124 c10 -10 20 -16 22 -13 3 3 -5 11 -17 18 -21 13 -21 12 -5
-5z"/>
<path d="M5 91 c-3 -5 -1 -12 5 -16 5 -3 10 1 10 9 0 18 -6 21 -15 7z"/>
<path d="M490 89 c0 -5 5 -7 10 -4 6 3 10 8 10 11 0 2 -4 4 -10 4 -5 0 -10 -5
-10 -11z"/>
<path d="M230 10 c0 -5 5 -10 10 -10 6 0 10 5 10 10 0 6 -4 10 -10 10 -5 0
-10 -4 -10 -10z"/>
</g>
</svg>
