<?xml version="1.0" encoding="UTF-8"?>
<svg version="1.1" xmlns="http://www.w3.org/2000/svg" width="160" height="160">
<path d="M0 0 C52.8 0 105.6 0 160 0 C160 52.8 160 105.6 160 160 C107.2 160 54.4 160 0 160 C0 107.2 0 54.4 0 0 Z " fill="#817E84" transform="translate(0,0)"/>
<path d="M0 0 C52.8 0 105.6 0 160 0 C160 52.8 160 105.6 160 160 C107.2 160 54.4 160 0 160 C0 107.2 0 54.4 0 0 Z M47 8 C46.28162068 11.48493049 46.28162068 11.48493049 46.5 15.3125 C46.51627441 16.00384033 46.53254883 16.69518066 46.54931641 17.4074707 C46.86348352 25.5455012 47.72223728 34.87610225 51.04101562 42.34179688 C52.13865925 45.38434875 52.22841995 47.72905481 52.1953125 50.95703125 C52.18886719 52.06884766 52.18242188 53.18066406 52.17578125 54.32617188 C52.15902344 55.47666016 52.14226563 56.62714844 52.125 57.8125 C52.11597656 58.98232422 52.10695312 60.15214844 52.09765625 61.35742188 C52.07413732 64.23849053 52.04126852 67.11913989 52 70 C49.04111327 69.69215623 46.08296833 69.37894426 43.125 69.0625 C42.28324219 68.97548828 41.44148438 68.88847656 40.57421875 68.79882812 C39.76855469 68.71181641 38.96289062 68.62480469 38.1328125 68.53515625 C37.38918457 68.456604 36.64555664 68.37805176 35.87939453 68.29711914 C34 68 34 68 32 67 C29.36065948 66.84918054 26.76527332 66.7686922 24.125 66.75 C23.40441406 66.729375 22.68382812 66.70875 21.94140625 66.6875 C18.75418157 66.66402137 16.37669943 66.81046941 13.5078125 68.25390625 C11.64880691 70.40669251 11.56625945 71.38545658 11.75 74.1875 C11.8325 75.445625 11.915 76.70375 12 78 C12.63421875 78.22558594 13.2684375 78.45117188 13.921875 78.68359375 C16 80 16 80 16.828125 82.22265625 C18.15883219 91.18028704 18.1925953 99.96942044 18 109 C18.66 109 19.32 109 20 109 C19.9175 110.155 19.835 111.31 19.75 112.5 C19.72816469 117.12908643 20.73317031 121.31299589 21.9375 125.75 C23.85639791 132.82384666 24.74846252 139.65510556 25 147 C26.65 147.33 28.3 147.66 30 148 C30.68938799 144.55306004 31.06022471 141.28719036 31.03125 137.78125 C31.0209375 136.5334375 31.010625 135.285625 31 134 C31.65288498 134.08769653 32.30576996 134.17539307 32.97843933 134.26574707 C39.77489937 135.17800474 46.57195904 136.0856892 53.36938477 136.99072266 C55.90599985 137.32906776 58.44245982 137.6685779 60.97875977 138.00927734 C64.62476066 138.49883628 68.27129918 138.98420034 71.91796875 139.46875 C73.05147263 139.62186646 74.1849765 139.77498291 75.35282898 139.93273926 C76.41355118 140.07288452 77.47427338 140.21302979 78.56713867 140.35742188 C79.49757492 140.48177612 80.42801117 140.60613037 81.38664246 140.73425293 C83.94511453 140.99441881 86.43039615 141.04776708 89 141 C88.98839844 141.58007812 88.97679688 142.16015625 88.96484375 142.7578125 C88.91237826 147.2998246 89.08248937 151.52713569 90 156 C91.65 156 93.3 156 95 156 C95.33 150.72 95.66 145.44 96 140 C97.32 139.67 98.64 139.34 100 139 C102.02636617 137.90146726 104.02458594 136.7502177 106 135.5625 C109.28923916 133.59306805 112.54021448 131.65504163 116 130 C116 132.64 116 135.28 116 138 C117.32 138 118.64 138 120 138 C120.495 131.565 120.495 131.565 121 125 C122.65 124.34 124.3 123.68 126 123 C127.25847694 120.31168975 127.25847694 120.31168975 127.84375 117.0078125 C128.11791748 115.7587915 128.39208496 114.50977051 128.67456055 113.22290039 C128.95039647 111.85707265 129.22552586 110.49110206 129.5 109.125 C129.79780796 107.72422384 130.09706052 106.32375408 130.39770508 104.92358398 C132.60597333 94.50610028 134.49172241 84.03159601 136.29248047 73.53662109 C137.576632 66.10864383 139.1679655 58.86975145 141.09375 51.5859375 C143.6268231 41.56282928 145.18439335 31.32228769 146.5703125 21.0859375 C146.99349935 18.04668652 147.4823024 15.02444386 148 12 C146.35 11.67 144.7 11.34 143 11 C143 10.34 143 9.68 143 9 C140.60838715 7.80419357 138.99220247 7.81301071 136.3203125 7.71875 C135.34328369 7.68201172 134.36625488 7.64527344 133.35961914 7.60742188 C132.29219482 7.57197266 131.22477051 7.53652344 130.125 7.5 C129.01310303 7.45939453 127.90120605 7.41878906 126.75561523 7.37695312 C123.17055016 7.24697796 119.58529861 7.12334853 116 7 C113.67576591 6.91709573 111.35154692 6.83376686 109.02734375 6.75 C107.30427002 6.68824585 107.30427002 6.68824585 105.54638672 6.62524414 C103.22117133 6.54165371 100.89597593 6.45750531 98.57080078 6.37280273 C92.57757493 6.15610466 86.58454849 5.95652378 80.58984375 5.78515625 C78.22656214 5.71094886 75.86328088 5.63673051 73.5 5.5625 C72.40179932 5.53542969 71.30359863 5.50835937 70.17211914 5.48046875 C69.15625732 5.44695313 68.14039551 5.4134375 67.09375 5.37890625 C66.20365234 5.3538501 65.31355469 5.32879395 64.39648438 5.30297852 C61.84911835 4.9809246 60.24222751 4.20651797 58 3 C52.42348249 2.16945484 50.45282898 3.67675837 47 8 Z " fill="#FDFDFD" transform="translate(0,0)"/>
<path d="M0 0 C2.76276177 0.52268466 5.3260876 1.10869587 8 2 C7.08592314 10.47403014 5.99855523 18.65787456 3.78125 26.90625 C2.72744437 31.07932028 1.96521963 35.2914344 1.19335938 39.52441406 C-0.26816521 47.5253243 -1.88546162 55.49362086 -3.49267578 63.46630859 C-3.97986129 65.89942275 -4.45836685 68.33405625 -4.93359375 70.76953125 C-5.73717029 74.88071624 -6.56759909 78.985892 -7.40966797 83.08935547 C-7.84118854 85.21697677 -8.26339893 87.3464923 -8.68017578 89.47705078 C-9.41138358 93.19765125 -10.17218362 96.91128147 -10.9375 100.625 C-11.16614746 101.81810791 -11.39479492 103.01121582 -11.63037109 104.24047852 C-11.86449707 105.34963623 -12.09862305 106.45879395 -12.33984375 107.6015625 C-12.63942993 109.09163818 -12.63942993 109.09163818 -12.94506836 110.61181641 C-14 113 -14 113 -19 115 C-19.33 119.29 -19.66 123.58 -20 128 C-21.32 128 -22.64 128 -24 128 C-24 125.36 -24 122.72 -24 120 C-29.22709697 122.84344395 -34.32515318 125.77299338 -39.2734375 129.08203125 C-41 130 -41 130 -44 130 C-44.33 135.28 -44.66 140.56 -45 146 C-46.65 146 -48.3 146 -50 146 C-51.03685927 140.94531106 -51.08332441 136.12740356 -51 131 C-52.00196411 130.94501343 -52.00196411 130.94501343 -53.02416992 130.88891602 C-64.52309585 130.1365803 -75.90048725 128.493969 -87.3125 126.9375 C-89.42117841 126.65265738 -91.52990206 126.36814948 -93.63867188 126.08398438 C-98.7596443 125.39318044 -103.87998336 124.6978511 -109 124 C-108.9896875 125.2478125 -108.979375 126.495625 -108.96875 127.78125 C-108.93977529 131.28719036 -109.31061201 134.55306004 -110 138 C-111.65 137.67 -113.3 137.34 -115 137 C-115.07347656 135.69675781 -115.07347656 135.69675781 -115.1484375 134.3671875 C-115.22320312 133.21476563 -115.29796875 132.06234375 -115.375 130.875 C-115.44460937 129.73804688 -115.51421875 128.60109375 -115.5859375 127.4296875 C-115.99546789 124.03753955 -116.91068505 121.22384303 -118 118 C-118.16015625 115.62109375 -118.16015625 115.62109375 -118.0625 113.4375 C-117.98115932 110.74421975 -118.04078959 108.83313349 -118.6875 106.1875 C-119 104 -119 104 -117.8125 101.6875 C-116 100 -116 100 -112 100 C-112.89335797 97.64214682 -112.89335797 97.64214682 -116.0625 96.875 C-117.031875 96.58625 -118.00125 96.2975 -119 96 C-118.01 95.01 -118.01 95.01 -117 94 C-116.01 94 -115.02 94 -114 94 C-114 93.34 -114 92.68 -114 92 C-114.66 91.34 -115.32 90.68 -116 90 C-100.63030045 89.50973845 -86.18012086 90.2597811 -71.046875 92.9765625 C-62.0953822 94.56697336 -53.05556285 95.27631674 -44 96 C-43.91455933 95.03682861 -43.91455933 95.03682861 -43.82739258 94.05419922 C-43.35578406 89.00963051 -42.77226574 84.08219764 -41.6875 79.125 C-41.46449219 78.05507812 -41.24148437 76.98515625 -41.01171875 75.8828125 C-39.85850212 72.59681299 -38.75874677 71.10496836 -36 69 C-33.78125 68.42578125 -33.78125 68.42578125 -31.5 68.3125 C-28.53459525 68.13477883 -25.86625949 67.80124981 -23 67 C-23.4125 66.484375 -23.825 65.96875 -24.25 65.4375 C-24.4975 64.633125 -24.745 63.82875 -25 63 C-24.05242037 61.26821653 -23.09401584 59.5396424 -22.0390625 57.87109375 C-20.41116299 54.93965064 -20.06379624 52.31740427 -20 49 C-21.29264699 47.03568595 -21.29264699 47.03568595 -23 46 C-21.68 46 -20.36 46 -19 46 C-19.309375 44.1128125 -19.309375 44.1128125 -19.625 42.1875 C-20.21335669 38.5985242 -20.16617415 38.24926122 -18 35 C-16.33175153 30.18061553 -15.79223648 26.09020617 -16 21 C-15.34 21 -14.68 21 -14 21 C-14 19.35 -14 17.7 -14 16 C-13.34 16 -12.68 16 -12 16 C-11.91199127 20.45820633 -11.85927078 24.91618539 -11.8125 29.375 C-11.78736328 30.62667969 -11.76222656 31.87835938 -11.73632812 33.16796875 C-11.67672426 40.75752818 -12.50306026 46.87019367 -15 54 C-15.64231559 56.53065809 -16.16064717 59.06600053 -16.6875 61.625 C-16.93886719 62.83414063 -17.19023438 64.04328125 -17.44921875 65.2890625 C-17.63097656 66.18367188 -17.81273438 67.07828125 -18 68 C-16.02 68.33 -14.04 68.66 -12 69 C-11.8265662 64.91692562 -11.66163348 60.83355818 -11.5 56.75 C-11.45085449 55.52611572 -11.40170898 54.30223145 -11.35107422 53.04125977 C-11.07455739 45.66057277 -10.99878842 38.32087768 -11.125 30.9375 C-11.22180144 24.1990439 -10.77083556 18.26736616 -8 12 C-7.34 12 -6.68 12 -6 12 C-6 11.01 -6 10.02 -6 9 C-5.34 9 -4.68 9 -4 9 C-3.67 7.35 -3.34 5.7 -3 4 C-2.34 4 -1.68 4 -1 4 C-0.67 2.68 -0.34 1.36 0 0 Z " fill="#5D5A61" transform="translate(140,10)"/>
<path d="M0 0 C2.76276177 0.52268466 5.3260876 1.10869587 8 2 C7.08592314 10.47403014 5.99855523 18.65787456 3.78125 26.90625 C2.72744437 31.07932028 1.96521963 35.2914344 1.19335938 39.52441406 C-0.26816521 47.5253243 -1.88546162 55.49362086 -3.49267578 63.46630859 C-3.97986129 65.89942275 -4.45836685 68.33405625 -4.93359375 70.76953125 C-5.73717029 74.88071624 -6.56759909 78.985892 -7.40966797 83.08935547 C-7.84118854 85.21697677 -8.26339893 87.3464923 -8.68017578 89.47705078 C-9.41138358 93.19765125 -10.17218362 96.91128147 -10.9375 100.625 C-11.16614746 101.81810791 -11.39479492 103.01121582 -11.63037109 104.24047852 C-11.86449707 105.34963623 -12.09862305 106.45879395 -12.33984375 107.6015625 C-12.63942993 109.09163818 -12.63942993 109.09163818 -12.94506836 110.61181641 C-14 113 -14 113 -19 115 C-19.33 119.29 -19.66 123.58 -20 128 C-21.32 128 -22.64 128 -24 128 C-24 125.36 -24 122.72 -24 120 C-25.35448698 120.74942137 -26.70856922 121.49957426 -28.0625 122.25 C-28.88105469 122.70246094 -29.69960937 123.15492188 -30.54296875 123.62109375 C-32.67613097 124.81824202 -34.77536499 126.0581142 -36.875 127.3125 C-40 129 -40 129 -43 129 C-42.855625 128.04738281 -42.71125 127.09476562 -42.5625 126.11328125 C-42.2840625 124.23189453 -42.2840625 124.23189453 -42 122.3125 C-41.7215625 120.45044922 -41.7215625 120.45044922 -41.4375 118.55078125 C-41.07899589 115.64113629 -40.91057744 112.92299978 -41 110 C-42.485 109.505 -42.485 109.505 -44 109 C-44 108.34 -44 107.68 -44 107 C-45.5778125 107.556875 -45.5778125 107.556875 -47.1875 108.125 C-50.8887094 109.03356561 -53.66812379 108.89633296 -57.40625 108.21875 C-63.48097053 107.20679557 -69.55809903 106.41739467 -75.67578125 105.7109375 C-77.09028816 105.54720139 -77.09028816 105.54720139 -78.53337097 105.38015747 C-81.45953363 105.04321335 -84.38600487 104.70904283 -87.3125 104.375 C-89.32489582 104.1434553 -91.33726584 103.91168619 -93.34960938 103.6796875 C-98.23277941 103.11720554 -103.11628801 102.55775605 -108 102 C-108 101.67 -108 101.34 -108 101 C-96.95137229 100.73374573 -86.37293625 101.46121591 -75.4375 103 C-73.33496047 103.28910222 -71.23208242 103.57504054 -69.12843323 103.85595703 C-67.24417635 104.10850328 -65.36117058 104.37033478 -63.47827148 104.6328125 C-55.87793016 105.62200906 -55.87793016 105.62200906 -49 103 C-47.98758315 101.67607028 -46.98560611 100.34400833 -46 99 C-45.34 99 -44.68 99 -44 99 C-41.8614515 101.1385485 -41.57344937 102.13275314 -41 105 C-40.34 105 -39.68 105 -39 105 C-39 103.02 -39 101.04 -39 99 C-38.01 98.67 -37.02 98.34 -36 98 C-35.34 92.06 -34.68 86.12 -34 80 C-33.34 80 -32.68 80 -32 80 C-31.505 78.515 -31.505 78.515 -31 77 C-30.34 77 -29.68 77 -29 77 C-28.814375 75.5459375 -28.814375 75.5459375 -28.625 74.0625 C-28.41875 73.051875 -28.2125 72.04125 -28 71 C-25.16730334 69.58365167 -22.52533562 69.6536995 -19.375 69.4375 C-18.18648438 69.35371094 -16.99796875 69.26992187 -15.7734375 69.18359375 C-14.85820313 69.12300781 -13.94296875 69.06242187 -13 69 C-11.76540723 64.03050473 -11.65386577 59.02960225 -11.4375 53.9375 C-11.37054932 52.48778809 -11.37054932 52.48778809 -11.30224609 51.00878906 C-11.02385741 44.41129966 -11.02002614 37.85078175 -11.125 31.25 C-11.22036648 24.40161949 -10.81644749 18.37053599 -8 12 C-7.34 12 -6.68 12 -6 12 C-6 11.01 -6 10.02 -6 9 C-5.34 9 -4.68 9 -4 9 C-3.67 7.35 -3.34 5.7 -3 4 C-2.34 4 -1.68 4 -1 4 C-0.67 2.68 -0.34 1.36 0 0 Z " fill="#4B494F" transform="translate(140,10)"/>
<path d="M0 0 C4.34588433 0.64725937 7.14101102 2.02581251 9.9375 5.4375 C10.30981445 7.6003418 10.30981445 7.6003418 10.30078125 10.13671875 C10.30142578 11.08611328 10.30207031 12.03550781 10.30273438 13.01367188 C10.28533203 14.04041016 10.26792969 15.06714844 10.25 16.125 C10.23743164 17.72891602 10.23743164 17.72891602 10.22460938 19.36523438 C10.10168544 27.75848086 9.45486778 36.05687508 8.65185547 44.40820312 C7.89608258 52.67708862 7.82075772 60.86010871 7.90625 69.15820312 C7.9733336 76.31218978 7.71613378 83.31856256 6.9375 90.4375 C8.27554688 90.40269531 8.27554688 90.40269531 9.640625 90.3671875 C11.39632812 90.34011719 11.39632812 90.34011719 13.1875 90.3125 C14.34765625 90.28929688 15.5078125 90.26609375 16.703125 90.2421875 C19.92142126 90.43652906 21.17233099 90.98805938 23.9375 92.4375 C26.28110274 92.85590282 28.63776351 93.20440994 31 93.5 C37.66292373 94.34597458 37.66292373 94.34597458 40.9375 95.4375 C40.9375 96.0975 40.9375 96.7575 40.9375 97.4375 C39.82632813 97.29441406 38.71515625 97.15132813 37.5703125 97.00390625 C24.7386878 95.40769493 11.93909282 94.25109635 -1 94.25 C-1.90443848 94.2492749 -2.80887695 94.2485498 -3.74072266 94.24780273 C-8.61298525 94.28853459 -13.23749151 94.70400702 -18.0625 95.4375 C-20.28980499 95.54796611 -22.51999638 95.61180471 -24.75 95.625 C-26.39548828 95.64626953 -26.39548828 95.64626953 -28.07421875 95.66796875 C-30.97765063 95.44404394 -32.61113767 94.94648947 -35.0625 93.4375 C-35.0625 92.1175 -35.0625 90.7975 -35.0625 89.4375 C-35.7225 89.4375 -36.3825 89.4375 -37.0625 89.4375 C-37.20945312 88.17292969 -37.20945312 88.17292969 -37.359375 86.8828125 C-37.58367188 85.23925781 -37.58367188 85.23925781 -37.8125 83.5625 C-37.95171875 82.47195312 -38.0909375 81.38140625 -38.234375 80.2578125 C-38.77185435 77.30971871 -38.77185435 77.30971871 -41.140625 76.0546875 C-41.77484375 75.85101563 -42.4090625 75.64734375 -43.0625 75.4375 C-43.453125 69.48046875 -43.453125 69.48046875 -43.0625 67.4375 C-40.64720641 64.68948739 -39.11726525 64.44301209 -35.453125 64.07421875 C-34.07281369 64.07272058 -32.69237979 64.09045525 -31.3125 64.125 C-30.59094727 64.134104 -29.86939453 64.14320801 -29.12597656 64.15258789 C-24.0712578 64.27100423 -19.88968406 65.06979785 -15.0625 66.4375 C-12.98784017 66.66118802 -10.90893317 66.84742271 -8.828125 67.00390625 C-7.20825684 67.1287439 -7.20825684 67.1287439 -5.55566406 67.25610352 C-4.32154785 67.34589478 -4.32154785 67.34589478 -3.0625 67.4375 C-2.42104872 48.05225724 -2.42104872 48.05225724 -7.0625 29.4375 C-7.62124393 26.59721837 -7.94047808 24.28154936 -8.0625 21.4375 C-8.13726562 20.16132813 -8.21203125 18.88515625 -8.2890625 17.5703125 C-8.34215821 16.13033714 -8.39158877 14.69022233 -8.4375 13.25 C-8.47584961 12.55994873 -8.51419922 11.86989746 -8.55371094 11.15893555 C-8.61653028 7.23225084 -8.18809635 5.59696739 -5.73046875 2.4765625 C-3.0625 0.4375 -3.0625 0.4375 0 0 Z " fill="#59565D" transform="translate(55.0625,2.5625)"/>
<path d="M0 0 C0.66 0 1.32 0 2 0 C2.08800873 4.45820633 2.14072922 8.91618539 2.1875 13.375 C2.21263672 14.62667969 2.23777344 15.87835938 2.26367188 17.16796875 C2.32327574 24.75752818 1.49693974 30.87019367 -1 38 C-1.64231559 40.53065809 -2.16064717 43.06600053 -2.6875 45.625 C-2.93886719 46.83414063 -3.19023438 48.04328125 -3.44921875 49.2890625 C-3.63097656 50.18367188 -3.81273438 51.07828125 -4 52 C-2.35 52.33 -0.7 52.66 1 53 C1 53.33 1 53.66 1 54 C-3.95 54.33 -8.9 54.66 -14 55 C-14.33 56.98 -14.66 58.96 -15 61 C-16.4375 62.875 -16.4375 62.875 -18 64 C-18.66 64 -19.32 64 -20 64 C-19.97679688 64.6290625 -19.95359375 65.258125 -19.9296875 65.90625 C-19.80846268 71.65577015 -20.2062492 76.51909476 -22 82 C-22.99 82.495 -22.99 82.495 -24 83 C-24.65772428 86.02934491 -24.65772428 86.02934491 -25 89 C-26.485 89.495 -26.485 89.495 -28 90 C-28.2165625 89.1028125 -28.2165625 89.1028125 -28.4375 88.1875 C-28.8872439 86.43849596 -29.42892341 84.71322977 -30 83 C-30.66 83 -31.32 83 -32 83 C-32.2475 83.598125 -32.495 84.19625 -32.75 84.8125 C-34.25342246 87.4434893 -35.37117457 88.47966263 -38 90 C-41.046875 90.1796875 -41.046875 90.1796875 -44.75 89.875 C-45.42160156 89.822229 -46.09320313 89.76945801 -46.78515625 89.71508789 C-57.22269066 88.82405059 -67.61848351 87.38220842 -78 86 C-78 85.34 -78 84.68 -78 84 C-79.55847656 83.92652344 -79.55847656 83.92652344 -81.1484375 83.8515625 C-98.34366084 82.96240338 -98.34366084 82.96240338 -104 81 C-104.33 80.34 -104.66 79.68 -105 79 C-102.525 78.505 -102.525 78.505 -100 78 C-100 77.34 -100 76.68 -100 76 C-100.66 75.34 -101.32 74.68 -102 74 C-86.63030045 73.50973845 -72.18012086 74.2597811 -57.046875 76.9765625 C-48.0953822 78.56697336 -39.05556285 79.27631674 -30 80 C-29.91455933 79.03682861 -29.91455933 79.03682861 -29.82739258 78.05419922 C-29.35578406 73.00963051 -28.77226574 68.08219764 -27.6875 63.125 C-27.35298828 61.52011719 -27.35298828 61.52011719 -27.01171875 59.8828125 C-25.85850212 56.59681299 -24.75874677 55.10496836 -22 53 C-19.78125 52.42578125 -19.78125 52.42578125 -17.5 52.3125 C-14.53459525 52.13477883 -11.86625949 51.80124981 -9 51 C-9.4125 50.484375 -9.825 49.96875 -10.25 49.4375 C-10.4975 48.633125 -10.745 47.82875 -11 47 C-10.05242037 45.26821653 -9.09401584 43.5396424 -8.0390625 41.87109375 C-6.41116299 38.93965064 -6.06379624 36.31740427 -6 33 C-7.29264699 31.03568595 -7.29264699 31.03568595 -9 30 C-7.68 30 -6.36 30 -5 30 C-5.309375 28.1128125 -5.309375 28.1128125 -5.625 26.1875 C-6.21335669 22.5985242 -6.16617415 22.24926122 -4 19 C-2.33175153 14.18061553 -1.79223648 10.09020617 -2 5 C-1.34 5 -0.68 5 0 5 C0 3.35 0 1.7 0 0 Z " fill="#555259" transform="translate(126,26)"/>
<path d="M0 0 C2.8125 0.4375 2.8125 0.4375 4.8125 2.4375 C4.1525 2.4375 3.4925 2.4375 2.8125 2.4375 C2.8125 3.4275 2.8125 4.4175 2.8125 5.4375 C1.8225 5.7675 0.8325 6.0975 -0.1875 6.4375 C-1.62259221 9.30768441 -1.29908506 11.77293723 -1.28515625 14.9765625 C-1.28193359 16.27851563 -1.27871094 17.58046875 -1.27539062 18.921875 C-1.26703466 20.30208399 -1.25856971 21.68229232 -1.25 23.0625 C-1.24498501 24.45051926 -1.2404221 25.83854022 -1.23632812 27.2265625 C-1.22450976 30.63025132 -1.20803434 34.03385439 -1.1875 37.4375 C-0.5275 37.4375 0.1325 37.4375 0.8125 37.4375 C1.01746094 38.07558594 1.22242188 38.71367188 1.43359375 39.37109375 C1.70300781 40.19738281 1.97242188 41.02367187 2.25 41.875 C2.51683594 42.69871094 2.78367188 43.52242187 3.05859375 44.37109375 C3.63405494 46.39969588 3.63405494 46.39969588 4.8125 47.4375 C4.88569621 50.13404854 4.90492537 52.80441458 4.875 55.5 C4.87048828 56.25861328 4.86597656 57.01722656 4.86132812 57.79882812 C4.8495068 59.67841871 4.83157078 61.55796899 4.8125 63.4375 C3.8225 63.9325 3.8225 63.9325 2.8125 64.4375 C2.15694881 66.96483235 2.15694881 66.96483235 1.8125 69.4375 C0.89025635 69.42178955 -0.0319873 69.4060791 -0.98217773 69.38989258 C-4.44317381 69.33839807 -7.9037557 69.3009739 -11.36499023 69.27270508 C-12.85561598 69.25772958 -14.34619851 69.23734181 -15.83666992 69.21118164 C-24.12758253 69.06943288 -31.42330444 69.10248477 -39.1875 72.4375 C-40.1775 71.4475 -41.1675 70.4575 -42.1875 69.4375 C-42.1875 71.0875 -42.1875 72.7375 -42.1875 74.4375 C-40.2075 73.9425 -40.2075 73.9425 -38.1875 73.4375 C-37.8575 74.4275 -37.5275 75.4175 -37.1875 76.4375 C-35.5375 76.7675 -33.8875 77.0975 -32.1875 77.4375 C-31.8575 78.4275 -31.5275 79.4175 -31.1875 80.4375 C-30.5275 80.4375 -29.8675 80.4375 -29.1875 80.4375 C-28.89195344 88.12171053 -28.89195344 88.12171053 -31.1875 91.4375 C-32.1775 91.9325 -32.1775 91.9325 -33.1875 92.4375 C-33.8475 90.1275 -34.5075 87.8175 -35.1875 85.4375 C-35.8475 86.7575 -36.5075 88.0775 -37.1875 89.4375 C-37.33445312 88.17292969 -37.33445312 88.17292969 -37.484375 86.8828125 C-37.70867188 85.23925781 -37.70867188 85.23925781 -37.9375 83.5625 C-38.07671875 82.47195312 -38.2159375 81.38140625 -38.359375 80.2578125 C-38.89685435 77.30971871 -38.89685435 77.30971871 -41.265625 76.0546875 C-41.89984375 75.85101563 -42.5340625 75.64734375 -43.1875 75.4375 C-43.578125 69.48046875 -43.578125 69.48046875 -43.1875 67.4375 C-40.77220641 64.68948739 -39.24226525 64.44301209 -35.578125 64.07421875 C-34.19781369 64.07272058 -32.81737979 64.09045525 -31.4375 64.125 C-30.71594727 64.134104 -29.99439453 64.14320801 -29.25097656 64.15258789 C-24.1962578 64.27100423 -20.01468406 65.06979785 -15.1875 66.4375 C-13.11284017 66.66118802 -11.03393317 66.84742271 -8.953125 67.00390625 C-7.33325684 67.1287439 -7.33325684 67.1287439 -5.68066406 67.25610352 C-4.44654785 67.34589478 -4.44654785 67.34589478 -3.1875 67.4375 C-2.54604872 48.05225724 -2.54604872 48.05225724 -7.1875 29.4375 C-7.74624393 26.59721837 -8.06547808 24.28154936 -8.1875 21.4375 C-8.26226562 20.16132813 -8.33703125 18.88515625 -8.4140625 17.5703125 C-8.46715821 16.13033714 -8.51658877 14.69022233 -8.5625 13.25 C-8.60084961 12.55994873 -8.63919922 11.86989746 -8.67871094 11.15893555 C-8.74144212 7.23776146 -8.31200859 5.59611766 -5.86328125 2.4765625 C-3.1875 0.4375 -3.1875 0.4375 0 0 Z " fill="#78767C" transform="translate(55.1875,2.5625)"/>
<path d="M0 0 C16.58142892 -0.5289132 32.03986113 0.61663266 48.34960938 3.56005859 C53.53646032 4.42102998 58.74778334 4.79116435 64 5 C64 5.66 64 6.32 64 7 C64.99 7.33 65.98 7.66 67 8 C65.35 8.33 63.7 8.66 62 9 C62 9.99 62 10.98 62 12 C54.30434453 13.30434839 47.64232315 12.42924436 40 11 C40 11.66 40 12.32 40 13 C34.72 12.67 29.44 12.34 24 12 C24 11.34 24 10.68 24 10 C22.96101563 9.95101562 21.92203125 9.90203125 20.8515625 9.8515625 C3.65633916 8.96240338 3.65633916 8.96240338 -2 7 C-2.33 6.34 -2.66 5.68 -3 5 C-1.35 4.67 0.3 4.34 2 4 C2 3.34 2 2.68 2 2 C1.34 1.34 0.68 0.68 0 0 Z " fill="#6B686F" transform="translate(24,100)"/>
<path d="M0 0 C2.76276177 0.52268466 5.3260876 1.10869587 8 2 C7.06848694 10.63567397 5.93759513 18.95419377 3.6640625 27.359375 C2.77386754 30.89920907 2.34900321 34.37036664 2 38 C0.68 37.01 -0.64 36.02 -2 35 C-2.99 35.495 -2.99 35.495 -4 36 C-4.66 33.69 -5.32 31.38 -6 29 C-7.6554128 30.6554128 -7.18708466 32.64747411 -7.24609375 34.92578125 C-7.27759521 35.94534912 -7.30909668 36.96491699 -7.34155273 38.01538086 C-7.37321533 39.10343018 -7.40487793 40.19147949 -7.4375 41.3125 C-8.10144533 60.0313412 -8.10144533 60.0313412 -10 66 C-10.99 66.495 -10.99 66.495 -12 67 C-11.96970703 66.34741211 -11.93941406 65.69482422 -11.90820312 65.02246094 C-11.76747384 61.93182924 -11.63280605 58.84098248 -11.5 55.75 C-11.45085449 54.62005615 -11.40170898 53.4901123 -11.35107422 52.32592773 C-11.06432761 45.22470285 -11.00430706 38.16692541 -11.125 31.0625 C-11.22150943 24.28003187 -10.78908181 18.30863744 -8 12 C-7.34 12 -6.68 12 -6 12 C-6 11.01 -6 10.02 -6 9 C-5.34 9 -4.68 9 -4 9 C-3.67 7.35 -3.34 5.7 -3 4 C-2.34 4 -1.68 4 -1 4 C-0.67 2.68 -0.34 1.36 0 0 Z " fill="#59565C" transform="translate(140,10)"/>
<path d="M0 0 C0.94875 0.350625 1.8975 0.70125 2.875 1.0625 C0.72779101 3.20970899 -0.20290143 3.6059221 -3.125 4.0625 C-4.115 3.5675 -4.115 3.5675 -5.125 3.0625 C-5.785 9.6625 -6.445 16.2625 -7.125 23.0625 C-8.115 23.0625 -9.105 23.0625 -10.125 23.0625 C-10.32127391 24.64476965 -10.50665538 26.22839271 -10.6875 27.8125 C-10.79191406 28.69421875 -10.89632812 29.5759375 -11.00390625 30.484375 C-11.24768426 33.00517052 -11.24768426 33.00517052 -10.59375 35.15625 C-9.81240442 38.33372202 -11.13391869 41.03095716 -12.125 44.0625 C-11.795 44.0625 -11.465 44.0625 -11.125 44.0625 C-10.9375 46.9375 -10.9375 46.9375 -11.125 50.0625 C-14.125 52.0625 -14.125 52.0625 -17.125 52.0625 C-16.980625 51.10988281 -16.83625 50.15726563 -16.6875 49.17578125 C-16.4090625 47.29439453 -16.4090625 47.29439453 -16.125 45.375 C-15.8465625 43.51294922 -15.8465625 43.51294922 -15.5625 41.61328125 C-15.20399589 38.70363629 -15.03557744 35.98549978 -15.125 33.0625 C-16.61 32.5675 -16.61 32.5675 -18.125 32.0625 C-18.125 31.4025 -18.125 30.7425 -18.125 30.0625 C-19.176875 30.43375 -20.22875 30.805 -21.3125 31.1875 C-25.0137094 32.09606561 -27.79312379 31.95883296 -31.53125 31.28125 C-37.60597053 30.26929557 -43.68309903 29.47989467 -49.80078125 28.7734375 C-50.74378586 28.66428009 -51.68679047 28.55512268 -52.65837097 28.44265747 C-55.58453363 28.10571335 -58.51100487 27.77154283 -61.4375 27.4375 C-63.44989582 27.2059553 -65.46226584 26.97418619 -67.47460938 26.7421875 C-72.35777941 26.17970554 -77.24128801 25.62025605 -82.125 25.0625 C-82.125 24.7325 -82.125 24.4025 -82.125 24.0625 C-71.07637229 23.79624573 -60.49793625 24.52371591 -49.5625 26.0625 C-47.45996047 26.35160222 -45.35708242 26.63754054 -43.25343323 26.91845703 C-41.36917635 27.17100328 -39.48617058 27.43283478 -37.60327148 27.6953125 C-30.00293016 28.68450906 -30.00293016 28.68450906 -23.125 26.0625 C-22.11258315 24.73857028 -21.11060611 23.40650833 -20.125 22.0625 C-19.465 22.0625 -18.805 22.0625 -18.125 22.0625 C-15.9864515 24.2010485 -15.69844937 25.19525314 -15.125 28.0625 C-14.465 28.0625 -13.805 28.0625 -13.125 28.0625 C-13.125 26.0825 -13.125 24.1025 -13.125 22.0625 C-12.135 21.7325 -11.145 21.4025 -10.125 21.0625 C-9.465 15.1225 -8.805 9.1825 -8.125 3.0625 C-7.465 3.0625 -6.805 3.0625 -6.125 3.0625 C-5.795 2.0725 -5.465 1.0825 -5.125 0.0625 C-3.125 -0.9375 -3.125 -0.9375 0 0 Z " fill="#333037" transform="translate(114.125,86.9375)"/>
<path d="M0 0 C2.8125 0.4375 2.8125 0.4375 4.8125 2.4375 C4.1525 2.4375 3.4925 2.4375 2.8125 2.4375 C2.8125 3.4275 2.8125 4.4175 2.8125 5.4375 C1.8225 5.7675 0.8325 6.0975 -0.1875 6.4375 C-1.62259221 9.30768441 -1.29908506 11.77293723 -1.28515625 14.9765625 C-1.28193359 16.27851563 -1.27871094 17.58046875 -1.27539062 18.921875 C-1.26703466 20.30208399 -1.25856971 21.68229232 -1.25 23.0625 C-1.24498501 24.45051926 -1.2404221 25.83854022 -1.23632812 27.2265625 C-1.22450976 30.63025132 -1.20803434 34.03385439 -1.1875 37.4375 C-0.5275 37.4375 0.1325 37.4375 0.8125 37.4375 C1.01746094 38.07558594 1.22242188 38.71367188 1.43359375 39.37109375 C1.70300781 40.19738281 1.97242188 41.02367187 2.25 41.875 C2.51683594 42.69871094 2.78367187 43.52242187 3.05859375 44.37109375 C3.63405494 46.39969588 3.63405494 46.39969588 4.8125 47.4375 C4.88569621 50.13404854 4.90492537 52.80441458 4.875 55.5 C4.87048828 56.25861328 4.86597656 57.01722656 4.86132812 57.79882812 C4.8495068 59.67841871 4.83157078 61.55796899 4.8125 63.4375 C3.8225 63.9325 3.8225 63.9325 2.8125 64.4375 C2.15694881 66.96483235 2.15694881 66.96483235 1.8125 69.4375 C0.4925 69.1075 -0.8275 68.7775 -2.1875 68.4375 C-1.5275 68.4375 -0.8675 68.4375 -0.1875 68.4375 C1.53216249 61.06751792 2.26892512 53.88145063 0.8125 46.4375 C-0.1775 46.9325 -0.1775 46.9325 -1.1875 47.4375 C-5.63070331 35.97335712 -8.25839629 25.34653879 -8.625 13 C-8.66496094 11.68128906 -8.70492187 10.36257812 -8.74609375 9.00390625 C-7.91059934 3.66959579 -5.4175407 0.74358402 0 0 Z " fill="#726F75" transform="translate(55.1875,2.5625)"/>
<path d="M0 0 C0.66 0 1.32 0 2 0 C2.08800873 4.45820633 2.14072922 8.91618539 2.1875 13.375 C2.21263672 14.62667969 2.23777344 15.87835938 2.26367188 17.16796875 C2.32327574 24.75752818 1.49693974 30.87019367 -1 38 C-1.64231559 40.53065809 -2.16064717 43.06600053 -2.6875 45.625 C-2.93886719 46.83414063 -3.19023438 48.04328125 -3.44921875 49.2890625 C-3.63097656 50.18367188 -3.81273438 51.07828125 -4 52 C-2.35 52.33 -0.7 52.66 1 53 C1 53.33 1 53.66 1 54 C-3.95 54.33 -8.9 54.66 -14 55 C-14.33 56.98 -14.66 58.96 -15 61 C-16.485 61.495 -16.485 61.495 -18 62 C-17.67 61.05125 -17.34 60.1025 -17 59.125 C-15.89840809 56.22937548 -15.89840809 56.22937548 -16 54 C-16.99 53.67 -17.98 53.34 -19 53 C-15.7 52.34 -12.4 51.68 -9 51 C-9.66 49.68 -10.32 48.36 -11 47 C-10.05242037 45.26821653 -9.09401584 43.5396424 -8.0390625 41.87109375 C-6.41116299 38.93965064 -6.06379624 36.31740427 -6 33 C-7.29264699 31.03568595 -7.29264699 31.03568595 -9 30 C-7.68 30 -6.36 30 -5 30 C-5.20625 28.741875 -5.4125 27.48375 -5.625 26.1875 C-6.21335669 22.5985242 -6.16617415 22.24926122 -4 19 C-2.33175153 14.18061553 -1.79223648 10.09020617 -2 5 C-1.34 5 -0.68 5 0 5 C0 3.35 0 1.7 0 0 Z " fill="#68656C" transform="translate(126,26)"/>
<path d="M0 0 C0.66 0 1.32 0 2 0 C4.02855159 2.02855159 5.00835839 3.33019566 6 6 C5.625 8.75 5.625 8.75 5 11 C4.01 10.67 3.02 10.34 2 10 C2 9.34 2 8.68 2 8 C0.948125 8.37125 -0.10375 8.7425 -1.1875 9.125 C-4.8887094 10.03356561 -7.66812379 9.89633296 -11.40625 9.21875 C-17.48097053 8.20679557 -23.55809903 7.41739467 -29.67578125 6.7109375 C-30.61878586 6.60178009 -31.56179047 6.49262268 -32.53337097 6.38015747 C-35.45953363 6.04321335 -38.38600487 5.70904283 -41.3125 5.375 C-43.32489582 5.1434553 -45.33726584 4.91168619 -47.34960938 4.6796875 C-52.23277941 4.11720554 -57.11628801 3.55775605 -62 3 C-62 2.67 -62 2.34 -62 2 C-50.95137229 1.73374573 -40.37293625 2.46121591 -29.4375 4 C-27.33496047 4.28910222 -25.23208242 4.57504054 -23.12843323 4.85595703 C-21.24417635 5.10850328 -19.36117058 5.37033478 -17.47827148 5.6328125 C-9.87793016 6.62200906 -9.87793016 6.62200906 -3 4 C-1.98758315 2.67607028 -0.98560611 1.34400833 0 0 Z " fill="#434047" transform="translate(94,109)"/>
<path d="M0 0 C0.66 0.33 1.32 0.66 2 1 C1.51171875 2.79036458 1.0234375 4.58072917 0.53515625 6.37109375 C-1.36818171 15.72106784 -1.29860037 25.28561104 -1.51757812 34.78710938 C-1.74057466 42.22172984 -2.02745001 49.78774135 -4 57 C-4.99 57.495 -4.99 57.495 -6 58 C-5.96970703 57.34741211 -5.93941406 56.69482422 -5.90820312 56.02246094 C-5.76747384 52.93182924 -5.63280605 49.84098248 -5.5 46.75 C-5.45085449 45.62005615 -5.40170898 44.4901123 -5.35107422 43.32592773 C-5.06432761 36.22470285 -5.00430706 29.16692541 -5.125 22.0625 C-5.22150943 15.28003187 -4.78908181 9.30863744 -2 3 C-1.34 3 -0.68 3 0 3 C0 2.01 0 1.02 0 0 Z " fill="#605E64" transform="translate(134,19)"/>
<path d="M0 0 C0.33 0 0.66 0 1 0 C1.33 7.92 1.66 15.84 2 24 C5.25520833 23.93489583 8.51041667 23.86979167 11.765625 23.8046875 C14.98392126 23.99902906 16.23483099 24.55055938 19 26 C21.34360274 26.41840282 23.70026351 26.76690994 26.0625 27.0625 C32.72542373 27.90847458 32.72542373 27.90847458 36 29 C36 29.66 36 30.32 36 31 C34.989375 30.86722656 33.97875 30.73445313 32.9375 30.59765625 C26.30382083 29.76844635 19.65020676 29.11805779 13 28.4375 C11.63931471 28.29760586 10.27863755 28.15763255 8.91796875 28.01757812 C5.61205816 27.6776086 2.30606757 27.33843893 -1 27 C-1 25.35 -1 23.7 -1 22 C-1.33 22 -1.66 22 -2 22 C-2.23576736 14.37685526 -1.83717315 7.41430591 0 0 Z " fill="#4A474E" transform="translate(60,69)"/>
<path d="M0 0 C0.33 0 0.66 0 1 0 C2.9507782 29.02157724 2.9507782 29.02157724 0 42 C-1.98 41.67 -3.96 41.34 -6 41 C-5.33518187 33.15514602 -4.55508721 24.11017441 -1 17 C-0.76725791 14.12089412 -0.58027243 11.25853505 -0.4375 8.375 C-0.37272461 7.17230469 -0.37272461 7.17230469 -0.30664062 5.9453125 C-0.20048543 3.9637489 -0.09973145 1.98189729 0 0 Z " fill="#79767C" transform="translate(128,37)"/>
<path d="M0 0 C0 0.33 0 0.66 0 1 C-1.65 1.33 -3.3 1.66 -5 2 C-5.16884201 5.70823762 -5.33468594 9.41660356 -5.5 13.125 C-5.54769531 14.17171875 -5.59539063 15.2184375 -5.64453125 16.296875 C-5.68964844 17.31523437 -5.73476563 18.33359375 -5.78125 19.3828125 C-5.82636719 20.36411133 -5.87148438 21.34541016 -5.91796875 22.35644531 C-5.98270047 24.44250192 -5.93381982 26.53207125 -5.84375 28.6171875 C-5.8953125 29.40351562 -5.946875 30.18984375 -6 31 C-6.99 31.66 -7.98 32.32 -9 33 C-10.43933455 26.21456568 -11.26480725 19.48939811 -11.4375 12.5625 C-11.47746094 11.24378906 -11.51742187 9.92507812 -11.55859375 8.56640625 C-10.50024319 1.80924499 -6.60944701 -0.76854035 0 0 Z " fill="#868489" transform="translate(58,3)"/>
<path d="M0 0 C0.66 0 1.32 0 2 0 C3.76270665 5.28811996 3.64196076 10.97353866 3.98486328 16.51367188 C4.12365171 18.7284837 4.27433492 20.94227239 4.42578125 23.15625 C4.51635673 24.57807858 4.60622288 25.99995255 4.6953125 27.421875 C4.77797363 28.70674805 4.86063477 29.99162109 4.94580078 31.31542969 C5.00082291 35.05594335 4.63016312 38.32572811 4 42 C3.67 42 3.34 42 3 42 C2.67 37.71 2.34 33.42 2 29 C1.67 29.33 1.34 29.66 1 30 C-0.85287502 30.07226502 -2.70833878 30.0838122 -4.5625 30.0625 C-5.57441406 30.05347656 -6.58632813 30.04445313 -7.62890625 30.03515625 C-8.41136719 30.02355469 -9.19382813 30.01195313 -10 30 C-10 29.67 -10 29.34 -10 29 C-7.03 28.34 -4.06 27.68 -1 27 C-1 25.35 -1 23.7 -1 22 C-0.01 21.67 0.98 21.34 2 21 C1.85845864 18.43719792 1.71191438 15.87484515 1.5625 13.3125 C1.52318359 12.59126953 1.48386719 11.87003906 1.44335938 11.12695312 C1.21814322 7.33292718 0.87160695 3.71348508 0 0 Z " fill="#5A585E" transform="translate(58,45)"/>
<path d="M0 0 C0.33 0 0.66 0 1 0 C1.2109426 15.79473295 1.34629894 31.35102403 -1 47 C-1.33 47 -1.66 47 -2 47 C-2.66 39.74 -3.32 32.48 -4 25 C-3.34 25 -2.68 25 -2 25 C-1.93941406 23.69804688 -1.87882812 22.39609375 -1.81640625 21.0546875 C-1.73195438 19.32811601 -1.64730874 17.601554 -1.5625 15.875 C-1.52318359 15.0190625 -1.48386719 14.163125 -1.44335938 13.28125 C-1.21843598 8.78278208 -0.86459117 4.43193793 0 0 Z " fill="#46434A" transform="translate(63,14)"/>
<path d="M0 0 C0.66 0 1.32 0 2 0 C1.34 4.29 0.68 8.58 0 13 C-6.93 12.67 -13.86 12.34 -21 12 C-21 11.67 -21 11.34 -21 11 C-19.35 10.67 -17.7 10.34 -16 10 C-15.67 9.01 -15.34 8.02 -15 7 C-4.44191344 5.66742597 -4.44191344 5.66742597 0 7 C0 4.69 0 2.38 0 0 Z " fill="#79767D" transform="translate(96,93)"/>
<path d="M0 0 C0.66 0.33 1.32 0.66 2 1 C2 1.66 2 2.32 2 3 C3.65 3.33 5.3 3.66 7 4 C7.33 4.99 7.66 5.98 8 7 C8.66 7 9.32 7 10 7 C10.29554656 14.68421053 10.29554656 14.68421053 8 18 C7.34 18.33 6.68 18.66 6 19 C5.34 16.69 4.68 14.38 4 12 C3.34 13.32 2.68 14.64 2 16 C1.34 12.04 0.68 8.08 0 4 C-0.66 4 -1.32 4 -2 4 C-2 3.01 -2 2.02 -2 1 C-1.34 0.67 -0.68 0.34 0 0 Z " fill="#79777C" transform="translate(16,76)"/>
<path d="M0 0 C1.32 0.33 2.64 0.66 4 1 C5.15475536 9.09720021 4.99729685 15.34588601 2 23 C-0.31 23 -2.62 23 -5 23 C-3.68 22.67 -2.36 22.34 -1 22 C-0.67 14.74 -0.34 7.48 0 0 Z " fill="#848287" transform="translate(53,48)"/>
<path d="M0 0 C0.94875 0.350625 1.8975 0.70125 2.875 1.0625 C0.72779101 3.20970899 -0.20290143 3.6059221 -3.125 4.0625 C-3.785 3.7325 -4.445 3.4025 -5.125 3.0625 C-5.785 9.6625 -6.445 16.2625 -7.125 23.0625 C-8.115 23.0625 -9.105 23.0625 -10.125 23.0625 C-10.125 23.7225 -10.125 24.3825 -10.125 25.0625 C-11.115 24.7325 -12.105 24.4025 -13.125 24.0625 C-12.63 22.5775 -12.63 22.5775 -12.125 21.0625 C-11.465 21.0625 -10.805 21.0625 -10.125 21.0625 C-9.465 15.1225 -8.805 9.1825 -8.125 3.0625 C-7.465 3.0625 -6.805 3.0625 -6.125 3.0625 C-5.795 2.0725 -5.465 1.0825 -5.125 0.0625 C-3.125 -0.9375 -3.125 -0.9375 0 0 Z " fill="#3B383F" transform="translate(114.125,86.9375)"/>
<path d="M0 0 C1.134375 0.020625 2.26875 0.04125 3.4375 0.0625 C2.4475 0.5575 2.4475 0.5575 1.4375 1.0625 C1.4375 2.0525 1.4375 3.0425 1.4375 4.0625 C0.4475 4.3925 -0.5425 4.7225 -1.5625 5.0625 C-2.97902248 7.89554495 -2.56651336 10.54582138 -2.5390625 13.65234375 C-2.56982612 18.12844977 -2.73622064 22.59116294 -2.9375 27.0625 C-2.9684375 27.91191162 -2.999375 28.76132324 -3.03125 29.63647461 C-3.06992187 30.43706299 -3.10859375 31.23765137 -3.1484375 32.0625 C-3.1798584 32.784375 -3.2112793 33.50625 -3.24365234 34.25 C-3.5625 36.0625 -3.5625 36.0625 -5.5625 38.0625 C-7.28971938 34.60806124 -7.09052362 29.99149377 -6.07177734 26.26977539 C-5.47988031 23.70441535 -5.36638752 21.30711923 -5.28125 18.67578125 C-5.24386719 17.65548828 -5.20648438 16.63519531 -5.16796875 15.58398438 C-5.09727151 13.43295532 -5.02696317 11.28191345 -4.95703125 9.13085938 C-4.91964844 8.11443359 -4.88226563 7.09800781 -4.84375 6.05078125 C-4.81345703 5.11790283 -4.78316406 4.18502441 -4.75195312 3.22387695 C-4.43085656 -0.43935488 -3.84902786 0.0675268 0 0 Z " fill="#757378" transform="translate(56.5625,3.9375)"/>
<path d="M0 0 C1.32 0 2.64 0 4 0 C4 0.66 4 1.32 4 2 C2 3.625 2 3.625 0 5 C0.66 5.66 1.32 6.32 2 7 C-14.8929385 6.03644647 -14.8929385 6.03644647 -22 5 C-22 4.01 -22 3.02 -22 2 C-14.74 2.33 -7.48 2.66 0 3 C0 2.01 0 1.02 0 0 Z " fill="#5A575E" transform="translate(86,109)"/>
<path d="M0 0 C1.65 0 3.3 0 5 0 C5 4.95 5 9.9 5 15 C3.35 15 1.7 15 0 15 C0 10.05 0 5.1 0 0 Z " fill="#2D2C2E" transform="translate(90,141)"/>
<path d="M0 0 C0.33 0 0.66 0 1 0 C1.57446809 20.72340426 1.57446809 20.72340426 -2 29 C-2.33 29 -2.66 29 -3 29 C-5.14223764 13.21335646 -5.14223764 13.21335646 -1 7 C-0.60612212 4.67612053 -0.26513915 2.34206251 0 0 Z " fill="#56535A" transform="translate(126,37)"/>
<path d="M0 0 C0.66 0.33 1.32 0.66 2 1 C1.690625 2.134375 1.38125 3.26875 1.0625 4.4375 C0.07160601 8.32485334 -0.37773014 12.12042749 -0.65625 16.1171875 C-1 18 -1 18 -3 20 C-3.46486718 23.12196336 -3.46486718 23.12196336 -3.625 26.625 C-3.69976562 27.81351563 -3.77453125 29.00203125 -3.8515625 30.2265625 C-3.90054688 31.14179687 -3.94953125 32.05703125 -4 33 C-4.33 33 -4.66 33 -5 33 C-5.61916858 11.18621465 -5.61916858 11.18621465 -2 3 C-1.34 3 -0.68 3 0 3 C0 2.01 0 1.02 0 0 Z " fill="#706D74" transform="translate(134,19)"/>
<path d="M0 0 C0.33 0.66 0.66 1.32 1 2 C2.65 1.67 4.3 1.34 6 1 C6 2.32 6 3.64 6 5 C6.66 5.33 7.32 5.66 8 6 C7.01 6 6.02 6 5 6 C4.67 7.32 4.34 8.64 4 10 C4 9.01 4 8.02 4 7 C2.35 7 0.7 7 -1 7 C-1 9.97 -1 12.94 -1 16 C-1.33 16 -1.66 16 -2 16 C-2 12.7 -2 9.4 -2 6 C-3.65 5.67 -5.3 5.34 -7 5 C-3.375 2 -3.375 2 0 2 C0 1.34 0 0.68 0 0 Z " fill="#4E4C51" transform="translate(91,134)"/>
<path d="M0 0 C2.02187589 0.59704466 4.01978218 1.2766869 6 2 C8.38812986 2.40284881 10.78509279 2.75608365 13.1875 3.0625 C19.70833333 3.90277778 19.70833333 3.90277778 23 5 C23 5.66 23 6.32 23 7 C21.9171875 6.85691406 20.834375 6.71382813 19.71875 6.56640625 C14.32445611 5.89211951 8.9144812 5.41712924 3.5 4.9375 C1.98019531 4.80118164 1.98019531 4.80118164 0.4296875 4.66210938 C-2.04676665 4.44016301 -4.523327 4.21948844 -7 4 C-6.1028125 3.566875 -6.1028125 3.566875 -5.1875 3.125 C-2.80672208 1.95257974 -2.80672208 1.95257974 0 0 Z " fill="#4F4C53" transform="translate(73,93)"/>
<path d="M0 0 C1.65 0 3.3 0 5 0 C5.08333357 4.8333472 4.95261487 9.23692563 4 14 C2.68 14 1.36 14 0 14 C0 9.38 0 4.76 0 0 Z " fill="#201E23" transform="translate(25,133)"/>
<path d="M0 0 C14.09092439 -0.63329997 27.19603762 1.2237016 41 4 C41 4.33 41 4.66 41 5 C34.37641065 5.25259451 27.94185184 4.87967551 21.375 4.0625 C20.66408203 3.97564941 19.95316406 3.88879883 19.22070312 3.79931641 C14.13023383 3.13023383 14.13023383 3.13023383 13 2 C10.81707226 1.76518307 8.62796826 1.58636677 6.4375 1.4375 C5.23996094 1.35371094 4.04242188 1.26992187 2.80859375 1.18359375 C1.88175781 1.12300781 0.95492187 1.06242187 0 1 C0 0.67 0 0.34 0 0 Z " fill="#7D7A81" transform="translate(38,102)"/>
<path d="M0 0 C5.94 0 11.88 0 18 0 C17.01 1.32 16.02 2.64 15 4 C14.34 4 13.68 4 13 4 C13 4.66 13 5.32 13 6 C7.25 6.125 7.25 6.125 5 5 C5 4.01 5 3.02 5 2 C3.35 1.67 1.7 1.34 0 1 C0 0.67 0 0.34 0 0 Z " fill="#969499" transform="translate(123,8)"/>
<path d="M0 0 C1.32 0.33 2.64 0.66 4 1 C3.34 1 2.68 1 2 1 C2 1.66 2 2.32 2 3 C1.34 3 0.68 3 0 3 C-0.99 10.26 -1.98 17.52 -3 25 C-3.66 25 -4.32 25 -5 25 C-5.42706505 16.60105402 -4.76394335 7.14591503 0 0 Z " fill="#403D44" transform="translate(102,80)"/>
<path d="M0 0 C0.66 0.33 1.32 0.66 2 1 C3.40764427 6.11870643 2.7455819 10.83827917 2 16 C0.35 15.67 -1.3 15.34 -3 15 C-2.5547115 9.72684667 -1.91626837 4.98229776 0 0 Z " fill="#7F7C83" transform="translate(125,63)"/>
<path d="M0 0 C0.99 0.33 1.98 0.66 3 1 C2.34 1 1.68 1 1 1 C1 2.32 1 3.64 1 5 C3.64 5 6.28 5 9 5 C9.33 5.99 9.66 6.98 10 8 C8.7934375 8.3403125 8.7934375 8.3403125 7.5625 8.6875 C4.77795145 9.74514268 4.77795145 9.74514268 4.125 12.4375 C3.83910476 15.12077174 3.83910476 15.12077174 5 18 C4.0625 20.1875 4.0625 20.1875 3 22 C1.96409801 16.94997778 1.89748328 12.12583611 2 7 C1.34 7 0.68 7 0 7 C0 4.69 0 2.38 0 0 Z " fill="#7D7B80" transform="translate(18,102)"/>
<path d="M0 0 C2.46278801 2.46278801 2.99771255 4.70676982 4 8 C4.33 5.36 4.66 2.72 5 0 C8 2 8 2 8.51171875 4.3828125 C8.59873047 5.74019531 8.59873047 5.74019531 8.6875 7.125 C8.78611328 8.49011719 8.78611328 8.49011719 8.88671875 9.8828125 C8.92410156 10.58148438 8.96148437 11.28015625 9 12 C6.69 11.67 4.38 11.34 2 11 C0.19769832 7.17010894 -0.19622241 4.21878192 0 0 Z " fill="#626066" transform="translate(19,86)"/>
<path d="M0 0 C2.97 0.495 2.97 0.495 6 1 C6.02689216 2.47906892 6.04634621 3.95827483 6.0625 5.4375 C6.07410156 6.26121094 6.08570312 7.08492187 6.09765625 7.93359375 C6 10 6 10 5 11 C4.84379445 12.41327947 4.74943827 13.8335459 4.68359375 15.25390625 C4.64169922 16.10791016 4.59980469 16.96191406 4.55664062 17.84179688 C4.51732422 18.73962891 4.47800781 19.63746094 4.4375 20.5625 C4.39431641 21.46419922 4.35113281 22.36589844 4.30664062 23.29492188 C4.20021858 25.52978485 4.09820012 27.76476308 4 30 C3.34 30.33 2.68 30.66 2 31 C2.33 21.43 2.66 11.86 3 2 C2.01 1.67 1.02 1.34 0 1 C0 0.67 0 0.34 0 0 Z " fill="#767379" transform="translate(62,6)"/>
<path d="M0 0 C0.74507812 0.01353516 1.49015625 0.02707031 2.2578125 0.04101562 C4.08885416 0.07622796 5.91952169 0.13003149 7.75 0.1875 C7.75 0.5175 7.75 0.8475 7.75 1.1875 C4.45 1.5175 1.15 1.8475 -2.25 2.1875 C-2.25 3.1775 -2.25 4.1675 -2.25 5.1875 C-5.22 4.8575 -8.19 4.5275 -11.25 4.1875 C-10.92 6.8275 -10.59 9.4675 -10.25 12.1875 C-10.91 11.8575 -11.57 11.5275 -12.25 11.1875 C-12.73730964 3.75602792 -12.73730964 3.75602792 -10.75 1.4375 C-7.20750851 -0.33374575 -3.86167699 -0.13304364 0 0 Z " fill="#A5A3A8" transform="translate(24.25,66.8125)"/>
<path d="M0 0 C1.32 0 2.64 0 4 0 C4 0.66 4 1.32 4 2 C3.01 2.495 3.01 2.495 2 3 C1.67 3.99 1.34 4.98 1 6 C3.31 5.01 5.62 4.02 8 3 C7.67 4.65 7.34 6.3 7 8 C5.35 8.33 3.7 8.66 2 9 C1.34 7.68 0.68 6.36 0 5 C-2.64 5 -5.28 5 -8 5 C-8 4.67 -8 4.34 -8 4 C-5.36 3.67 -2.72 3.34 0 3 C0 2.01 0 1.02 0 0 Z " fill="#767479" transform="translate(72,49)"/>
<path d="M0 0 C0 0.33 0 0.66 0 1 C-1.65 1.33 -3.3 1.66 -5 2 C-5.33 4.31 -5.66 6.62 -6 9 C-7.65 9.33 -9.3 9.66 -11 10 C-10.51644989 3.59296098 -10.51644989 3.59296098 -8.3125 1.0625 C-5.40913094 -0.27148038 -3.15869424 -0.21536552 0 0 Z " fill="#A2A0A5" transform="translate(58,3)"/>
<path d="M0 0 C7.75 0.75 7.75 0.75 10 3 C8.68 3 7.36 3 6 3 C5.814375 3.61875 5.62875 4.2375 5.4375 4.875 C3.28562767 8.05602866 0.62466237 8.19451947 -3 9 C-1.625 7 -1.625 7 0 5 C0.66 5 1.32 5 2 5 C2 4.01 2 3.02 2 2 C1.34 1.34 0.68 0.68 0 0 Z " fill="#4F4C53" transform="translate(88,106)"/>
<path d="M0 0 C1.32 0.33 2.64 0.66 4 1 C4.29554656 8.68421053 4.29554656 8.68421053 2 12 C1.01 12.495 1.01 12.495 0 13 C-0.39222105 11.58800422 -0.76311059 10.17007236 -1.125 8.75 C-1.33382813 7.96109375 -1.54265625 7.1721875 -1.7578125 6.359375 C-2.04314411 3.5796929 -1.44977894 2.34112451 0 0 Z " fill="#716F75" transform="translate(22,82)"/>
<path d="M0 0 C0 3.63 0 7.26 0 11 C-1.32 11 -2.64 11 -4 11 C-4 7.7 -4 4.4 -4 1 C-1 0 -1 0 0 0 Z " fill="#222125" transform="translate(120,127)"/>
<path d="M0 0 C0.33 0 0.66 0 1 0 C1.26043572 15.22102112 1.26043572 15.22102112 0 21 C-0.66 21.33 -1.32 21.66 -2 22 C-2.23576736 14.37685526 -1.83717315 7.41430591 0 0 Z " fill="#413E45" transform="translate(60,69)"/>
<path d="M0 0 C0.33 0 0.66 0 1 0 C1 5.61 1 11.22 1 17 C1.66 17.33 2.32 17.66 3 18 C2.67 19.65 2.34 21.3 2 23 C-0.31 23 -2.62 23 -5 23 C-3.68 22.67 -2.36 22.34 -1 22 C-0.67 14.74 -0.34 7.48 0 0 Z " fill="#A8A6AA" transform="translate(53,48)"/>
<path d="M0 0 C0.66 0 1.32 0 2 0 C2.33 2.64 2.66 5.28 3 8 C3.33 8 3.66 8 4 8 C4 9.98 4 11.96 4 14 C2.68 14 1.36 14 0 14 C0 9.38 0 4.76 0 0 Z " fill="#151517" transform="translate(90,142)"/>
<path d="M0 0 C0.33 0 0.66 0 1 0 C1.87890625 6.15234375 1.87890625 6.15234375 2 8 C1 9 1 9 -1.50390625 9.09765625 C-3.01791016 9.08025391 -3.01791016 9.08025391 -4.5625 9.0625 C-5.57441406 9.05347656 -6.58632813 9.04445313 -7.62890625 9.03515625 C-8.41136719 9.02355469 -9.19382813 9.01195313 -10 9 C-10 8.67 -10 8.34 -10 8 C-7.03 7.34 -4.06 6.68 -1 6 C-1.020625 5.195625 -1.04125 4.39125 -1.0625 3.5625 C-1 1 -1 1 0 0 Z " fill="#66636A" transform="translate(58,66)"/>
<path d="M0 0 C0.33 0 0.66 0 1 0 C0.67 2.97 0.34 5.94 0 9 C-1.65 8.67 -3.3 8.34 -5 8 C-4.1875 5.5625 -4.1875 5.5625 -3 3 C-2.01 2.67 -1.02 2.34 0 2 C0 1.34 0 0.68 0 0 Z " fill="#57545B" transform="translate(122,67)"/>
<path d="M0 0 C0.33 0 0.66 0 1 0 C1.05399736 1.45792884 1.09279177 2.91642712 1.125 4.375 C1.14820313 5.18710937 1.17140625 5.99921875 1.1953125 6.8359375 C1 9 1 9 -1 11 C-1.46486718 14.12196336 -1.46486718 14.12196336 -1.625 17.625 C-1.69976562 18.81351563 -1.77453125 20.00203125 -1.8515625 21.2265625 C-1.90054688 22.14179687 -1.94953125 23.05703125 -2 24 C-2.33 24 -2.66 24 -3 24 C-3.05397335 21.5622037 -3.09365616 19.12560315 -3.125 16.6875 C-3.14175781 15.99720703 -3.15851563 15.30691406 -3.17578125 14.59570312 C-3.21217794 10.82864604 -3.14378864 9.21568296 -1 6 C-0.60986284 4.0103005 -0.26797351 2.00980131 0 0 Z " fill="#68656C" transform="translate(132,28)"/>
<path d="M0 0 C1.134375 0.020625 2.26875 0.04125 3.4375 0.0625 C2.4475 0.5575 2.4475 0.5575 1.4375 1.0625 C1.4375 2.0525 1.4375 3.0425 1.4375 4.0625 C0.4475 4.3925 -0.5425 4.7225 -1.5625 5.0625 C-3.22960346 6.56235609 -3.22960346 6.56235609 -4.5625 8.0625 C-4.60491723 5.72955225 -4.60342937 3.39547433 -4.5625 1.0625 C-3.5625 0.0625 -3.5625 0.0625 0 0 Z " fill="#817E84" transform="translate(56.5625,3.9375)"/>
<path d="M0 0 C2 2 2 2 2.046875 4.34765625 C1.94890625 5.24355469 1.8509375 6.13945313 1.75 7.0625 C1.61851562 8.41021484 1.61851562 8.41021484 1.484375 9.78515625 C1.32453125 10.51605469 1.1646875 11.24695313 1 12 C0.01 12.495 0.01 12.495 -1 13 C-1.02686553 11.02090602 -1.04633375 9.04171029 -1.0625 7.0625 C-1.07410156 5.96035156 -1.08570313 4.85820313 -1.09765625 3.72265625 C-1 1 -1 1 0 0 Z " fill="#454249" transform="translate(134,38)"/>
<path d="M0 0 C2.64 0.33 5.28 0.66 8 1 C6.9375 2.5 6.9375 2.5 5 4 C1.3125 4.1875 1.3125 4.1875 -2 4 C-2 3.34 -2 2.68 -2 2 C-1.34 2 -0.68 2 0 2 C0 1.34 0 0.68 0 0 Z " fill="#88858C" transform="translate(104,74)"/>
<path d="M0 0 C-0.33 1.32 -0.66 2.64 -1 4 C-3.31 3.67 -5.62 3.34 -8 3 C-8 2.34 -8 1.68 -8 1 C-4.93251126 -0.86240388 -3.40254489 -1.2151946 0 0 Z " fill="#6D6A71" transform="translate(113,56)"/>
<path d="M0 0 C-1.15173355 2.46800047 -2.04783565 4.04783565 -4 6 C-4.33 5.01 -4.66 4.02 -5 3 C-5.66 3.66 -6.32 4.32 -7 5 C-7 3.68 -7 2.36 -7 1 C-4.53721199 -0.231394 -2.7204945 -0.07159196 0 0 Z " fill="#67646B" transform="translate(109,82)"/>
<path d="M0 0 C2.64 0 5.28 0 8 0 C7.01 1.485 7.01 1.485 6 3 C5.34 3 4.68 3 4 3 C4 3.66 4 4.32 4 5 C2.68 4.67 1.36 4.34 0 4 C0 2.68 0 1.36 0 0 Z " fill="#7C7980" transform="translate(22,99)"/>
<path d="M0 0 C0.625 1.875 0.625 1.875 1 4 C0.34 4.66 -0.32 5.32 -1 6 C-3.625 5.625 -3.625 5.625 -6 5 C-5.195625 4.360625 -4.39125 3.72125 -3.5625 3.0625 C-1.7249496 1.59396498 -1.7249496 1.59396498 0 0 Z " fill="#67656A" transform="translate(79,52)"/>
<path d="M0 0 C1.32 0.33 2.64 0.66 4 1 C4 1.66 4 2.32 4 3 C3.34 3 2.68 3 2 3 C1.67 4.32 1.34 5.64 1 7 C0.01 6.67 -0.98 6.34 -2 6 C-1.01 5.67 -0.02 5.34 1 5 C0.01 4.34 -0.98 3.68 -2 3 C-1.34 2.01 -0.68 1.02 0 0 Z " fill="#413F44" transform="translate(106,128)"/>
<path d="M0 0 C0.66 0.33 1.32 0.66 2 1 C2 3.97 2 6.94 2 10 C1.01 9.67 0.02 9.34 -1 9 C-0.67 6.03 -0.34 3.06 0 0 Z " fill="#2B282F" transform="translate(101,111)"/>
<path d="M0 0 C0.33 0 0.66 0 1 0 C2.25 6.625 2.25 6.625 0 10 C-0.66 9.67 -1.32 9.34 -2 9 C-2.20140476 5.37471432 -1.85776765 3.13498292 0 0 Z " fill="#545158" transform="translate(103,97)"/>
<path d="M0 0 C0.66 0 1.32 0 2 0 C1.5359375 0.8353125 1.5359375 0.8353125 1.0625 1.6875 C-0.05761821 4.12540433 -0.56037364 6.36224186 -1 9 C-1.99 8.67 -2.98 8.34 -4 8 C-2.87548273 5.0280615 -1.77706209 2.66559313 0 0 Z " fill="#6E6B72" transform="translate(119,67)"/>
<path d="M0 0 C1.98 0.495 1.98 0.495 4 1 C4 2.32 4 3.64 4 5 C2.35 4.67 0.7 4.34 -1 4 C-0.67 2.68 -0.34 1.36 0 0 Z " fill="#434146" transform="translate(141,10)"/>
<path d="M0 0 C0.33 0 0.66 0 1 0 C1 1.98 1 3.96 1 6 C-0.32 6 -1.64 6 -3 6 C-1.125 1.125 -1.125 1.125 0 0 Z " fill="#3C3A3F" transform="translate(102,131)"/>
<path d="M0 0 C1.32 0 2.64 0 4 0 C4 0.66 4 1.32 4 2 C5.65 2.33 7.3 2.66 9 3 C5.18510326 4.46726798 2.70988378 3.43336419 -1 2 C-0.67 1.34 -0.34 0.68 0 0 Z " fill="#6F6C73" transform="translate(118,76)"/>
<path d="M0 0 C0.66 0 1.32 0 2 0 C1.375 1.875 1.375 1.875 0 4 C-3.125 5.25 -3.125 5.25 -6 6 C-6 5.34 -6 4.68 -6 4 C-4.36368108 2.95107762 -2.69514137 1.95093297 -1 1 C-0.67 0.67 -0.34 0.34 0 0 Z " fill="#89868D" transform="translate(114,57)"/>
<path d="M0 0 C0.33 0 0.66 0 1 0 C0.67 3.63 0.34 7.26 0 11 C-2 7 -2 7 -1.125 3.25 C-0.75375 2.1775 -0.3825 1.105 0 0 Z " fill="#6F6C73" transform="translate(128,68)"/>
</svg>
