<?xml version="1.0" encoding="UTF-8"?>
<svg version="1.1" xmlns="http://www.w3.org/2000/svg" width="160" height="160">
<path d="M0 0 C52.8 0 105.6 0 160 0 C160 52.8 160 105.6 160 160 C107.2 160 54.4 160 0 160 C0 107.2 0 54.4 0 0 Z " fill="#CBCAC8" transform="translate(0,0)"/>
<path d="M0 0 C2.64 0 5.28 0 8 0 C8 10.89 8 21.78 8 33 C7.01 33.33 6.02 33.66 5 34 C5 33.01 5 32.02 5 31 C0.97900833 31.47784395 -3.04176374 31.95751205 -7.0625 32.4375 C-8.19623047 32.57220703 -9.32996094 32.70691406 -10.49804688 32.84570312 C-16.0086998 33.50441091 -21.5109709 34.17943397 -27 35 C-27 37.31 -27 39.62 -27 42 C-26.31035156 41.855625 -25.62070312 41.71125 -24.91015625 41.5625 C-23.97042969 41.376875 -23.03070312 41.19125 -22.0625 41 C-21.14597656 40.814375 -20.22945312 40.62875 -19.28515625 40.4375 C-15.16937001 39.88938102 -11.14474552 39.91700134 -7 40 C-7.08701172 41.58361328 -7.08701172 41.58361328 -7.17578125 43.19921875 C-7.61073858 55.09394238 -5.65492201 65.5820233 -2.45898438 77.01733398 C-2 79 -2 79 -2 82 C-1.34 82 -0.68 82 0 82 C0 79.03 0 76.06 0 73 C0.85722656 73.13277344 1.71445312 73.26554687 2.59765625 73.40234375 C4.31275391 73.66724609 4.31275391 73.66724609 6.0625 73.9375 C7.83560547 74.21207031 7.83560547 74.21207031 9.64453125 74.4921875 C12.17790717 74.87558549 14.70949497 75.23228761 17.25 75.5625 C20 76 20 76 21 77 C22.51165654 77.39148761 24.03469632 77.73972457 25.5625 78.0625 C26.80193359 78.32740234 26.80193359 78.32740234 28.06640625 78.59765625 C28.70449219 78.73042969 29.34257813 78.86320312 30 79 C30 79.99 30 80.98 30 82 C29.01 82.66 28.02 83.32 27 84 C29.64 84 32.28 84 35 84 C35 85.98 35 87.96 35 90 C36.32 90 37.64 90 39 90 C39 88.35 39 86.7 39 85 C39.804375 84.71125 40.60875 84.4225 41.4375 84.125 C44.1326468 83.26737432 44.1326468 83.26737432 45 81 C43.35 81 41.7 81 40 81 C40 80.34 40 79.68 40 79 C42.58252893 78.49550598 45.16588703 77.99625699 47.75 77.5 C48.47960937 77.35691406 49.20921875 77.21382813 49.9609375 77.06640625 C53.39343532 76.41111121 56.49169491 76 60 76 C60 78.64 60 81.28 60 84 C60.99 84 61.98 84 63 84 C63 81.03 63 78.06 63 75 C64.32 75 65.64 75 67 75 C67.10957031 74.11699219 67.21914062 73.23398438 67.33203125 72.32421875 C68.34292789 64.67263522 69.74041406 57.38131409 72 50 C81.37347974 50.35720225 90.23158368 51.21343488 99.40234375 53.28125 C103.558337 54.11154615 107.78780024 54.5319778 112 55 C112 72.16 112 89.32 112 107 C59.2 107 6.4 107 -48 107 C-48 76.31 -48 45.62 -48 14 C-47.01 14 -46.02 14 -45 14 C-45 16.64 -45 19.28 -45 22 C-42.03 21.67 -39.06 21.34 -36 21 C-36 19.02 -36 17.04 -36 15 C-37.65 15 -39.3 15 -41 15 C-41 14.34 -41 13.68 -41 13 C-32.585 12.505 -32.585 12.505 -24 12 C-23.67 10.02 -23.34 8.04 -23 6 C-22.67 5.01 -22.34 4.02 -22 3 C-23.98 3 -25.96 3 -28 3 C-28 2.67 -28 2.34 -28 2 C-25.03 2 -22.06 2 -19 2 C-19.99 2.495 -19.99 2.495 -21 3 C-21 5.64 -21 8.28 -21 11 C-19.68 11 -18.36 11 -17 11 C-16.67 9.68 -16.34 8.36 -16 7 C-10.63904667 5.87137825 -5.44693314 5.90311779 0 6 C0 7.32 0 8.64 0 10 C1.32 10 2.64 10 4 10 C4.33 7.03 4.66 4.06 5 1 C3.35 1 1.7 1 0 1 C0 0.67 0 0.34 0 0 Z " fill="#CDCCC6" transform="translate(48,53)"/>
<path d="M0 0 C2.1864624 1.07002258 2.1864624 1.07002258 4 3 C4.38259981 5.58186903 4.50711445 7.73721548 4.45410156 10.31713867 C4.45468567 11.05884811 4.45526978 11.80055756 4.45587158 12.56474304 C4.45308486 15.01629444 4.42196706 17.4666298 4.390625 19.91796875 C4.38316465 21.61761307 4.37747075 23.317266 4.37347412 25.016922 C4.35820142 29.49042509 4.31890585 33.9634087 4.2746582 38.43670654 C4.23374057 43.00135266 4.21547063 47.56608272 4.1953125 52.13085938 C4.15241292 61.08746783 4.08414204 70.04369072 4 79 C2.57718994 79.01689773 1.15432096 79.02887399 -0.26855469 79.03881836 C-1.45708038 79.04962685 -1.45708038 79.04962685 -2.6696167 79.06065369 C-5.97206242 78.9746998 -9.03631258 78.30221439 -12.25 77.5625 C-18.31918672 76.25933793 -24.19602459 75.53453603 -30.390625 75.2109375 C-33 75 -33 75 -36 74 C-36.185625 75.918125 -36.185625 75.918125 -36.375 77.875 C-37.18374829 85.10817129 -38.47766484 92.1536617 -41 99 C-42.32 99 -43.64 99 -45 99 C-45 101.97 -45 104.94 -45 108 C-45.99 108 -46.98 108 -48 108 C-48 105.36 -48 102.72 -48 100 C-49.19238281 100.2165625 -50.38476562 100.433125 -51.61328125 100.65625 C-53.17966308 100.93763596 -54.74607068 101.21887849 -56.3125 101.5 C-57.09818359 101.64308594 -57.88386719 101.78617187 -58.69335938 101.93359375 C-59.45068359 102.06894531 -60.20800781 102.20429688 -60.98828125 102.34375 C-62.03302612 102.53227539 -62.03302612 102.53227539 -63.09887695 102.72460938 C-65 103 -65 103 -68 103 C-68 103.66 -68 104.32 -68 105 C-66.35 105 -64.7 105 -63 105 C-63.99 106.98 -63.99 106.98 -65 109 C-66.32 109 -67.64 109 -69 109 C-69 110.65 -69 112.3 -69 114 C-70.32 114 -71.64 114 -73 114 C-73 112.02 -73 110.04 -73 108 C-77.455 108.495 -77.455 108.495 -82 109 C-80.68 107.35 -79.36 105.7 -78 104 C-78.63808594 103.86722656 -79.27617188 103.73445313 -79.93359375 103.59765625 C-80.75988281 103.42105469 -81.58617187 103.24445313 -82.4375 103.0625 C-83.26121094 102.88847656 -84.08492187 102.71445313 -84.93359375 102.53515625 C-87 102 -87 102 -88 101 C-90.78970714 100.45967778 -93.57231887 99.96253398 -96.375 99.5 C-97.92483252 99.24169458 -99.47432786 98.98135591 -101.0234375 98.71875 C-101.71356934 98.60466797 -102.40370117 98.49058594 -103.11474609 98.37304688 C-105 98 -105 98 -108 97 C-108 99.97 -108 102.94 -108 106 C-108.66 106 -109.32 106 -110 106 C-111.00616109 102.29283367 -112.00195421 98.58380035 -112.97265625 94.8671875 C-113.52165349 92.76828646 -114.09371691 90.70265735 -114.74609375 88.6328125 C-115.83500397 84.89296911 -116.0847333 81.32978103 -115.89453125 77.453125 C-115.86077393 76.70579102 -115.8270166 75.95845703 -115.79223633 75.18847656 C-115.56536562 71.45653615 -115.27619367 67.72861457 -115 64 C-124.9 64.99 -124.9 64.99 -135 66 C-135 63.69 -135 61.38 -135 59 C-131.98509443 57.99503148 -129.95818308 57.89664697 -126.8125 57.9375 C-125.91144531 57.94652344 -125.01039062 57.95554688 -124.08203125 57.96484375 C-123.39496094 57.97644531 -122.70789063 57.98804688 -122 58 C-122 58.66 -122 59.32 -122 60 C-121.41992188 59.89300781 -120.83984375 59.78601563 -120.2421875 59.67578125 C-114.75862114 58.83424384 -111.887588 59.0674472 -107 62 C-103.83730418 63.21124521 -101.04979929 63.99342273 -97.6875 64.4375 C-93.24010277 65.11591653 -89.21999862 66.4785039 -85 68 C-85.33 66.68 -85.66 65.36 -86 64 C-87.051875 64.20625 -88.10375 64.4125 -89.1875 64.625 C-93.00902274 65.00088748 -94.76487495 64.99816547 -98 63 C-98.8125 60.875 -98.8125 60.875 -99 59 C-97.125 57.9375 -97.125 57.9375 -95 57 C-94.01 57.495 -94.01 57.495 -93 58 C-92.67 58.99 -92.34 59.98 -92 61 C-91.34 60.34 -90.68 59.68 -90 59 C-90.99 58.505 -90.99 58.505 -92 58 C-92 57.34 -92 56.68 -92 56 C-90.35 56.33 -88.7 56.66 -87 57 C-86.34 58.98 -85.68 60.96 -85 63 C-84.67 63 -84.34 63 -84 63 C-83.94530916 60.9794772 -83.90689871 58.95851112 -83.875 56.9375 C-83.85179687 55.81214844 -83.82859375 54.68679687 -83.8046875 53.52734375 C-83.86886025 49.97260446 -83.86886025 49.97260446 -84.9921875 46.578125 C-86.13635876 42.51587354 -86.29717619 38.99938717 -86.25 34.8125 C-86.26160156 33.76545898 -86.26160156 33.76545898 -86.2734375 32.69726562 C-86.25926134 28.97247937 -86.05853506 26.1613217 -84 23 C-80.79759211 22.84750439 -78.4499657 22.81210985 -75.46484375 24.05859375 C-70.55590896 25.39236296 -66.19761345 24.7501691 -61.1875 24.1875 C-60.24068359 24.09146484 -59.29386719 23.99542969 -58.31835938 23.89648438 C-56.44632803 23.7045142 -54.57502459 23.50528856 -52.70458984 23.29833984 C-50.91435532 23.10086137 -49.12296952 22.91353221 -47.33056641 22.73681641 C-43.33764378 22.69393909 -43.33764378 22.69393909 -40 21 C-37.32941149 20.85884839 -34.67567762 20.95752893 -32 21 C-32 21.66 -32 22.32 -32 23 C-30.35 23.66 -28.7 24.32 -27 25 C-28.28332574 36.67280328 -29.6125023 48.33911506 -31 60 C-29.35 60 -27.7 60 -26 60 C-26.01160156 58.865625 -26.02320313 57.73125 -26.03515625 56.5625 C-26.0445441 55.04166833 -26.05364322 53.52083486 -26.0625 52 C-26.07087891 51.25621094 -26.07925781 50.51242188 -26.08789062 49.74609375 C-26.10966272 44.73851156 -25.71541549 39.95720968 -25 35 C-24.67 35 -24.34 35 -24 35 C-24 43.58 -24 52.16 -24 61 C-23.01 61 -22.02 61 -21 61 C-21 61.66 -21 62.32 -21 63 C-19.57107422 62.98259766 -19.57107422 62.98259766 -18.11328125 62.96484375 C-16.85902344 62.95582031 -15.60476562 62.94679687 -14.3125 62.9375 C-12.45044922 62.92009766 -12.45044922 62.92009766 -10.55078125 62.90234375 C-7 63 -7 63 -2 64 C-2.33 59.38 -2.66 54.76 -3 50 C-2.01 50 -1.02 50 0 50 C0 49.34 0 48.68 0 48 C-3.465 48.495 -3.465 48.495 -7 49 C-7 48.34 -7 47.68 -7 47 C-6.34 46.67 -5.68 46.34 -5 46 C-4.34227572 42.97065509 -4.34227572 42.97065509 -4 40 C-5.65 40.33 -7.3 40.66 -9 41 C-8.01 40.01 -7.02 39.02 -6 38 C-6.33 37.01 -6.66 36.02 -7 35 C-6.01 35 -5.02 35 -4 35 C-4.66 34.01 -5.32 33.02 -6 32 C-5.82531656 28.59367293 -5.22771261 27.25531414 -2.9375 24.6875 C-2.298125 24.130625 -1.65875 23.57375 -1 23 C-1.99 22.01 -1.99 22.01 -3 21 C-2.34 21 -1.68 21 -1 21 C-1 20.34 -1 19.68 -1 19 C-4.11785113 19.64644661 -4.11785113 19.64644661 -5 22 C-5.66 22 -6.32 22 -7 22 C-6.67 19.69 -6.34 17.38 -6 15 C-7.32 14.67 -8.64 14.34 -10 14 C-9.67 12.68 -9.34 11.36 -9 10 C-9.99 9.34 -10.98 8.68 -12 8 C-12 4 -12 4 -9.9375 1.75 C-6.28267979 -0.4273397 -4.19267815 -0.53361358 0 0 Z " fill="#707072" transform="translate(156,29)"/>
<path d="M0 0 C9.37347974 0.35720225 18.23158368 1.21343488 27.40234375 3.28125 C31.558337 4.11154615 35.78780024 4.5319778 40 5 C40 22.16 40 39.32 40 57 C7.33 57 -25.34 57 -59 57 C-59 56.34 -59 55.68 -59 55 C-56.5424552 54.33030409 -54.08405076 53.6641232 -51.625 53 C-50.92632812 52.80921875 -50.22765625 52.6184375 -49.5078125 52.421875 C-44.2265625 51 -44.2265625 51 -42 51 C-40.43727811 46.60746227 -40.43727811 46.60746227 -40 42 C-40 41.34 -40 40.68 -40 40 C-44.455 40.495 -44.455 40.495 -49 41 C-49.33 41.99 -49.66 42.98 -50 44 C-51.0725 43.835 -52.145 43.67 -53.25 43.5 C-57.03028752 42.91189085 -57.03028752 42.91189085 -61 43 C-61 42.34 -61 41.68 -61 41 C-58.5 39.375 -58.5 39.375 -56 38 C-59.37301394 36.68370188 -61.91580016 36 -65.5625 36 C-69.03885628 36 -71.04658844 35.82416596 -74 34 C-74.8125 31.375 -74.8125 31.375 -75 29 C-74.67 29.99 -74.34 30.98 -74 32 C-73.34 32 -72.68 32 -72 32 C-72 29.03 -72 26.06 -72 23 C-71.14277344 23.13277344 -70.28554687 23.26554687 -69.40234375 23.40234375 C-67.68724609 23.66724609 -67.68724609 23.66724609 -65.9375 23.9375 C-64.75542969 24.12054688 -63.57335937 24.30359375 -62.35546875 24.4921875 C-59.82209283 24.87558549 -57.29050503 25.23228761 -54.75 25.5625 C-52 26 -52 26 -51 27 C-49.48834346 27.39148761 -47.96530368 27.73972457 -46.4375 28.0625 C-45.61121094 28.23910156 -44.78492187 28.41570312 -43.93359375 28.59765625 C-43.29550781 28.73042969 -42.65742187 28.86320312 -42 29 C-42 29.99 -42 30.98 -42 32 C-42.99 32.66 -43.98 33.32 -45 34 C-42.36 34 -39.72 34 -37 34 C-37 35.98 -37 37.96 -37 40 C-35.68 40 -34.36 40 -33 40 C-33 38.35 -33 36.7 -33 35 C-32.195625 34.71125 -31.39125 34.4225 -30.5625 34.125 C-27.8673532 33.26737432 -27.8673532 33.26737432 -27 31 C-28.65 31 -30.3 31 -32 31 C-32 30.34 -32 29.68 -32 29 C-29.41747107 28.49550598 -26.83411297 27.99625699 -24.25 27.5 C-23.15558594 27.28537109 -23.15558594 27.28537109 -22.0390625 27.06640625 C-18.60656468 26.41111121 -15.50830509 26 -12 26 C-12 28.64 -12 31.28 -12 34 C-11.01 34 -10.02 34 -9 34 C-9 31.03 -9 28.06 -9 25 C-7.68 25 -6.36 25 -5 25 C-4.89042969 24.11699219 -4.78085938 23.23398438 -4.66796875 22.32421875 C-3.65707211 14.67263522 -2.25958594 7.38131409 0 0 Z " fill="#BBAEA5" transform="translate(120,103)"/>
<path d="M0 0 C16.5 0 33 0 50 0 C50 10.56 50 21.12 50 32 C48.68 31.34 47.36 30.68 46 30 C41.23346229 29.42100247 41.23346229 29.42100247 37.1875 31.5 C36.795625 31.995 36.40375 32.49 36 33 C35.34 33 34.68 33 34 33 C34.56371414 36.26954202 35.49962266 37.82575883 38 40 C37.34 40.99 36.68 41.98 36 43 C37.65 43 39.3 43 41 43 C40.34 45.64 39.68 48.28 39 51 C39.66 51 40.32 51 41 51 C41.66 49.68 42.32 48.36 43 47 C44.98 47 46.96 47 49 47 C47.02 47.495 47.02 47.495 45 48 C45.268125 48.556875 45.53625 49.11375 45.8125 49.6875 C45.9053125 50.8321875 45.9053125 50.8321875 46 52 C44.7625 53.1446875 44.7625 53.1446875 43.5 54.3125 C42.675 55.199375 41.85 56.08625 41 57 C41.05728998 60.74360341 41.05728998 60.74360341 42 64 C41.01 64 40.02 64 39 64 C39 64.66 39 65.32 39 66 C39.99 66.33 40.98 66.66 42 67 C41.01 67.66 40.02 68.32 39 69 C39.99 69 40.98 69 42 69 C42 70.98 42 72.96 42 75 C41.01 75.33 40.02 75.66 39 76 C39 76.66 39 77.32 39 78 C41.31 77.67 43.62 77.34 46 77 C46 77.66 46 78.32 46 79 C45.01 79 44.02 79 43 79 C43.2475 80.2375 43.2475 80.2375 43.5 81.5 C44 85 44 85 44 93 C37.73 92.67 31.46 92.34 25 92 C25 91.34 25 90.68 25 90 C24.01 90 23.02 90 22 90 C21.67 84.06 21.34 78.12 21 72 C20.67 77.61 20.34 83.22 20 89 C18.35 89 16.7 89 15 89 C14.82872352 82.07043901 15.47492351 75.53519563 16.5 68.6875 C16.78366134 66.75425853 17.06500541 64.82067527 17.34375 62.88671875 C17.46943359 62.04326904 17.59511719 61.19981934 17.72460938 60.33081055 C18.07822409 57.72910902 18.07822409 57.72910902 18 54 C16.68 53.34 15.36 52.68 14 52 C14 51.34 14 50.68 14 50 C12.700625 50.144375 11.40125 50.28875 10.0625 50.4375 C9.33160156 50.51871094 8.60070312 50.59992187 7.84765625 50.68359375 C5.98859771 50.81886614 5.98859771 50.81886614 5 52 C3.35 52 1.7 52 0 52 C0 34.84 0 17.68 0 0 Z " fill="#D9D9D7" transform="translate(110,0)"/>
<path d="M0 0 C4.76745056 0.58139641 8.70030638 1.85015319 13 4 C15.45378929 7.68068393 15.30646214 9.68053719 15.4140625 14.07421875 C15.46747803 15.95113403 15.46747803 15.95113403 15.52197266 17.8659668 C15.55597168 19.45707275 15.5899707 21.04817871 15.625 22.6875 C15.74875 27.740625 15.8725 32.79375 16 38 C16.33 27.44 16.66 16.88 17 6 C17.99 6.33 18.98 6.66 20 7 C19.979375 7.969375 19.95875 8.93875 19.9375 9.9375 C19.64381501 12.87465895 19.64381501 12.87465895 21 14 C20.93396457 16.49433834 20.80634777 18.95096454 20.625 21.4375 C20.57537109 22.16815674 20.52574219 22.89881348 20.47460938 23.65161133 C20.15102634 28.28161357 19.75015328 32.89763539 19.24609375 37.51171875 C18.95011698 40.50437271 18.76160873 43.49939656 18.5625 46.5 C18.27577073 50.40042831 17.84617546 54.12030849 17 57.9375 C15.87482491 63.0799669 15.54093654 68.19046214 15.21875 73.4375 C15.00479466 76.92191552 14.73283377 80.39662444 14.4375 83.875 C14.35371094 84.86242187 14.26992187 85.84984375 14.18359375 86.8671875 C14.12300781 87.57101563 14.06242187 88.27484375 14 89 C13.01 89 12.02 89 11 89 C11 87.35 11 85.7 11 84 C6.545 84.495 6.545 84.495 2 85 C3.32 83.35 4.64 81.7 6 80 C5.36191406 79.86722656 4.72382812 79.73445313 4.06640625 79.59765625 C3.24011719 79.42105469 2.41382813 79.24445313 1.5625 79.0625 C0.73878906 78.88847656 -0.08492187 78.71445313 -0.93359375 78.53515625 C-3 78 -3 78 -4 77 C-6.78970714 76.45967778 -9.57231887 75.96253398 -12.375 75.5 C-13.92483252 75.24169458 -15.47432786 74.98135591 -17.0234375 74.71875 C-17.71356934 74.60466797 -18.40370117 74.49058594 -19.11474609 74.37304688 C-21 74 -21 74 -24 73 C-24 75.97 -24 78.94 -24 82 C-24.66 82 -25.32 82 -26 82 C-27.00616109 78.29283367 -28.00195421 74.58380035 -28.97265625 70.8671875 C-29.52165349 68.76828646 -30.09371691 66.70265735 -30.74609375 64.6328125 C-31.83500397 60.89296911 -32.0847333 57.32978103 -31.89453125 53.453125 C-31.86077393 52.70579102 -31.8270166 51.95845703 -31.79223633 51.18847656 C-31.56536562 47.45653615 -31.27619367 43.72861457 -31 40 C-40.9 40.99 -40.9 40.99 -51 42 C-51 39.69 -51 37.38 -51 35 C-47.98509443 33.99503148 -45.95818308 33.89664697 -42.8125 33.9375 C-41.91144531 33.94652344 -41.01039062 33.95554688 -40.08203125 33.96484375 C-39.39496094 33.97644531 -38.70789062 33.98804688 -38 34 C-38 34.66 -38 35.32 -38 36 C-37.41992188 35.89300781 -36.83984375 35.78601563 -36.2421875 35.67578125 C-30.75862114 34.83424384 -27.887588 35.0674472 -23 38 C-19.83730418 39.21124521 -17.04979929 39.99342273 -13.6875 40.4375 C-9.24010277 41.11591653 -5.21999862 42.4785039 -1 44 C-1.495 42.02 -1.495 42.02 -2 40 C-3.051875 40.20625 -4.10375 40.4125 -5.1875 40.625 C-9.00902274 41.00088748 -10.76487495 40.99816547 -14 39 C-14.8125 36.875 -14.8125 36.875 -15 35 C-13.125 33.9375 -13.125 33.9375 -11 33 C-10.01 33.495 -10.01 33.495 -9 34 C-8.67 34.99 -8.34 35.98 -8 37 C-7.34 36.34 -6.68 35.68 -6 35 C-6.99 34.505 -6.99 34.505 -8 34 C-8 33.34 -8 32.68 -8 32 C-6.35 32.33 -4.7 32.66 -3 33 C-2.34 34.98 -1.68 36.96 -1 39 C-0.67 39 -0.34 39 0 39 C0.05469084 36.9794772 0.09310129 34.95851112 0.125 32.9375 C0.14820313 31.81214844 0.17140625 30.68679687 0.1953125 29.52734375 C0.13134716 25.97317862 0.13134716 25.97317862 -0.9921875 22.58203125 C-2.14061499 18.50021728 -2.29709519 14.95717017 -2.25 10.75 C-2.26160156 9.69039062 -2.26160156 9.69039062 -2.2734375 8.609375 C-2.25925262 4.86456627 -2.12723104 3.19084656 0 0 Z " fill="#4F4F51" transform="translate(72,53)"/>
<path d="M0 0 C9.37347974 0.35720225 18.23158368 1.21343488 27.40234375 3.28125 C31.558337 4.11154615 35.78780024 4.5319778 40 5 C40 13.25 40 21.5 40 30 C29.9618127 32.67684995 19.93694947 35.29676419 9.80957031 37.61132812 C5.92036338 38.51097333 2.11460639 39.53559587 -1.6875 40.75 C-5.22375612 41.86830322 -8.25854918 42.2953777 -12 42 C-12 41.34 -12 40.68 -12 40 C-11.34 40 -10.68 40 -10 40 C-9.34 35.05 -8.68 30.1 -8 25 C-7.01 25 -6.02 25 -5 25 C-4.89042969 24.11699219 -4.78085938 23.23398438 -4.66796875 22.32421875 C-3.65707211 14.67263522 -2.25958594 7.38131409 0 0 Z " fill="#CECDC8" transform="translate(120,103)"/>
<path d="M0 0 C2.1864624 1.07002258 2.1864624 1.07002258 4 3 C4.38259981 5.58186903 4.50711445 7.73721548 4.45410156 10.31713867 C4.45468567 11.05884811 4.45526978 11.80055756 4.45587158 12.56474304 C4.45308486 15.01629444 4.42196706 17.4666298 4.390625 19.91796875 C4.38316465 21.61761307 4.37747075 23.317266 4.37347412 25.016922 C4.35820142 29.49042509 4.31890585 33.9634087 4.2746582 38.43670654 C4.23374057 43.00135266 4.21547063 47.56608272 4.1953125 52.13085938 C4.15241292 61.08746783 4.08414204 70.04369072 4 79 C2.57718994 79.01689773 1.15432096 79.02887399 -0.26855469 79.03881836 C-1.45708038 79.04962685 -1.45708038 79.04962685 -2.6696167 79.06065369 C-5.97206242 78.9746998 -9.03631258 78.30221439 -12.25 77.5625 C-18.35153548 76.25107007 -24.26028737 75.53267888 -30.48828125 75.2109375 C-33 75 -33 75 -35 74 C-34.69240822 72.02006459 -34.3787932 70.04106401 -34.0625 68.0625 C-33.88847656 66.96035156 -33.71445313 65.85820313 -33.53515625 64.72265625 C-33 62 -33 62 -32 61 C-31.95919217 59.00041636 -31.95745644 56.99954746 -32 55 C-31.67 55 -31.34 55 -31 55 C-31 56.65 -31 58.3 -31 60 C-29.35 60 -27.7 60 -26 60 C-26.01160156 58.865625 -26.02320313 57.73125 -26.03515625 56.5625 C-26.0445441 55.04166833 -26.05364322 53.52083486 -26.0625 52 C-26.07087891 51.25621094 -26.07925781 50.51242188 -26.08789062 49.74609375 C-26.10966272 44.73851156 -25.71541549 39.95720968 -25 35 C-24.67 35 -24.34 35 -24 35 C-24 43.58 -24 52.16 -24 61 C-23.01 61 -22.02 61 -21 61 C-21 61.66 -21 62.32 -21 63 C-19.57107422 62.98259766 -19.57107422 62.98259766 -18.11328125 62.96484375 C-16.85902344 62.95582031 -15.60476562 62.94679687 -14.3125 62.9375 C-13.07113281 62.92589844 -11.82976562 62.91429687 -10.55078125 62.90234375 C-7 63 -7 63 -2 64 C-2.33 59.38 -2.66 54.76 -3 50 C-2.01 50 -1.02 50 0 50 C0 49.34 0 48.68 0 48 C-3.465 48.495 -3.465 48.495 -7 49 C-7 48.34 -7 47.68 -7 47 C-6.01 46.505 -6.01 46.505 -5 46 C-4.34227572 42.97065509 -4.34227572 42.97065509 -4 40 C-6.475 40.495 -6.475 40.495 -9 41 C-8.01 40.01 -7.02 39.02 -6 38 C-6.33 37.01 -6.66 36.02 -7 35 C-6.01 35 -5.02 35 -4 35 C-4.66 34.01 -5.32 33.02 -6 32 C-5.82531656 28.59367293 -5.22771261 27.25531414 -2.9375 24.6875 C-2.298125 24.130625 -1.65875 23.57375 -1 23 C-1.66 22.34 -2.32 21.68 -3 21 C-2.34 21 -1.68 21 -1 21 C-1 20.34 -1 19.68 -1 19 C-4.11785113 19.64644661 -4.11785113 19.64644661 -5 22 C-5.66 22 -6.32 22 -7 22 C-6.67 19.69 -6.34 17.38 -6 15 C-7.32 14.67 -8.64 14.34 -10 14 C-9.67 12.68 -9.34 11.36 -9 10 C-9.99 9.34 -10.98 8.68 -12 8 C-12 4 -12 4 -9.9375 1.75 C-6.28267979 -0.4273397 -4.19267815 -0.53361358 0 0 Z " fill="#B2A399" transform="translate(156,29)"/>
<path d="M0 0 C2.64 0 5.28 0 8 0 C8 10.89 8 21.78 8 33 C7.01 33.33 6.02 33.66 5 34 C5 33.01 5 32.02 5 31 C4.27409668 31.09087891 3.54819336 31.18175781 2.80029297 31.27539062 C-0.50768047 31.6873688 -3.81632024 32.09373512 -7.125 32.5 C-8.26710937 32.64308594 -9.40921875 32.78617188 -10.5859375 32.93359375 C-12.24882813 33.13662109 -12.24882813 33.13662109 -13.9453125 33.34375 C-14.96125488 33.46943359 -15.97719727 33.59511719 -17.02392578 33.72460938 C-20.0340821 34.00315378 -22.97883394 34.04726727 -26 34 C-26 33.34 -26 32.68 -26 32 C-30.95 32.495 -30.95 32.495 -36 33 C-35.67 31.35 -35.34 29.7 -35 28 C-39.29 27.67 -43.58 27.34 -48 27 C-48 22.71 -48 18.42 -48 14 C-47.01 14 -46.02 14 -45 14 C-45 16.64 -45 19.28 -45 22 C-42.03 21.67 -39.06 21.34 -36 21 C-36 19.02 -36 17.04 -36 15 C-37.65 15 -39.3 15 -41 15 C-41 14.34 -41 13.68 -41 13 C-32.585 12.505 -32.585 12.505 -24 12 C-23.67 10.02 -23.34 8.04 -23 6 C-22.67 5.01 -22.34 4.02 -22 3 C-23.98 3 -25.96 3 -28 3 C-28 2.67 -28 2.34 -28 2 C-25.03 2 -22.06 2 -19 2 C-19.99 2.495 -19.99 2.495 -21 3 C-21 5.64 -21 8.28 -21 11 C-19.68 11 -18.36 11 -17 11 C-16.67 9.68 -16.34 8.36 -16 7 C-10.63904667 5.87137825 -5.44693314 5.90311779 0 6 C0 7.32 0 8.64 0 10 C1.32 10 2.64 10 4 10 C4.33 7.03 4.66 4.06 5 1 C3.35 1 1.7 1 0 1 C0 0.67 0 0.34 0 0 Z " fill="#D5D4CE" transform="translate(48,53)"/>
<path d="M0 0 C0.85722656 0.13277344 1.71445312 0.26554687 2.59765625 0.40234375 C4.31275391 0.66724609 4.31275391 0.66724609 6.0625 0.9375 C7.83560547 1.21207031 7.83560547 1.21207031 9.64453125 1.4921875 C12.17790717 1.87558549 14.70949497 2.23228761 17.25 2.5625 C20 3 20 3 21 4 C22.51165654 4.39148761 24.03469632 4.73972457 25.5625 5.0625 C26.38878906 5.23910156 27.21507813 5.41570312 28.06640625 5.59765625 C28.70449219 5.73042969 29.34257813 5.86320313 30 6 C30 6.99 30 7.98 30 9 C29.01 9.66 28.02 10.32 27 11 C29.64 11 32.28 11 35 11 C35 12.98 35 14.96 35 17 C36.32 17 37.64 17 39 17 C39 15.35 39 13.7 39 12 C39.804375 11.71125 40.60875 11.4225 41.4375 11.125 C44.1326468 10.26737432 44.1326468 10.26737432 45 8 C43.35 8 41.7 8 40 8 C40 7.34 40 6.68 40 6 C42.58252893 5.49550598 45.16588703 4.99625699 47.75 4.5 C48.84441406 4.28537109 48.84441406 4.28537109 49.9609375 4.06640625 C53.39343532 3.41111121 56.49169491 3 60 3 C60 5.64 60 8.28 60 11 C60.99 11 61.98 11 63 11 C63 8.03 63 5.06 63 2 C63.33 2 63.66 2 64 2 C64.05429959 3.74965358 64.09292823 5.49979787 64.125 7.25 C64.14820312 8.22453125 64.17140625 9.1990625 64.1953125 10.203125 C63.99862781 13.0196498 63.44568916 14.60949036 62 17 C61.34 17 60.68 17 60 17 C60 17.66 60 18.32 60 19 C61.98 18.67 63.96 18.34 66 18 C63.09497037 20.90502963 59.58280221 21.16691949 55.6875 22 C50.92209015 23.03472852 46.53190736 24.17820336 42 26 C39.90550831 26.42573106 37.79996789 26.80000494 35.6875 27.125 C34.61886719 27.29257813 33.55023438 27.46015625 32.44921875 27.6328125 C31.64097656 27.75398438 30.83273438 27.87515625 30 28 C30.33 27.071875 30.66 26.14375 31 25.1875 C32.14967004 22.07970709 32.14967004 22.07970709 32 19 C32 18.34 32 17.68 32 17 C29.03 17.33 26.06 17.66 23 18 C22.67 18.99 22.34 19.98 22 21 C20.9275 20.835 19.855 20.67 18.75 20.5 C14.96971248 19.91189085 14.96971248 19.91189085 11 20 C11 19.34 11 18.68 11 18 C13.5 16.375 13.5 16.375 16 15 C12.62698606 13.68370188 10.08419984 13 6.4375 13 C2.96114372 13 0.95341156 12.82416596 -2 11 C-2.8125 8.375 -2.8125 8.375 -3 6 C-2.67 6.99 -2.34 7.98 -2 9 C-1.34 9 -0.68 9 0 9 C0 6.03 0 3.06 0 0 Z " fill="#BFBCB6" transform="translate(48,126)"/>
<path d="M0 0 C6.6 0 13.2 0 20 0 C20 4.29 20 8.58 20 13 C18.02 13 16.04 13 14 13 C14 24.22 14 35.44 14 47 C9.38 47 4.76 47 0 47 C0 31.49 0 15.98 0 0 Z " fill="#0C0C0B" transform="translate(0,0)"/>
<path d="M0 0 C7.26 0 14.52 0 22 0 C22 10.56 22 21.12 22 32 C20.68 31.34 19.36 30.68 18 30 C14.45800359 29.58326793 14.45800359 29.58326793 11 30 C9.37485532 31.45833358 9.37485532 31.45833358 8 33 C5.4375 33.125 5.4375 33.125 3 33 C2.01 33.495 2.01 33.495 1 34 C0.31550847 22.64477442 -0.11264067 11.3767077 0 0 Z " fill="#E3E4E0" transform="translate(138,0)"/>
<path d="M0 0 C0 0.66 0 1.32 0 2 C-11.88 2.99 -11.88 2.99 -24 4 C-17.07 4.495 -17.07 4.495 -10 5 C-10 5.33 -10 5.66 -10 6 C-11.39025391 6.19916016 -11.39025391 6.19916016 -12.80859375 6.40234375 C-14.00613281 6.57894531 -15.20367187 6.75554688 -16.4375 6.9375 C-17.63246094 7.11152344 -18.82742187 7.28554688 -20.05859375 7.46484375 C-22.87955676 7.68985213 -22.87955676 7.68985213 -24 9 C-25.66617115 9.04063832 -27.33388095 9.042721 -29 9 C-29.33 8.34 -29.66 7.68 -30 7 C-30.66 9.97 -31.32 12.94 -32 16 C-35.83567829 16.95891957 -38.82281141 17.10177189 -42.75 17.0625 C-43.92046875 17.05347656 -45.0909375 17.04445313 -46.296875 17.03515625 C-47.18890625 17.02355469 -48.0809375 17.01195313 -49 17 C-49 17.66 -49 18.32 -49 19 C-47.35 19 -45.7 19 -44 19 C-44 20.98 -44 22.96 -44 25 C-46.97 25.33 -49.94 25.66 -53 26 C-53 23.36 -53 20.72 -53 18 C-53.99 18 -54.98 18 -56 18 C-56 13.38 -56 8.76 -56 4 C-45.92874289 2.71820364 -35.87107617 1.67821374 -25.75 0.875 C-24.15502686 0.74375732 -24.15502686 0.74375732 -22.52783203 0.60986328 C-15.00659832 0.03380331 -7.54164353 -0.0968454 0 0 Z " fill="#D3D1C9" transform="translate(56,49)"/>
<path d="M0 0 C2.64 0 5.28 0 8 0 C8 16.17 8 32.34 8 49 C9.32 49.33 10.64 49.66 12 50 C7.69214025 51.35148541 4.58042408 52 0 52 C0 34.84 0 17.68 0 0 Z " fill="#D0CFCD" transform="translate(110,0)"/>
<path d="M0 0 C4.29 0 8.58 0 13 0 C13.33 1.32 13.66 2.64 14 4 C14.33 4.33 14.66 4.66 15 5 C16.134375 4.814375 17.26875 4.62875 18.4375 4.4375 C20.2009375 4.2209375 20.2009375 4.2209375 22 4 C22.66 4.66 23.32 5.32 24 6 C20.62902617 7.49821059 18.79557881 8 15 8 C15 16.25 15 24.5 15 33 C14.01 33.495 14.01 33.495 13 34 C13 30.7 13 27.4 13 24 C12.01 24.2475 12.01 24.2475 11 24.5 C8 25 8 25 0 25 C0 16.75 0 8.5 0 0 Z " fill="#DED9D2" transform="translate(0,80)"/>
<path d="M0 0 C0.33 0 0.66 0 1 0 C1 2.31 1 4.62 1 7 C1.68964844 6.855625 2.37929688 6.71125 3.08984375 6.5625 C9.1880192 5.35792213 14.78763445 4.79631588 21 5 C21.02735618 6.70824133 21.04655506 8.41661405 21.0625 10.125 C21.07410156 11.07632813 21.08570312 12.02765625 21.09765625 13.0078125 C20.99720599 16.08560857 20.56963767 18.97688357 20 22 C17.77149723 22.33774332 15.54216533 22.6700187 13.3125 23 C12.07113281 23.185625 10.82976563 23.37125 9.55078125 23.5625 C6.64113629 23.92100411 3.92299978 24.08942256 1 24 C0.09958689 15.97667603 -0.11547323 8.07029553 0 0 Z " fill="#BAAEA6" transform="translate(20,88)"/>
<path d="M0 0 C2.19042969 1.09887695 2.19042969 1.09887695 4 3 C4.45410156 6.09448242 4.45410156 6.09448242 4.390625 9.85546875 C4.38496521 10.51710526 4.37930542 11.17874176 4.37347412 11.86042786 C4.35111247 13.97019332 4.30092371 16.07824952 4.25 18.1875 C4.2299344 19.61911606 4.21168372 21.0507588 4.1953125 22.48242188 C4.15125069 25.98883515 4.08222777 29.49425072 4 33 C2.02 33.66 0.04 34.32 -2 35 C-2 33.35 -2 31.7 -2 30 C-2.66 30 -3.32 30 -4 30 C-3.38722388 27.03824877 -2.74627478 25.61941217 -1 23 C-1.66 22.34 -2.32 21.68 -3 21 C-2.34 21 -1.68 21 -1 21 C-1 20.34 -1 19.68 -1 19 C-4.11785113 19.64644661 -4.11785113 19.64644661 -5 22 C-5.66 22 -6.32 22 -7 22 C-6.67 19.69 -6.34 17.38 -6 15 C-7.32 14.67 -8.64 14.34 -10 14 C-9.67 12.68 -9.34 11.36 -9 10 C-9.99 9.34 -10.98 8.68 -12 8 C-12 4 -12 4 -9.9375 1.75 C-6.28267979 -0.4273397 -4.19267815 -0.53361358 0 0 Z " fill="#333E1F" transform="translate(156,29)"/>
<path d="M0 0 C0.33 0.99 0.66 1.98 1 3 C1.66 3 2.32 3 3 3 C3.33 4.32 3.66 5.64 4 7 C5.65 6.67 7.3 6.34 9 6 C9 18.87 9 31.74 9 45 C7.35 44.67 5.7 44.34 4 44 C3.67 43.34 3.34 42.68 3 42 C1.68 42 0.36 42 -1 42 C-1 40.68 -1 39.36 -1 38 C0.65 38 2.3 38 4 38 C3.855625 37.41992188 3.71125 36.83984375 3.5625 36.2421875 C2.49110572 31.73340325 1.76054064 27.66945753 2 23 C2.99 23 3.98 23 5 23 C5 22.34 5 21.68 5 21 C2.69 21.33 0.38 21.66 -2 22 C-2 21.34 -2 20.68 -2 20 C-1.34 19.67 -0.68 19.34 0 19 C0.65772428 15.97065509 0.65772428 15.97065509 1 13 C-0.65 13.33 -2.3 13.66 -4 14 C-3.01 13.01 -2.02 12.02 -1 11 C-1.33 10.01 -1.66 9.02 -2 8 C-1.01 8 -0.02 8 1 8 C0.34 7.01 -0.32 6.02 -1 5 C-0.625 2.3125 -0.625 2.3125 0 0 Z " fill="#94948D" transform="translate(151,56)"/>
<path d="M0 0 C0.85722656 0.13277344 1.71445312 0.26554687 2.59765625 0.40234375 C4.31275391 0.66724609 4.31275391 0.66724609 6.0625 0.9375 C7.83560547 1.21207031 7.83560547 1.21207031 9.64453125 1.4921875 C12.17790717 1.87558549 14.70949497 2.23228761 17.25 2.5625 C20 3 20 3 21 4 C22.51165654 4.39148761 24.03469632 4.73972457 25.5625 5.0625 C26.38878906 5.23910156 27.21507813 5.41570312 28.06640625 5.59765625 C28.70449219 5.73042969 29.34257813 5.86320313 30 6 C30 6.99 30 7.98 30 9 C29.01 9.66 28.02 10.32 27 11 C29.64 11 32.28 11 35 11 C35 12.98 35 14.96 35 17 C30.71 16.34 26.42 15.68 22 15 C21.67 14.01 21.34 13.02 21 12 C20.38511719 12.01160156 19.77023438 12.02320313 19.13671875 12.03515625 C18.32847656 12.04417969 17.52023438 12.05320313 16.6875 12.0625 C15.48673828 12.07990234 15.48673828 12.07990234 14.26171875 12.09765625 C12 12 12 12 9 11 C6.94106379 10.77674186 4.87766347 10.59294241 2.8125 10.4375 C1.72582031 10.35371094 0.63914063 10.26992187 -0.48046875 10.18359375 C-1.31191406 10.12300781 -2.14335938 10.06242188 -3 10 C-2.67 8.68 -2.34 7.36 -2 6 C-2 6.99 -2 7.98 -2 9 C-1.34 9 -0.68 9 0 9 C0 6.03 0 3.06 0 0 Z " fill="#7A7974" transform="translate(48,126)"/>
<path d="M0 0 C2.05078125 0.03255208 4.1015625 0.06510417 6.15234375 0.09765625 C6.15234375 0.75765625 6.15234375 1.41765625 6.15234375 2.09765625 C8.62734375 3.08765625 8.62734375 3.08765625 11.15234375 4.09765625 C10.52734375 6.03515625 10.52734375 6.03515625 9.15234375 8.09765625 C4.61930782 9.16642773 0.08234959 9.28589643 -4.5546875 9.3359375 C-5.27951828 9.34400925 -6.00434906 9.35208099 -6.75114441 9.36039734 C-8.2781643 9.37416001 -9.80521394 9.38491672 -11.33227539 9.39282227 C-12.87891796 9.40433895 -14.42552087 9.4247862 -15.97192383 9.4543457 C-24.72483072 9.62125423 -32.06017817 9.58206229 -39.84765625 5.09765625 C-41.83693968 4.39966206 -43.83269718 3.71764366 -45.84765625 3.09765625 C-45.84765625 2.76765625 -45.84765625 2.43765625 -45.84765625 2.09765625 C-42.64524836 1.94516064 -40.29762195 1.9097661 -37.3125 3.15625 C-32.40356521 4.49001921 -28.0452697 3.84782535 -23.03515625 3.28515625 C-22.08833984 3.18912109 -21.14152344 3.09308594 -20.16601562 2.99414062 C-18.29398428 2.80217045 -16.42268084 2.60294481 -14.55224609 2.39599609 C-12.76201157 2.19851762 -10.97062577 2.01118846 -9.17822266 1.83447266 C-5.89755799 1.50400396 -2.94287458 0.15554305 0 0 Z " fill="#949395" transform="translate(117.84765625,49.90234375)"/>
<path d="M0 0 C0.99 0.33 1.98 0.66 3 1 C2.979375 1.969375 2.95875 2.93875 2.9375 3.9375 C2.64381501 6.87465895 2.64381501 6.87465895 4 8 C3.93396457 10.49433834 3.80634777 12.95096454 3.625 15.4375 C3.57537109 16.16815674 3.52574219 16.89881348 3.47460938 17.65161133 C3.15102634 22.28161357 2.75015328 26.89763539 2.24609375 31.51171875 C1.95011698 34.50437271 1.76160873 37.49939656 1.5625 40.5 C1.27577073 44.40042831 0.84617546 48.12030849 0 51.9375 C-1.12517509 57.0799669 -1.45906346 62.19046214 -1.78125 67.4375 C-1.99520534 70.92191552 -2.26716623 74.39662444 -2.5625 77.875 C-2.64628906 78.86242187 -2.73007813 79.84984375 -2.81640625 80.8671875 C-2.87699219 81.57101563 -2.93757813 82.27484375 -3 83 C-3.99 83 -4.98 83 -6 83 C-6 81.35 -6 79.7 -6 78 C-10.455 78.495 -10.455 78.495 -15 79 C-14.34 78.195625 -13.68 77.39125 -13 76.5625 C-10.89745486 74.41038085 -10.89745486 74.41038085 -11 73 C-9.35 73 -7.7 73 -6 73 C-6.01740234 72.43619629 -6.03480469 71.87239258 -6.05273438 71.29150391 C-6.17708333 63.89422161 -5.40752614 56.70879235 -4.5 49.375 C-4.35691406 48.18003906 -4.21382812 46.98507813 -4.06640625 45.75390625 C-3.71616907 42.83526309 -3.36059639 39.91737822 -3 37 C-2.67 37 -2.34 37 -2 37 C-1.01147497 32.81723749 -0.80326716 28.80286514 -0.68359375 24.51171875 C-0.66281265 23.80852005 -0.64203156 23.10532135 -0.62062073 22.3808136 C-0.55559885 20.14980183 -0.49646224 17.91867931 -0.4375 15.6875 C-0.39426964 14.16860866 -0.35065395 12.64972823 -0.30664062 11.13085938 C-0.19996666 7.4206888 -0.09856779 3.71039579 0 0 Z " fill="#656567" transform="translate(89,59)"/>
<path d="M0 0 C6.6 0 13.2 0 20 0 C20 4.62 20 9.24 20 14 C13.4 14 6.8 14 0 14 C0 9.38 0 4.76 0 0 Z " fill="#AAA7A4" transform="translate(32,0)"/>
<path d="M0 0 C0.66 0.66 1.32 1.32 2 2 C2.66 1.34 3.32 0.68 4 0 C7.625 0.375 7.625 0.375 11 1 C11 4.3 11 7.6 11 11 C10.01 11 9.02 11 8 11 C7.7525 10.030625 7.505 9.06125 7.25 8.0625 C6.8375 7.051875 6.425 6.04125 6 5 C3.96756452 4.03122943 3.96756452 4.03122943 2 4 C2 4.66 2 5.32 2 6 C2.99 6.33 3.98 6.66 5 7 C4.01 7.99 3.02 8.98 2 10 C1.505 8.02 1.505 8.02 1 6 C-0.65 6.33 -2.3 6.66 -4 7 C-4 8.32 -4 9.64 -4 11 C-2.56274129 11.16873478 -1.12518162 11.33490737 0.3125 11.5 C1.11300781 11.5928125 1.91351563 11.685625 2.73828125 11.78125 C5.11896555 12.04813463 5.11896555 12.04813463 8 12 C8.495 13.98 8.495 13.98 9 16 C1.125 15.125 1.125 15.125 0 14 C-1.010625 13.87625 -2.02125 13.7525 -3.0625 13.625 C-8.02181231 12.83780757 -12.55210209 11.37417206 -16.94140625 8.91015625 C-19.37096285 7.83598796 -21.10760907 7.79728262 -23.75 7.875 C-24.94882812 7.90207031 -24.94882812 7.90207031 -26.171875 7.9296875 C-27.07679687 7.96449219 -27.07679687 7.96449219 -28 8 C-28 7.34 -28 6.68 -28 6 C-29.98 6 -31.96 6 -34 6 C-34 5.67 -34 5.34 -34 5 C-31.33397504 4.66068773 -28.66736986 4.32842824 -26 4 C-24.88431641 3.85691406 -24.88431641 3.85691406 -23.74609375 3.7109375 C-18.79111949 3.10772324 -13.99157504 2.90924409 -9 3 C-9 3.99 -9 4.98 -9 6 C-8.34 5.67 -7.68 5.34 -7 5 C-6.34786708 2.97536745 -6.34786708 2.97536745 -6 1 C-3.125 0.375 -3.125 0.375 0 0 Z " fill="#99938E" transform="translate(62,81)"/>
<path d="M0 0 C0 0.66 0 1.32 0 2 C-0.99 2 -1.98 2 -3 2 C-3.268125 2.969375 -3.53625 3.93875 -3.8125 4.9375 C-4.204375 5.948125 -4.59625 6.95875 -5 8 C-7.88211302 8.96070434 -9.69850044 9.10581883 -12.6875 9.0625 C-13.89986328 9.04896484 -13.89986328 9.04896484 -15.13671875 9.03515625 C-16.05904297 9.01775391 -16.05904297 9.01775391 -17 9 C-17 9.66 -17 10.32 -17 11 C-15.35 11 -13.7 11 -12 11 C-12 12.98 -12 14.96 -12 17 C-14.97 17.33 -17.94 17.66 -21 18 C-21 15.36 -21 12.72 -21 10 C-21.99 10 -22.98 10 -24 10 C-24 7.03 -24 4.06 -24 1 C-20.75005913 0.83210638 -17.50005602 0.66563646 -14.25 0.5 C-13.32960938 0.45230469 -12.40921875 0.40460937 -11.4609375 0.35546875 C-10.12675781 0.28779297 -10.12675781 0.28779297 -8.765625 0.21875 C-7.94868164 0.17685547 -7.13173828 0.13496094 -6.29003906 0.09179688 C-4.19481876 0.00780937 -2.09690296 0 0 0 Z " fill="#AEAA9A" transform="translate(24,57)"/>
<path d="M0 0 C1.216875 -0.020625 2.43375 -0.04125 3.6875 -0.0625 C4.71423828 -0.07990234 4.71423828 -0.07990234 5.76171875 -0.09765625 C8 0 8 0 13 1 C13 5.29 13 9.58 13 14 C9.52669872 14.69466026 7.08697137 15.12011816 3.6875 15.0625 C1.8621875 15.0315625 1.8621875 15.0315625 0 15 C0 10.05 0 5.1 0 0 Z " fill="#AB9C93" transform="translate(0,90)"/>
<path d="M0 0 C0 2.64 0 5.28 0 8 C-2.37265061 8.67617524 -4.74755355 9.34108226 -7.125 10 C-7.79015625 10.19078125 -8.4553125 10.3815625 -9.140625 10.578125 C-13.1986205 11.69208455 -16.79685974 12.20950232 -21 12 C-21 11.01 -21 10.02 -21 9 C-20.195625 8.71125 -19.39125 8.4225 -18.5625 8.125 C-15.8673532 7.26737432 -15.8673532 7.26737432 -15 5 C-16.65 5 -18.3 5 -20 5 C-20 4.34 -20 3.68 -20 3 C-17.41747107 2.49550598 -14.83411297 1.99625699 -12.25 1.5 C-11.52039063 1.35691406 -10.79078125 1.21382812 -10.0390625 1.06640625 C-6.60656468 0.41111121 -3.50830509 0 0 0 Z " fill="#7E7C78" transform="translate(108,129)"/>
<path d="M0 0 C0.66 0.33 1.32 0.66 2 1 C2.08086376 3.93804996 2.1404283 6.87388075 2.1875 9.8125 C2.21263672 10.64587891 2.23777344 11.47925781 2.26367188 12.33789062 C2.27333984 13.14033203 2.28300781 13.94277344 2.29296875 14.76953125 C2.3086792 15.50792236 2.32438965 16.24631348 2.34057617 17.00708008 C1.90178283 19.57472884 1.05973723 20.44918913 -1 22 C-3.7421875 22.14453125 -3.7421875 22.14453125 -6.875 21.8125 C-8.41800781 21.66748047 -8.41800781 21.66748047 -9.9921875 21.51953125 C-12.93456729 21.01130201 -15.32473213 20.31845639 -18 19 C-18.33 18.34 -18.66 17.68 -19 17 C-20.97888961 16.27306096 -22.97954558 15.60183749 -25 15 C-23 14 -23 14 -20.3125 14.875 C-19.219375 15.24625 -18.12625 15.6175 -17 16 C-15.3603125 16.2165625 -15.3603125 16.2165625 -13.6875 16.4375 C-9.24010277 17.11591653 -5.21999862 18.4785039 -1 20 C-1.33 18.68 -1.66 17.36 -2 16 C-3.051875 16.20625 -4.10375 16.4125 -5.1875 16.625 C-9.00902274 17.00088748 -10.76487495 16.99816547 -14 15 C-14.8125 12.875 -14.8125 12.875 -15 11 C-13.125 9.9375 -13.125 9.9375 -11 9 C-10.34 9.33 -9.68 9.66 -9 10 C-8.67 10.99 -8.34 11.98 -8 13 C-7.34 12.34 -6.68 11.68 -6 11 C-6.66 10.67 -7.32 10.34 -8 10 C-8 9.34 -8 8.68 -8 8 C-5.525 8.495 -5.525 8.495 -3 9 C-2.34 10.98 -1.68 12.96 -1 15 C-0.67 15 -0.34 15 0 15 C0 10.05 0 5.1 0 0 Z " fill="#6C6968" transform="translate(72,77)"/>
<path d="M0 0 C2 1 2 1 2.609375 2.76953125 C4.06454425 11.07854765 2.75342114 18.49315772 -1 26 C-9.51533787 26.41425968 -17.936735 26.03778821 -26 23 C-26.33 22.01 -26.66 21.02 -27 20 C-27.99 20.33 -28.98 20.66 -30 21 C-30 20.34 -30 19.68 -30 19 C-27.98177083 19.03255208 -25.96354167 19.06510417 -23.9453125 19.09765625 C-21.91814596 19.12649242 -21.91814596 19.12649242 -20 18 C-20 18.66 -20 19.32 -20 20 C-14.06 20.66 -8.12 21.32 -2 22 C-0.82530556 19.65061112 -0.79965111 18.04926795 -0.68359375 15.4296875 C-0.64169922 14.53378906 -0.59980469 13.63789062 -0.55664062 12.71484375 C-0.51732422 11.77769531 -0.47800781 10.84054688 -0.4375 9.875 C-0.39431641 8.93011719 -0.35113281 7.98523438 -0.30664062 7.01171875 C-0.20040928 4.67462908 -0.09836824 2.3374317 0 0 Z " fill="#444446" transform="translate(74,76)"/>
<path d="M0 0 C-0.33 2.64 -0.66 5.28 -1 8 C-3.97 7.67 -6.94 7.34 -10 7 C-6.7 7.99 -3.4 8.98 0 10 C0 11.32 0 12.64 0 14 C-4.62 14 -9.24 14 -14 14 C-14 10.37 -14 6.74 -14 3 C-12.0424015 2.49713066 -10.08389623 1.9977901 -8.125 1.5 C-7.03445312 1.2215625 -5.94390625 0.943125 -4.8203125 0.65625 C-2 0 -2 0 0 0 Z " fill="#C1C0BB" transform="translate(14,146)"/>
<path d="M0 0 C0.99 0 1.98 0 3 0 C3 2.64 3 5.28 3 8 C7.455 7.505 7.455 7.505 12 7 C12 5.02 12 3.04 12 1 C12.66 1.33 13.32 1.66 14 2 C14.36923077 7.53846154 14.36923077 7.53846154 12.5 9.875 C12.005 10.24625 11.51 10.6175 11 11 C12.65 11 14.3 11 16 11 C16 11.66 16 12.32 16 13 C18.31 13 20.62 13 23 13 C23.33 14.32 23.66 15.64 24 17 C20.04 17.66 16.08 18.32 12 19 C12.33 17.35 12.66 15.7 13 14 C8.71 13.67 4.42 13.34 0 13 C0 8.71 0 4.42 0 0 Z " fill="#E0DACF" transform="translate(0,67)"/>
<path d="M0 0 C0.33 0 0.66 0 1 0 C1.36885848 13.75022459 0.2311641 27.31312253 -1 41 C-2.65 41 -4.3 41 -6 41 C-6.1644662 34.06381666 -5.55246038 27.48565564 -4.5625 20.625 C-4.42779297 19.64144531 -4.29308594 18.65789062 -4.15429688 17.64453125 C-3.14221148 10.42663445 -3.14221148 10.42663445 -2 7 C-1.34 7 -0.68 7 0 7 C0 4.69 0 2.38 0 0 Z " fill="#CBCAC8" transform="translate(131,48)"/>
<path d="M0 0 C0.33 0 0.66 0 1 0 C1.05429959 1.74965358 1.09292823 3.49979787 1.125 5.25 C1.14820312 6.22453125 1.17140625 7.1990625 1.1953125 8.203125 C0.99862781 11.0196498 0.44568916 12.60949036 -1 15 C-2.32 15 -3.64 15 -5 15 C-5 15.66 -5 16.32 -5 17 C-6.98 17.33 -8.96 17.66 -11 18 C-11 17.34 -11 16.68 -11 16 C-11.928125 16.556875 -11.928125 16.556875 -12.875 17.125 C-17.50065797 18.42018423 -21.4205517 17.15597724 -26 16 C-25.34 15.67 -24.68 15.34 -24 15 C-24 14.34 -24 13.68 -24 13 C-22.94039063 12.79503906 -21.88078125 12.59007812 -20.7890625 12.37890625 C-19.40101178 12.10692334 -18.01299256 11.83477956 -16.625 11.5625 C-15.92632812 11.42779297 -15.22765625 11.29308594 -14.5078125 11.15429688 C-10.64371266 10.4227578 -10.64371266 10.4227578 -7 9 C-4.6670134 8.95977609 -2.33293334 8.95679753 0 9 C0 6.03 0 3.06 0 0 Z " fill="#A1A09C" transform="translate(111,128)"/>
<path d="M0 0 C0 7.26 0 14.52 0 22 C-1.65 22 -3.3 22 -5 22 C-5 21.34 -5 20.68 -5 20 C-6.32 19.67 -7.64 19.34 -9 19 C-8.01 18.67 -7.02 18.34 -6 18 C-6 17.34 -6 16.68 -6 16 C-7.65 16.33 -9.3 16.66 -11 17 C-11 16.34 -11 15.68 -11 15 C-9.02 14.67 -7.04 14.34 -5 14 C-5 13.34 -5 12.68 -5 12 C-4.34 12 -3.68 12 -3 12 C-5.0072908 8.9890638 -5.83884224 8.36983503 -9 7 C-8.01 6.67 -7.02 6.34 -6 6 C-6.33 4.35 -6.66 2.7 -7 1 C-4.50935112 0.31292445 -2.62113708 0 0 0 Z " fill="#5A613F" transform="translate(160,6)"/>
<path d="M0 0 C5.61 0 11.22 0 17 0 C17 3.63 17 7.26 17 11 C15.68 11 14.36 11 13 11 C13 9.68 13 8.36 13 7 C8.71 7 4.42 7 0 7 C0 4.69 0 2.38 0 0 Z " fill="#B5B3B1" transform="translate(1,0)"/>
<path d="M0 0 C1.98 0 3.96 0 6 0 C4.68 0.33 3.36 0.66 2 1 C2.268125 1.556875 2.53625 2.11375 2.8125 2.6875 C2.874375 3.450625 2.93625 4.21375 3 5 C2.175 5.763125 1.35 6.52625 0.5 7.3125 C-0.325 8.199375 -1.15 9.08625 -2 10 C-1.94271002 13.74360341 -1.94271002 13.74360341 -1 17 C-1.99 17 -2.98 17 -4 17 C-4 17.66 -4 18.32 -4 19 C-3.01 19.33 -2.02 19.66 -1 20 C-2.65 20.66 -4.3 21.32 -6 22 C-7.515625 20.80859375 -7.515625 20.80859375 -9 19 C-9.109375 16.66015625 -9.109375 16.66015625 -8.75 14.0625 C-8.64171875 13.20785156 -8.5334375 12.35320313 -8.421875 11.47265625 C-8.04665223 9.27343389 -7.57648221 7.15373753 -7 5 C-6.7215625 3.88625 -6.7215625 3.88625 -6.4375 2.75 C-6.2209375 1.88375 -6.2209375 1.88375 -6 1 C-5.34 1 -4.68 1 -4 1 C-4 1.99 -4 2.98 -4 4 C-3.34 4 -2.68 4 -2 4 C-1.34 2.68 -0.68 1.36 0 0 Z " fill="#D4D3CE" transform="translate(153,47)"/>
<path d="M0 0 C0.90105469 0.00902344 1.80210938 0.01804687 2.73046875 0.02734375 C3.41753906 0.03894531 4.10460938 0.05054687 4.8125 0.0625 C4.8125 0.7225 4.8125 1.3825 4.8125 2.0625 C5.71742187 1.90201172 5.71742187 1.90201172 6.640625 1.73828125 C13.2498928 0.74689108 13.2498928 0.74689108 16.375 2.5 C16.849375 3.015625 17.32375 3.53125 17.8125 4.0625 C15.5025 4.0625 13.1925 4.0625 10.8125 4.0625 C10.8125 4.7225 10.8125 5.3825 10.8125 6.0625 C1.4075 7.0525 1.4075 7.0525 -8.1875 8.0625 C-8.1875 5.7525 -8.1875 3.4425 -8.1875 1.0625 C-5.17259443 0.05753148 -3.14568308 -0.04085303 0 0 Z " fill="#624E41" transform="translate(29.1875,86.9375)"/>
<path d="M0 0 C0 3.3 0 6.6 0 10 C-4.0527516 10.98248524 -7.83861737 11.08159574 -12 11 C-13.60725635 7.78548731 -13.05748185 4.56387464 -13 1 C-11.39796533 0.63631108 -9.79325797 0.28438048 -8.1875 -0.0625 C-7.29417969 -0.25972656 -6.40085937 -0.45695312 -5.48046875 -0.66015625 C-3 -1 -3 -1 0 0 Z " fill="#C6BCB4" transform="translate(13,104)"/>
<path d="M0 0 C0.66 0.66 1.32 1.32 2 2 C2.66 1.34 3.32 0.68 4 0 C7.625 0.375 7.625 0.375 11 1 C11 4.3 11 7.6 11 11 C10.01 11 9.02 11 8 11 C7.7525 10.030625 7.505 9.06125 7.25 8.0625 C6.8375 7.051875 6.425 6.04125 6 5 C3.96756452 4.03122943 3.96756452 4.03122943 2 4 C2 4.66 2 5.32 2 6 C2.99 6.33 3.98 6.66 5 7 C4.01 7.99 3.02 8.98 2 10 C1.67 8.68 1.34 7.36 1 6 C0.29875 6.144375 -0.4025 6.28875 -1.125 6.4375 C-4.07556141 7.01478375 -7.03270151 7.51695141 -10 8 C-10 6.68 -10 5.36 -10 4 C-12.31 4 -14.62 4 -17 4 C-17 3.67 -17 3.34 -17 3 C-14.36 3 -11.72 3 -9 3 C-9 3.99 -9 4.98 -9 6 C-8.34 5.67 -7.68 5.34 -7 5 C-6.34786708 2.97536745 -6.34786708 2.97536745 -6 1 C-3.125 0.375 -3.125 0.375 0 0 Z " fill="#A7A5A2" transform="translate(62,81)"/>
<path d="M0 0 C7.75286257 -0.27470773 15.46794798 -0.04045556 23 2 C23.33 2.66 23.66 3.32 24 4 C26.57951874 4.69093896 26.57951874 4.69093896 29.5625 5.125 C30.57441406 5.29257813 31.58632812 5.46015625 32.62890625 5.6328125 C33.41136719 5.75398437 34.19382813 5.87515625 35 6 C35 6.33 35 6.66 35 7 C31.7 7.33 28.4 7.66 25 8 C24.67 8.99 24.34 9.98 24 11 C22.9275 10.835 21.855 10.67 20.75 10.5 C16.96971248 9.91189085 16.96971248 9.91189085 13 10 C13 9.34 13 8.68 13 8 C15.5 6.375 15.5 6.375 18 5 C14.62698606 3.68370188 12.08419984 3 8.4375 3 C5.02854243 3 3.03181696 2.46997186 0 1 C0 0.67 0 0.34 0 0 Z " fill="#A3A29C" transform="translate(46,136)"/>
<path d="M0 0 C0.99 0 1.98 0 3 0 C3 3.63 3 7.26 3 11 C7.95 11 12.9 11 18 11 C18 7.37 18 3.74 18 0 C18.66 0 19.32 0 20 0 C20 4.62 20 9.24 20 14 C13.4 14 6.8 14 0 14 C0 9.38 0 4.76 0 0 Z " fill="#4B4845" transform="translate(32,0)"/>
<path d="M0 0 C-0.33 2.64 -0.66 5.28 -1 8 C-1.99 8 -2.98 8 -4 8 C-4 6.68 -4 5.36 -4 4 C-11.92 4.495 -11.92 4.495 -20 5 C-20.33 6.32 -20.66 7.64 -21 9 C-22.32 9 -23.64 9 -25 9 C-25 7.02 -25 5.04 -25 3 C-16.67057661 -0.04735002 -8.76405392 -0.12951804 0 0 Z " fill="#98958B" transform="translate(52,55)"/>
<path d="M0 0 C-0.33 1.32 -0.66 2.64 -1 4 C0.98 4 2.96 4 5 4 C4.01 4.495 4.01 4.495 3 5 C3 5.66 3 6.32 3 7 C3.66 7.33 4.32 7.66 5 8 C5 8.66 5 9.32 5 10 C4.01 10.495 4.01 10.495 3 11 C2.67 11.99 2.34 12.98 2 14 C-1.28976808 15.09658936 -2.71303767 14.79953138 -6 14 C-5.67 12.68 -5.34 11.36 -5 10 C-5.99 9.34 -6.98 8.68 -8 8 C-8 6.68 -8 5.36 -8 4 C-3.88888889 0 -3.88888889 0 0 0 Z " fill="#59633A" transform="translate(152,29)"/>
<path d="M0 0 C0.33 0 0.66 0 1 0 C1 8.58 1 17.16 1 26 C1.99 26 2.98 26 4 26 C4 26.66 4 27.32 4 28 C8.29 28 12.58 28 17 28 C17 28.66 17 29.32 17 30 C12.37078475 31.0161692 8.65537393 30.83796731 4 30 C3.67 30.66 3.34 31.32 3 32 C3 31.01 3 30.02 3 29 C-0.63 29 -4.26 29 -8 29 C-7.505 24.545 -7.505 24.545 -7 20 C-6.67 20 -6.34 20 -6 20 C-6 21.65 -6 23.3 -6 25 C-4.35 25 -2.7 25 -1 25 C-1.01160156 23.865625 -1.02320313 22.73125 -1.03515625 21.5625 C-1.0445441 20.04166833 -1.05364322 18.52083486 -1.0625 17 C-1.07087891 16.25621094 -1.07925781 15.51242188 -1.08789062 14.74609375 C-1.10966272 9.73851156 -0.71541549 4.95720968 0 0 Z " fill="#A8A4A0" transform="translate(131,64)"/>
<path d="M0 0 C0 0.66 0 1.32 0 2 C-37.44535073 5.22206362 -37.44535073 5.22206362 -56 5 C-56 4.67 -56 4.34 -56 4 C-45.9382389 2.68272208 -35.86603298 1.67781351 -25.75 0.875 C-24.15502686 0.74375732 -24.15502686 0.74375732 -22.52783203 0.60986328 C-15.00659832 0.03380331 -7.54164353 -0.0968454 0 0 Z " fill="#DCDAD5" transform="translate(56,49)"/>
<path d="M0 0 C1.98 0 3.96 0 6 0 C6 0.33 6 0.66 6 1 C4.35 1 2.7 1 1 1 C1.02618408 2.00901367 1.05236816 3.01802734 1.0793457 4.05761719 C1.16995784 7.80706542 1.22728776 11.55641728 1.2746582 15.30664062 C1.29977772 16.92855105 1.33388028 18.55034854 1.37719727 20.171875 C1.43796853 22.50549171 1.46623294 24.83761048 1.48828125 27.171875 C1.51408768 27.89493835 1.5398941 28.61800171 1.56648254 29.36297607 C1.5685887 33.15753629 1.3132603 34.67508952 -1.36328125 37.45117188 C-4.21019655 39.12347101 -6.03931433 39.5754301 -9.3125 39.75 C-10.19550781 39.80671875 -11.07851562 39.8634375 -11.98828125 39.921875 C-12.65214844 39.94765625 -13.31601563 39.9734375 -14 40 C-14 38.02 -14 36.04 -14 34 C-9.38 34 -4.76 34 0 34 C0 22.78 0 11.56 0 0 Z " fill="#A8A7A4" transform="translate(14,13)"/>
<path d="M0 0 C0.99 0.33 1.98 0.66 3 1 C2.979375 1.969375 2.95875 2.93875 2.9375 3.9375 C2.64381501 6.87465895 2.64381501 6.87465895 4 8 C3.93396419 10.49435253 3.80666803 12.95097128 3.625 15.4375 C3.574646 16.16670654 3.52429199 16.89591309 3.47241211 17.6472168 C3.32250022 19.76545536 3.16346656 21.88276857 3 24 C2.92652344 24.95648438 2.85304688 25.91296875 2.77734375 26.8984375 C2.23387637 33.00503464 1.17761241 38.98617354 0 45 C-0.33 45 -0.66 45 -1 45 C-0.67 30.15 -0.34 15.3 0 0 Z " fill="#565658" transform="translate(89,59)"/>
<path d="M0 0 C1.98 0 3.96 0 6 0 C7.0625 1.8125 7.0625 1.8125 8 4 C7.67 4.99 7.34 5.98 7 7 C8.65 7 10.3 7 12 7 C12 8.98 12 10.96 12 13 C7.545 13.495 7.545 13.495 3 14 C3 11.36 3 8.72 3 6 C2.01 6 1.02 6 0 6 C0 4.02 0 2.04 0 0 Z " fill="#C2B093" transform="translate(0,61)"/>
<path d="M0 0 C0.33 0 0.66 0 1 0 C1.1391722 7.11131264 0.73492545 14.05382537 0 21.125 C-0.14308594 22.55972656 -0.14308594 22.55972656 -0.2890625 24.0234375 C-0.5216625 26.34943754 -0.75869679 28.67488959 -1 31 C-1.66 31 -2.32 31 -3 31 C-3 32.32 -3 33.64 -3 35 C-7.455 35.495 -7.455 35.495 -12 36 C-11.34 35.195625 -10.68 34.39125 -10 33.5625 C-7.89745486 31.41038085 -7.89745486 31.41038085 -8 30 C-6.35 30 -4.7 30 -3 30 C-3.02610352 29.1020874 -3.02610352 29.1020874 -3.05273438 28.18603516 C-3.15711975 21.76757733 -2.54026978 15.70096488 -1.5 9.375 C-1.28537109 8.01181641 -1.28537109 8.01181641 -1.06640625 6.62109375 C-0.71774111 4.41288117 -0.36221173 2.20602357 0 0 Z " fill="#6E6E6D" transform="translate(86,102)"/>
<path d="M0 0 C2.04262517 0.28487651 4.08407027 0.57822051 6.125 0.875 C7.26195312 1.03742188 8.39890625 1.19984375 9.5703125 1.3671875 C12.86078915 1.97431417 15.85779103 2.86345633 19 4 C19 4.33 19 4.66 19 5 C18.40832031 5.06058594 17.81664063 5.12117187 17.20703125 5.18359375 C13.09021792 5.62012371 9.04455467 6.08671346 5 7 C5 7.66 5 8.32 5 9 C3.35 8.67 1.7 8.34 0 8 C0 5.36 0 2.72 0 0 Z " fill="#ADACA8" transform="translate(48,126)"/>
<path d="M0 0 C-1.32 0.33 -2.64 0.66 -4 1 C-4 2.32 -4 3.64 -4 5 C-5.2375 4.855625 -6.475 4.71125 -7.75 4.5625 C-13.49002931 3.92166738 -19.24293318 3.4578378 -25 3 C-24.67 1.68 -24.34 0.36 -24 -1 C-24 -0.01 -24 0.98 -24 2 C-23.01 1.67 -22.02 1.34 -21 1 C-18.8125 1.4375 -18.8125 1.4375 -17 2 C-17 1.34 -17 0.68 -17 0 C-10.85771362 -2.89048771 -6.25636171 -2.38337589 0 0 Z " fill="#8E8D88" transform="translate(70,133)"/>
<path d="M0 0 C0.66 0 1.32 0 2 0 C2.53259697 6.65746214 0.9584995 12.01304774 -0.9765625 18.3671875 C-2.42716072 23.5162575 -3.2633658 28.7078648 -4 34 C-5.485 34.495 -5.485 34.495 -7 35 C-5.34873235 24.56539376 -3.55655104 14.25700597 -1 4 C-0.80664062 3.22398438 -0.61328125 2.44796875 -0.4140625 1.6484375 C-0.27742188 1.10445313 -0.14078125 0.56046875 0 0 Z " fill="#5E5D5E" transform="translate(120,92)"/>
<path d="M0 0 C8.57142857 -0.28571429 8.57142857 -0.28571429 12 2 C12 3.65 12 5.3 12 7 C6.06 7.495 6.06 7.495 0 8 C0 5.36 0 2.72 0 0 Z " fill="#634E44" transform="translate(0,90)"/>
<path d="M0 0 C0.66 0 1.32 0 2 0 C2.06058594 0.63808594 2.12117187 1.27617188 2.18359375 1.93359375 C2.26738281 2.75988281 2.35117188 3.58617188 2.4375 4.4375 C2.51871094 5.26121094 2.59992188 6.08492188 2.68359375 6.93359375 C2.78930815 8.98662025 2.78930815 8.98662025 4 10 C4.04080783 11.99958364 4.04254356 14.00045254 4 16 C4.66 16 5.32 16 6 16 C6 17.65 6 19.3 6 21 C3.5625 20.625 3.5625 20.625 1 20 C0.67 19.34 0.34 18.68 0 18 C-1.32 18 -2.64 18 -4 18 C-4 16.68 -4 15.36 -4 14 C-2.35 14 -0.7 14 1 14 C0.835 13.175 0.67 12.35 0.5 11.5 C-0.05896045 7.58727683 -0.06807187 3.94816827 0 0 Z " fill="#958D84" transform="translate(154,80)"/>
<path d="M0 0 C4.29 0 8.58 0 13 0 C13.33 1.32 13.66 2.64 14 4 C12 6 12 6 9.1796875 6.1953125 C8.08914063 6.17210938 6.99859375 6.14890625 5.875 6.125 C4.77929688 6.10695313 3.68359375 6.08890625 2.5546875 6.0703125 C1.71164062 6.04710938 0.86859375 6.02390625 0 6 C0 4.02 0 2.04 0 0 Z " fill="#CEC079" transform="translate(0,80)"/>
<path d="M0 0 C2.31 0 4.62 0 7 0 C7 3.96 7 7.92 7 12 C5.02 12.66 3.04 13.32 1 14 C1 12.35 1 10.7 1 9 C0.34 9 -0.32 9 -1 9 C-0.38722388 6.03824877 0.25372522 4.61941217 2 2 C1.34 1.34 0.68 0.68 0 0 Z " fill="#5B694B" transform="translate(153,50)"/>
<path d="M0 0 C0.33 0 0.66 0 1 0 C1 2.31 1 4.62 1 7 C1.68964844 6.855625 2.37929688 6.71125 3.08984375 6.5625 C9.1880192 5.35792213 14.78763445 4.79631588 21 5 C21 5.99 21 6.98 21 8 C19.21142578 8.30744141 19.21142578 8.30744141 17.38671875 8.62109375 C15.82029147 8.89310807 14.25388636 9.16525015 12.6875 9.4375 C11.90181641 9.57220703 11.11613281 9.70691406 10.30664062 9.84570312 C9.54931641 9.97783203 8.79199219 10.10996094 8.01171875 10.24609375 C7.31522217 10.36654053 6.61872559 10.4869873 5.90112305 10.61108398 C3.7904669 11.00335799 3.7904669 11.00335799 1 12 C-0.3271261 8.0186217 -0.06915913 4.14954773 0 0 Z " fill="#9C8C83" transform="translate(20,88)"/>
<path d="M0 0 C0 1.32 0 2.64 0 4 C-2.65918166 4.88639389 -4.48064641 5.17989025 -7.23046875 5.31640625 C-8.03291016 5.35830078 -8.83535156 5.40019531 -9.66210938 5.44335938 C-10.49548828 5.48267578 -11.32886719 5.52199219 -12.1875 5.5625 C-13.03248047 5.60568359 -13.87746094 5.64886719 -14.74804688 5.69335938 C-16.83184433 5.79931518 -18.91590103 5.9001502 -21 6 C-19.68 5.67 -18.36 5.34 -17 5 C-16.67 3.68 -16.34 2.36 -16 1 C-10.63904667 -0.12862175 -5.44693314 -0.09688221 0 0 Z " fill="#C7C8C2" transform="translate(48,59)"/>
<path d="M0 0 C0.33 0.99 0.66 1.98 1 3 C1.66 3 2.32 3 3 3 C3.33 4.32 3.66 5.64 4 7 C5.65 6.67 7.3 6.34 9 6 C9 9.3 9 12.6 9 16 C7.02 16 5.04 16 3 16 C3.33 13.69 3.66 11.38 4 9 C2.02 9.33 0.04 9.66 -2 10 C-2 9.34 -2 8.68 -2 8 C-1.01 8 -0.02 8 1 8 C0.34 7.01 -0.32 6.02 -1 5 C-0.625 2.3125 -0.625 2.3125 0 0 Z " fill="#878A7C" transform="translate(151,56)"/>
<path d="M0 0 C-0.33 2.64 -0.66 5.28 -1 8 C-1.68707031 7.9278125 -2.37414063 7.855625 -3.08203125 7.78125 C-3.98308594 7.6884375 -4.88414063 7.595625 -5.8125 7.5 C-6.70582031 7.4071875 -7.59914063 7.314375 -8.51953125 7.21875 C-11.08305099 6.95607599 -11.08305099 6.95607599 -14 7 C-14 5.68 -14 4.36 -14 3 C-12.0424015 2.49713066 -10.08389623 1.9977901 -8.125 1.5 C-7.03445312 1.2215625 -5.94390625 0.943125 -4.8203125 0.65625 C-2 0 -2 0 0 0 Z " fill="#C4C3BE" transform="translate(14,146)"/>
<path d="M0 0 C-0.66 0 -1.32 0 -2 0 C-2 4.95 -2 9.9 -2 15 C-2.66 15 -3.32 15 -4 15 C-4 13.68 -4 12.36 -4 11 C-4.886875 10.87625 -5.77375 10.7525 -6.6875 10.625 C-9.70387502 10.05587264 -12.20326054 9.23385564 -15 8 C-10.95821645 6.65273882 -8.96013719 7.67995427 -5 9 C-4.67 6.36 -4.34 3.72 -4 1 C-4.84304688 1.2165625 -5.68609375 1.433125 -6.5546875 1.65625 C-8.19824219 2.07390625 -8.19824219 2.07390625 -9.875 2.5 C-10.96554688 2.7784375 -12.05609375 3.056875 -13.1796875 3.34375 C-16 4 -16 4 -18 4 C-18 3.34 -18 2.68 -18 2 C-15.75256955 1.46818825 -13.50192898 0.94992874 -11.25 0.4375 C-9.99703125 0.14746094 -8.7440625 -0.14257812 -7.453125 -0.44140625 C-4.40526252 -0.93444283 -2.82358172 -1.07666879 0 0 Z " fill="#D5D4CF" transform="translate(18,145)"/>
<path d="M0 0 C1.134375 0.020625 2.26875 0.04125 3.4375 0.0625 C3.4375 2.0425 3.4375 4.0225 3.4375 6.0625 C2.4475 6.3925 1.4575 6.7225 0.4375 7.0625 C0.4375 7.7225 0.4375 8.3825 0.4375 9.0625 C3.9025 8.5675 3.9025 8.5675 7.4375 8.0625 C7.4375 8.7225 7.4375 9.3825 7.4375 10.0625 C6.4475 10.0625 5.4575 10.0625 4.4375 10.0625 C4.1075 10.7225 3.7775 11.3825 3.4375 12.0625 C2.1175 11.4025 0.7975 10.7425 -0.5625 10.0625 C-0.5625 9.4025 -0.5625 8.7425 -0.5625 8.0625 C-2.5425 9.0525 -2.5425 9.0525 -4.5625 10.0625 C-4.58939216 8.58343108 -4.60884621 7.10422517 -4.625 5.625 C-4.63660156 4.80128906 -4.64820313 3.97757812 -4.66015625 3.12890625 C-4.49001835 -0.47121162 -3.73687179 0.06555915 0 0 Z " fill="#D0D2CB" transform="translate(148.5625,68.9375)"/>
<path d="M0 0 C1.65 0 3.3 0 5 0 C5 0.66 5 1.32 5 2 C8.62528568 2.20140476 10.86501708 1.85776765 14 0 C14.33 1.32 14.66 2.64 15 4 C16.43725871 4.16873478 17.87481838 4.33490737 19.3125 4.5 C20.51326172 4.63921875 20.51326172 4.63921875 21.73828125 4.78125 C24.11896555 5.04813463 24.11896555 5.04813463 27 5 C27.33 6.32 27.66 7.64 28 9 C20.125 8.125 20.125 8.125 19 7 C17.4840625 6.814375 17.4840625 6.814375 15.9375 6.625 C10.23950486 5.72055633 5.0741349 3.74848974 0 1 C0 0.67 0 0.34 0 0 Z " fill="#898889" transform="translate(43,88)"/>
<path d="M0 0 C0 2.31 0 4.62 0 7 C-4.95 6.01 -9.9 5.02 -15 4 C-15 3.34 -15 2.68 -15 2 C-13.2508503 1.66223316 -11.50063855 1.32996329 -9.75 1 C-8.77546875 0.814375 -7.8009375 0.62875 -6.796875 0.4375 C-4 0 -4 0 0 0 Z " fill="#B5B4B1" transform="translate(108,129)"/>
<path d="M0 0 C4.29 0.33 8.58 0.66 13 1 C12.34 3.97 11.68 6.94 11 10 C8.36 10.33 5.72 10.66 3 11 C3.99 10.34 4.98 9.68 6 9 C7.20450304 6.44816596 7.20450304 6.44816596 8 4 C8.99 4 9.98 4 11 4 C11 3.34 11 2.68 11 2 C10.46890625 2.16371094 9.9378125 2.32742187 9.390625 2.49609375 C6.46123236 3.11356377 3.74177064 3.09501925 0.75 3.0625 C-0.32765625 3.05347656 -1.4053125 3.04445312 -2.515625 3.03515625 C-3.33546875 3.02355469 -4.1553125 3.01195312 -5 3 C-5 2.67 -5 2.34 -5 2 C-3.35 1.67 -1.7 1.34 0 1 C0 0.67 0 0.34 0 0 Z " fill="#C9C7BA" transform="translate(13,55)"/>
<path d="M0 0 C2 1 2 1 2.609375 2.76953125 C3.8558884 9.88712279 3.56509142 17.55936159 0 24 C-0.99 24.33 -1.98 24.66 -3 25 C-2.68289062 24.38769531 -2.36578125 23.77539062 -2.0390625 23.14453125 C-0.56599636 18.68656794 -0.53334142 14.355273 -0.375 9.6875 C-0.33632812 8.75615234 -0.29765625 7.82480469 -0.2578125 6.86523438 C-0.16393687 4.57701593 -0.07825491 2.28879705 0 0 Z " fill="#424040" transform="translate(74,76)"/>
<path d="M0 0 C2.33944736 0.28730055 4.6739143 0.61936779 7 1 C7 1.99 7 2.98 7 4 C4.77149723 4.33774332 2.54216533 4.6700187 0.3125 5 C-1.54955078 5.2784375 -1.54955078 5.2784375 -3.44921875 5.5625 C-6.35886371 5.92100411 -9.07700022 6.08942256 -12 6 C-12 5.01 -12 4.02 -12 3 C-10.82630859 2.80083984 -10.82630859 2.80083984 -9.62890625 2.59765625 C-8.61699219 2.42105469 -7.60507812 2.24445313 -6.5625 2.0625 C-5.55316406 1.88847656 -4.54382813 1.71445313 -3.50390625 1.53515625 C-1.0712562 1.25248903 -1.0712562 1.25248903 0 0 Z " fill="#C3BAB2" transform="translate(33,106)"/>
<path d="M0 0 C0.66 0 1.32 0 2 0 C2 3.3 2 6.6 2 10 C-1.96 10 -5.92 10 -10 10 C-10 8.68 -10 7.36 -10 6 C-6.7 6 -3.4 6 0 6 C0 4.02 0 2.04 0 0 Z " fill="#D2CECB" transform="translate(47,0)"/>
<path d="M0 0 C0 0.66 0 1.32 0 2 C2.31 2 4.62 2 7 2 C7.33 3.32 7.66 4.64 8 6 C4.04 6.66 0.08 7.32 -4 8 C-3.67 6.35 -3.34 4.7 -3 3 C-4.32 2.34 -5.64 1.68 -7 1 C-2.25 0 -2.25 0 0 0 Z " fill="#E8E6D6" transform="translate(16,78)"/>
<path d="M0 0 C0.66 0.33 1.32 0.66 2 1 C2.59355614 3.64860427 2.74209269 6.29197322 3 9 C2.01 9 1.02 9 0 9 C0 10.65 0 12.3 0 14 C0.99 13.67 1.98 13.34 3 13 C4.20272819 15.40545638 4.10071472 16.94996953 4.0625 19.625 C4.05347656 20.44226563 4.04445313 21.25953125 4.03515625 22.1015625 C4.02355469 22.72804688 4.01195312 23.35453125 4 24 C3.01 24 2.02 24 1 24 C-1.44095909 15.81560775 -0.81873222 8.39753719 0 0 Z " fill="#585758" transform="translate(41,96)"/>
<path d="M0 0 C2.64 0.33 5.28 0.66 8 1 C8 4.3 8 7.6 8 11 C7.01 11 6.02 11 5 11 C4.731875 10.030625 4.46375 9.06125 4.1875 8.0625 C3.795625 7.051875 3.40375 6.04125 3 5 C2.01 4.67 1.02 4.34 0 4 C0 2.68 0 1.36 0 0 Z " fill="#A39A94" transform="translate(65,81)"/>
<path d="M0 0 C1.32 0 2.64 0 4 0 C4 0.99 4 1.98 4 3 C3.67 3.33 3.34 3.66 3 4 C2.835 4.825 2.67 5.65 2.5 6.5 C2 9 2 9 1 10 C2.65 10.33 4.3 10.66 6 11 C6 11.33 6 11.66 6 12 C-0.75 12.125 -0.75 12.125 -3 11 C-2.69217504 9.35328588 -2.37860766 7.70764424 -2.0625 6.0625 C-1.88847656 5.14597656 -1.71445313 4.22945313 -1.53515625 3.28515625 C-1 1 -1 1 0 0 Z " fill="#B5A89F" transform="translate(124,92)"/>
<path d="M0 0 C0.99 0 1.98 0 3 0 C2.67 1.32 2.34 2.64 2 4 C3.98 4 5.96 4 8 4 C7.01 4.495 7.01 4.495 6 5 C6 5.66 6 6.32 6 7 C6.66 7.33 7.32 7.66 8 8 C8 8.66 8 9.32 8 10 C7.01 10.495 7.01 10.495 6 11 C5.67 11.99 5.34 12.98 5 14 C1.71023192 15.09658936 0.28696233 14.79953138 -3 14 C-2.67 13.34 -2.34 12.68 -2 12 C-0.35 12.33 1.3 12.66 3 13 C2.814375 12.05125 2.62875 11.1025 2.4375 10.125 C2 7 2 7 3 5 C2.01 4.67 1.02 4.34 0 4 C-0.33 3.01 -0.66 2.02 -1 1 C-0.67 0.67 -0.34 0.34 0 0 Z " fill="#717C5E" transform="translate(149,29)"/>
<path d="M0 0 C3.37462715 0.54723683 5.08235 1.0549 8 3 C8.40843923 5.71203652 8.13336867 8.2437142 8 11 C7.01 10.67 6.02 10.34 5 10 C5 9.34 5 8.68 5 8 C4.01 7.67 3.02 7.34 2 7 C2.33 6.34 2.66 5.68 3 5 C1.68 4.67 0.36 4.34 -1 4 C-0.67 2.68 -0.34 1.36 0 0 Z " fill="#506139" transform="translate(152,29)"/>
<path d="M0 0 C1.21816406 0.03480469 1.21816406 0.03480469 2.4609375 0.0703125 C3.68683594 0.09738281 3.68683594 0.09738281 4.9375 0.125 C5.87722656 0.15980469 5.87722656 0.15980469 6.8359375 0.1953125 C7.4959375 1.5153125 8.1559375 2.8353125 8.8359375 4.1953125 C6.8559375 4.5253125 4.8759375 4.8553125 2.8359375 5.1953125 C2.8359375 4.5353125 2.8359375 3.8753125 2.8359375 3.1953125 C2.1346875 3.5459375 1.4334375 3.8965625 0.7109375 4.2578125 C-2.66674836 5.3592318 -4.74486843 4.99047391 -8.1640625 4.1953125 C-7.5453125 3.9065625 -6.9265625 3.6178125 -6.2890625 3.3203125 C-0.02092904 0.0018889 -0.02092904 0.0018889 0 0 Z " fill="#ACABA6" transform="translate(97.1640625,140.8046875)"/>
<path d="M0 0 C0.99 0 1.98 0 3 0 C3 5.61 3 11.22 3 17 C2.34 17 1.68 17 1 17 C-0.18681726 13.43954823 -0.09689832 10.56191663 -0.0625 6.8125 C-0.05347656 5.54019531 -0.04445313 4.26789063 -0.03515625 2.95703125 C-0.02355469 1.98121094 -0.01195312 1.00539063 0 0 Z " fill="#B0A49C" transform="translate(15,89)"/>
<path d="M0 0 C0.99 0 1.98 0 3 0 C4.125 3.75 4.125 3.75 3 6 C4.65 6.33 6.3 6.66 8 7 C8 7.66 8 8.32 8 9 C5.36 9 2.72 9 0 9 C-0.33 8.34 -0.66 7.68 -1 7 C-0.67 6.01 -0.34 5.02 0 4 C-1.65 4.33 -3.3 4.66 -5 5 C-3.625 3.5 -3.625 3.5 -2 2 C-1.34 2 -0.68 2 0 2 C0 1.34 0 0.68 0 0 Z " fill="#AFB2A7" transform="translate(152,65)"/>
<path d="M0 0 C0.99 0.33 1.98 0.66 3 1 C2.01 1.495 2.01 1.495 1 2 C1.061875 3.175625 1.061875 3.175625 1.125 4.375 C1 7 1 7 -1 9 C-4.80769231 12 -4.80769231 12 -6 12 C-6 9.03 -6 6.06 -6 3 C-5.01 3 -4.02 3 -3 3 C-3 3.99 -3 4.98 -3 6 C-2.34 6 -1.68 6 -1 6 C-0.67 4.02 -0.34 2.04 0 0 Z " fill="#C3C2BD" transform="translate(22,142)"/>
<path d="M0 0 C2.97 0 5.94 0 9 0 C9 1.65 9 3.3 9 5 C6.03 5 3.06 5 0 5 C0 3.35 0 1.7 0 0 Z " fill="#888481" transform="translate(38,0)"/>
<path d="M0 0 C5.94 1.485 5.94 1.485 12 3 C12 3.33 12 3.66 12 4 C9.36 3.67 6.72 3.34 4 3 C4 5.97 4 8.94 4 12 C3.34 12 2.68 12 2 12 C0.64851459 7.69214025 0 4.58042408 0 0 Z " fill="#373635" transform="translate(44,123)"/>
<path d="M0 0 C3.96 0 7.92 0 12 0 C11.67 2.64 11.34 5.28 11 8 C10.01 8 9.02 8 8 8 C8 6.68 8 5.36 8 4 C6.68 3.67 5.36 3.34 4 3 C4.33 2.34 4.66 1.68 5 1 C3.35 1 1.7 1 0 1 C0 0.67 0 0.34 0 0 Z " fill="#A29F95" transform="translate(40,55)"/>
<path d="M0 0 C0.90105469 0.01804688 1.80210938 0.03609375 2.73046875 0.0546875 C3.41753906 0.07789063 4.10460937 0.10109375 4.8125 0.125 C4.1525 1.775 3.4925 3.425 2.8125 5.125 C1.74 4.96 0.6675 4.795 -0.4375 4.625 C-4.21778752 4.03689085 -4.21778752 4.03689085 -8.1875 4.125 C-8.1875 3.465 -8.1875 2.805 -8.1875 2.125 C-4.87379 -0.08414 -3.8428979 -0.09981553 0 0 Z " fill="#B9B8B3" transform="translate(67.1875,141.875)"/>
<path d="M0 0 C3 1 3 1 3 1 Z M0 2 C-2.75566251 4.75566251 -5.21539633 4.45934233 -9 5 C-9.66 5.66 -10.32 6.32 -11 7 C-13.68839385 7.26991906 -16.29141936 7.08737357 -19 7 C-18.34 6.67 -17.68 6.34 -17 6 C-17 5.34 -17 4.68 -17 4 C-14.54316882 3.47097431 -12.08497874 2.95149191 -9.625 2.4375 C-8.92632812 2.28603516 -8.22765625 2.13457031 -7.5078125 1.97851562 C-2.2265625 0.88671875 -2.2265625 0.88671875 0 2 Z " fill="#A09E99" transform="translate(104,137)"/>
<path d="M0 0 C4.62 0 9.24 0 14 0 C14 0.99 14 1.98 14 3 C9.38 3 4.76 3 0 3 C0 2.01 0 1.02 0 0 Z " fill="#393937" transform="translate(0,44)"/>
<path d="M0 0 C0 2.64 0 5.28 0 8 C-0.99 8 -1.98 8 -3 8 C-3 7.34 -3 6.68 -3 6 C-3.99 6 -4.98 6 -6 6 C-6.33 4.35 -6.66 2.7 -7 1 C-4.50935112 0.31292445 -2.62113708 0 0 0 Z " fill="#71774E" transform="translate(160,6)"/>
<path d="M0 0 C6.875 0.875 6.875 0.875 8 2 C9.11375 2.103125 10.2275 2.20625 11.375 2.3125 C15 3 15 3 16.9375 5.0625 C17.288125 5.701875 17.63875 6.34125 18 7 C16.56138706 6.91253716 15.12402492 6.80434652 13.6875 6.6875 C12.88699219 6.62949219 12.08648437 6.57148437 11.26171875 6.51171875 C8.58887752 5.90698265 7.81866788 4.98032725 6 3 C2.89992799 1.79950593 2.89992799 1.79950593 0 1 C0 0.67 0 0.34 0 0 Z " fill="#5B5B5E" transform="translate(47,91)"/>
<path d="M0 0 C4.75 0.75 4.75 0.75 7 3 C4.62734939 3.67617524 2.25244645 4.34108226 -0.125 5 C-0.79015625 5.19078125 -1.4553125 5.3815625 -2.140625 5.578125 C-6.1986205 6.69208455 -9.79685974 7.20950232 -14 7 C-10.8377726 5.26830404 -7.73257278 4.2871024 -4.25 3.375 C-3.26515625 3.11460937 -2.2803125 2.85421875 -1.265625 2.5859375 C-0.14414063 2.29589844 -0.14414063 2.29589844 1 2 C0.67 1.34 0.34 0.68 0 0 Z " fill="#8E8C87" transform="translate(101,134)"/>
<path d="M0 0 C0.66 0 1.32 0 2 0 C2.06058594 0.63808594 2.12117187 1.27617188 2.18359375 1.93359375 C2.26738281 2.75988281 2.35117188 3.58617188 2.4375 4.4375 C2.51871094 5.26121094 2.59992188 6.08492188 2.68359375 6.93359375 C2.78930815 8.98662025 2.78930815 8.98662025 4 10 C4.04063832 11.66617115 4.042721 13.33388095 4 15 C0.71023192 16.09658936 -0.71303767 15.79953138 -4 15 C-4 14.67 -4 14.34 -4 14 C-2.35 14 -0.7 14 1 14 C0.835 13.175 0.67 12.35 0.5 11.5 C-0.05896045 7.58727683 -0.06807187 3.94816827 0 0 Z " fill="#8A8681" transform="translate(154,80)"/>
<path d="M0 0 C2.64 0.33 5.28 0.66 8 1 C7.01 1.66 6.02 2.32 5 3 C5.66 4.32 6.32 5.64 7 7 C4.69 7 2.38 7 0 7 C0 4.69 0 2.38 0 0 Z " fill="#BAB9B4" transform="translate(0,153)"/>
<path d="M0 0 C2.97 0 5.94 0 9 0 C9 0.99 9 1.98 9 3 C2.565 3.495 2.565 3.495 -4 4 C-4 3.34 -4 2.68 -4 2 C-2.68 2 -1.36 2 0 2 C0 1.34 0 0.68 0 0 Z " fill="#A4948B" transform="translate(32,93)"/>
<path d="M0 0 C0.99 0.33 1.98 0.66 3 1 C3 1.66 3 2.32 3 3 C4.32 3.33 5.64 3.66 7 4 C7 4.99 7 5.98 7 7 C4.69 7.33 2.38 7.66 0 8 C0 5.36 0 2.72 0 0 Z " fill="#D9994B" transform="translate(4,65)"/>
<path d="M0 0 C0.66 0 1.32 0 2 0 C2.22281874 1.91503674 2.42771076 3.83216506 2.625 5.75 C2.74101562 6.81734375 2.85703125 7.8846875 2.9765625 8.984375 C3.00029475 12.03792399 2.61420985 13.46162421 1 16 C-0.65 16 -2.3 16 -4 16 C-4 15.34 -4 14.68 -4 14 C-2.68 14 -1.36 14 0 14 C0 9.38 0 4.76 0 0 Z " fill="#C6C2C1" transform="translate(20,0)"/>
<path d="M0 0 C0.33 0.99 0.66 1.98 1 3 C1.99 2.67 2.98 2.34 4 2 C6.1875 2.4375 6.1875 2.4375 8 3 C8 2.34 8 1.68 8 1 C11.63 1 15.26 1 19 1 C18.67 1.66 18.34 2.32 18 3 C12.17592235 4.57407504 5.98360949 4.08713994 0 4 C0 2.68 0 1.36 0 0 Z " fill="#868580" transform="translate(45,132)"/>
<path d="M0 0 C0.90105469 0.00902344 1.80210938 0.01804687 2.73046875 0.02734375 C3.41753906 0.03894531 4.10460938 0.05054687 4.8125 0.0625 C4.8125 0.7225 4.8125 1.3825 4.8125 2.0625 C3.20908445 2.39942785 1.60473445 2.73191093 0 3.0625 C-0.89332031 3.248125 -1.78664063 3.43375 -2.70703125 3.625 C-5.1875 4.0625 -5.1875 4.0625 -8.1875 4.0625 C-8.1875 3.0725 -8.1875 2.0825 -8.1875 1.0625 C-5.17259443 0.05753148 -3.14568308 -0.04085303 0 0 Z " fill="#7B6B60" transform="translate(29.1875,86.9375)"/>
<path d="M0 0 C1.98 0 3.96 0 6 0 C6 0.66 6 1.32 6 2 C8.31 2 10.62 2 13 2 C13 2.99 13 3.98 13 5 C8.71 4.67 4.42 4.34 0 4 C0 2.68 0 1.36 0 0 Z " fill="#D2CFC1" transform="translate(0,86)"/>
<path d="M0 0 C2.0625 0.4375 2.0625 0.4375 4 1 C3.34 1 2.68 1 2 1 C2 5.62 2 10.24 2 15 C1.01 14.34 0.02 13.68 -1 13 C-1.328125 10.21484375 -1.328125 10.21484375 -1.25 6.9375 C-1.23453125 5.85339844 -1.2190625 4.76929688 -1.203125 3.65234375 C-1 1 -1 1 0 0 Z " fill="#3F3E3F" transform="translate(71,55)"/>
<path d="M0 0 C1.65 0 3.3 0 5 0 C5 1.65 5 3.3 5 5 C5.99 5.33 6.98 5.66 8 6 C6.02 6.99 4.04 7.98 2 9 C2 7.35 2 5.7 2 4 C1.34 4 0.68 4 0 4 C0 2.68 0 1.36 0 0 Z " fill="#DBDAD5" transform="translate(16,113)"/>
<path d="M0 0 C2.3125 1.5 2.3125 1.5 4 3 C1.69 3 -0.62 3 -3 3 C-3 3.66 -3 4.32 -3 5 C-4.32 5 -5.64 5 -7 5 C-7 4.01 -7 3.02 -7 2 C-7.66 1.67 -8.32 1.34 -9 1 C-5.91365356 0.08552698 -3.21544159 -0.32154416 0 0 Z " fill="#67605D" transform="translate(43,88)"/>
<path d="M0 0 C0 0.66 0 1.32 0 2 C-0.93972656 2.19916016 -0.93972656 2.19916016 -1.8984375 2.40234375 C-3.12433594 2.66724609 -3.12433594 2.66724609 -4.375 2.9375 C-5.18710938 3.11152344 -5.99921875 3.28554687 -6.8359375 3.46484375 C-9.029463 3.92330693 -9.029463 3.92330693 -11 5 C-11.66 4.67 -12.32 4.34 -13 4 C-13 3.34 -13 2.68 -13 2 C-8.49646738 0.24252386 -4.82360189 -0.19294408 0 0 Z " fill="#ABA097" transform="translate(122,144)"/>
<path d="M0 0 C0.33 0.66 0.66 1.32 1 2 C2.65 2 4.3 2 6 2 C5.34 3.32 4.68 4.64 4 6 C2.68 6 1.36 6 0 6 C0 7.65 0 9.3 0 11 C-1.32 10.67 -2.64 10.34 -4 10 C-3.01 10 -2.02 10 -1 10 C-0.67 6.7 -0.34 3.4 0 0 Z " fill="#696662" transform="translate(87,132)"/>
<path d="M0 0 C-2.90527612 2.90527612 -6.21099025 2.71264319 -10.125 3.125 C-10.87910156 3.21136719 -11.63320312 3.29773438 -12.41015625 3.38671875 C-14.27257127 3.59889261 -16.13618931 3.80045763 -18 4 C-18 3.34 -18 2.68 -18 2 C-11.92972642 -0.1583195 -6.40629424 -0.20852314 0 0 Z " fill="#646464" transform="translate(106,128)"/>
<path d="M0 0 C2.125 0.375 2.125 0.375 4 1 C4 2.65 4 4.3 4 6 C4.66 6.33 5.32 6.66 6 7 C3.69 6.67 1.38 6.34 -1 6 C-1.625 4.125 -1.625 4.125 -2 2 C-1.34 1.34 -0.68 0.68 0 0 Z " fill="#5A5A58" transform="translate(59,86)"/>
<path d="M0 0 C-0.33 3.3 -0.66 6.6 -1 10 C-1.99 10 -2.98 10 -4 10 C-4 7.03 -4 4.06 -4 1 C-2 0 -2 0 0 0 Z " fill="#34312D" transform="translate(87,132)"/>
<path d="M0 0 C8.91 1.485 8.91 1.485 18 3 C18 3.33 18 3.66 18 4 C13.545 4.495 13.545 4.495 9 5 C9 4.34 9 3.68 9 3 C7.88625 3.061875 6.7725 3.12375 5.625 3.1875 C4.42875 3.125625 3.2325 3.06375 2 3 C1.34 2.01 0.68 1.02 0 0 Z " fill="#ABABA4" transform="translate(63,139)"/>
<path d="M0 0 C2.97 0.33 5.94 0.66 9 1 C9 1.66 9 2.32 9 3 C6.03 3.66 3.06 4.32 0 5 C0 3.35 0 1.7 0 0 Z " fill="#CAC9C5" transform="translate(49,127)"/>
<path d="M0 0 C0.99 0.33 1.98 0.66 3 1 C1.68 1.33 0.36 1.66 -1 2 C-1 2.99 -1 3.98 -1 5 C-2.98 5.33 -4.96 5.66 -7 6 C-7 4.68 -7 3.36 -7 2 C-9.31 2 -11.62 2 -14 2 C-14 1.67 -14 1.34 -14 1 C-11.36 1 -8.72 1 -6 1 C-6 1.99 -6 2.98 -6 4 C-4.68 3.67 -3.36 3.34 -2 3 C-2 2.34 -2 1.68 -2 1 C-1.34 0.67 -0.68 0.34 0 0 Z " fill="#B0ABA6" transform="translate(59,83)"/>
<path d="M0 0 C1.33981486 0.3062434 2.67511887 0.63451555 4 1 C4 1.99 4 2.98 4 4 C2.88625 3.95875 1.7725 3.9175 0.625 3.875 C-3.04366025 3.58878141 -3.04366025 3.58878141 -5 6 C-5.33 5.01 -5.66 4.02 -6 3 C-3.375 0 -3.375 0 0 0 Z " fill="#BFBDB9" transform="translate(69,78)"/>
<path d="M0 0 C0 0.99 0 1.98 0 3 C1.65 3 3.3 3 5 3 C5 3.33 5 3.66 5 4 C3.865625 4.28875 2.73125 4.5775 1.5625 4.875 C0.386875 5.24625 -0.78875 5.6175 -2 6 C-2.33 6.66 -2.66 7.32 -3 8 C-3.66 8 -4.32 8 -5 8 C-4.74438677 5.6568787 -4.40729228 3.32156597 -4 1 C-2 0 -2 0 0 0 Z " fill="#50563F" transform="translate(154,43)"/>
<path d="M0 0 C0.66 0 1.32 0 2 0 C2.25 7.625 2.25 7.625 0 11 C-0.99 11.495 -0.99 11.495 -2 12 C-1 3.42857143 -1 3.42857143 0 0 Z " fill="#646161" transform="translate(120,92)"/>
<path d="M0 0 C0.66 0 1.32 0 2 0 C2.33 1.32 2.66 2.64 3 4 C4.32 4.33 5.64 4.66 7 5 C7 5.66 7 6.32 7 7 C5.02 7.66 3.04 8.32 1 9 C1 7.35 1 5.7 1 4 C0.34 4 -0.32 4 -1 4 C-0.67 2.68 -0.34 1.36 0 0 Z " fill="#48533A" transform="translate(153,55)"/>
<path d="M0 0 C1.4540625 0.0309375 1.4540625 0.0309375 2.9375 0.0625 C1.6175 0.3925 0.2975 0.7225 -1.0625 1.0625 C-0.835625 1.660625 -0.60875 2.25875 -0.375 2.875 C-0.271875 3.596875 -0.16875 4.31875 -0.0625 5.0625 C-1.5 6.8125 -1.5 6.8125 -3.0625 8.0625 C-3.0625 7.4025 -3.0625 6.7425 -3.0625 6.0625 C-4.0525 6.0625 -5.0425 6.0625 -6.0625 6.0625 C-3.76028481 0.07674051 -3.76028481 0.07674051 0 0 Z " fill="#A7AC9C" transform="translate(156.0625,46.9375)"/>
<path d="M0 0 C3.63 0 7.26 0 11 0 C11 0.66 11 1.32 11 2 C8.69 2 6.38 2 4 2 C4.33 2.66 4.66 3.32 5 4 C3.35 4 1.7 4 0 4 C0 2.68 0 1.36 0 0 Z " fill="#757472" transform="translate(4,0)"/>
<path d="M0 0 C3.63 0 7.26 0 11 0 C11 0.99 11 1.98 11 3 C9.35333797 2.8864371 7.70763918 2.75882619 6.0625 2.625 C5.14597656 2.55539063 4.22945313 2.48578125 3.28515625 2.4140625 C2.15400391 2.20910156 2.15400391 2.20910156 1 2 C0.67 1.34 0.34 0.68 0 0 Z " fill="#8C8C84" transform="translate(69,139)"/>
<path d="M0 0 C0.99 0 1.98 0 3 0 C3 2.97 3 5.94 3 9 C2.01 9 1.02 9 0 9 C0 6.03 0 3.06 0 0 Z " fill="#242320" transform="translate(108,128)"/>
<path d="M0 0 C-0.33 0.99 -0.66 1.98 -1 3 C-4.63 3 -8.26 3 -12 3 C-11.67 2.34 -11.34 1.68 -11 1 C-7.29882394 0.15882362 -3.78728969 -0.11139087 0 0 Z " fill="#7B7970" transform="translate(45,56)"/>
<path d="M0 0 C0.66 0 1.32 0 2 0 C2 1.98 2 3.96 2 6 C0.35 6 -1.3 6 -3 6 C-3 5.34 -3 4.68 -3 4 C-4.32 3.67 -5.64 3.34 -7 3 C-3.86650268 1.95550089 -3.01031744 2.06576355 0 3 C0 2.01 0 1.02 0 0 Z " fill="#8D927E" transform="translate(158,22)"/>
<path d="M0 0 C1.0725 0.2475 2.145 0.495 3.25 0.75 C3.25 1.74 3.25 2.73 3.25 3.75 C-0.38 3.75 -4.01 3.75 -7.75 3.75 C-5.15187156 0.32047046 -4.43092205 -0.2953948 0 0 Z " fill="#999896" transform="translate(11.75,1.25)"/>
<path d="M0 0 C0.66 0.33 1.32 0.66 2 1 C2.59355614 3.64860427 2.74209269 6.29197322 3 9 C2.01 9 1.02 9 0 9 C0 10.98 0 12.96 0 15 C-0.33 15 -0.66 15 -1 15 C-0.67 10.05 -0.34 5.1 0 0 Z " fill="#777472" transform="translate(41,96)"/>
<path d="M0 0 C6.0546875 -0.1953125 6.0546875 -0.1953125 8 0 C8.66 0.66 9.32 1.32 10 2 C6.78548731 3.60725635 3.56387464 3.05748185 0 3 C0 2.01 0 1.02 0 0 Z " fill="#756359" transform="translate(0,90)"/>
<path d="M0 0 C0.33 0.66 0.66 1.32 1 2 C1.99 2.33 2.98 2.66 4 3 C0.04340734 4.31886422 -2.82339427 4.26518132 -7 4 C-7.66 3.01 -8.32 2.02 -9 1 C-4.545 0.505 -4.545 0.505 0 0 Z " fill="#A5A5A6" transform="translate(115,51)"/>
<path d="M0 0 C2.9375 0.8125 2.9375 0.8125 6 2 C6.33 2.99 6.66 3.98 7 5 C6.34 5 5.68 5 5 5 C5 5.66 5 6.32 5 7 C4.01 7 3.02 7 2 7 C2.33 5.35 2.66 3.7 3 2 C1.35 2 -0.3 2 -2 2 C-1.34 1.34 -0.68 0.68 0 0 Z " fill="#D7DACE" transform="translate(150,13)"/>
<path d="M0 0 C0.66 0 1.32 0 2 0 C2.33 2.64 2.66 5.28 3 8 C1.02 8.99 1.02 8.99 -1 10 C-1.02689216 8.52093108 -1.04634621 7.04172517 -1.0625 5.5625 C-1.07410156 4.73878906 -1.08570313 3.91507812 -1.09765625 3.06640625 C-1 1 -1 1 0 0 Z " fill="#C8C7C5" transform="translate(145,69)"/>
<path d="M0 0 C0 0.99 0 1.98 0 3 C-7.42857143 3.28571429 -7.42857143 3.28571429 -11 1 C-3.57142857 -1.42857143 -3.57142857 -1.42857143 0 0 Z " fill="#434241" transform="translate(83,129)"/>
<path d="M0 0 C0.99 0 1.98 0 3 0 C3 3.63 3 7.26 3 11 C2.34 11 1.68 11 1 11 C0.67 7.37 0.34 3.74 0 0 Z " fill="#9F9D98" transform="translate(157,85)"/>
<path d="M0 0 C2.31 0 4.62 0 7 0 C6.01 1.485 6.01 1.485 5 3 C4.34 3 3.68 3 3 3 C3 3.66 3 4.32 3 5 C2.01 5 1.02 5 0 5 C0 3.35 0 1.7 0 0 Z " fill="#B4B4B1" transform="translate(0,47)"/>
<path d="M0 0 C2.475 0.495 2.475 0.495 5 1 C5 1.66 5 2.32 5 3 C6.65 3 8.3 3 10 3 C9.67 4.32 9.34 5.64 9 7 C8.01 6.34 7.02 5.68 6 5 C4.34450469 4.61500109 2.6777567 4.27206865 1 4 C0.67 2.68 0.34 1.36 0 0 Z " fill="#C6CDBF" transform="translate(150,25)"/>
<path d="M0 0 C0.33 0 0.66 0 1 0 C1.44539877 8.7595092 1.44539877 8.7595092 -2 13 C-2.66 13 -3.32 13 -4 13 C-3.71125 12.34 -3.4225 11.68 -3.125 11 C-1.76562701 7.37500535 -0.89375361 3.76653307 0 0 Z " fill="#343335" transform="translate(75,88)"/>
<path d="M0 0 C1.2684375 0.12375 1.2684375 0.12375 2.5625 0.25 C3.2225 1.24 3.8825 2.23 4.5625 3.25 C1.9225 3.58 -0.7175 3.91 -3.4375 4.25 C-3.4375 0.3525641 -3.4375 0.3525641 0 0 Z " fill="#C8C7BD" transform="translate(69.4375,152.75)"/>
<path d="M0 0 C1.32 0 2.64 0 4 0 C3.67 1.65 3.34 3.3 3 5 C1.35 4.67 -0.3 4.34 -2 4 C-1.34 2.68 -0.68 1.36 0 0 Z " fill="#ABAAA5" transform="translate(107,138)"/>
<path d="M0 0 C0.33 0 0.66 0 1 0 C0.67 2.31 0.34 4.62 0 7 C0.66 7.33 1.32 7.66 2 8 C1.01 8.33 0.02 8.66 -1 9 C-0.67 9.99 -0.34 10.98 0 12 C-0.66 12 -1.32 12 -2 12 C-1.85904936 10.3745692 -1.71207913 8.74965949 -1.5625 7.125 C-1.48128906 6.22007813 -1.40007812 5.31515625 -1.31640625 4.3828125 C-1 2 -1 2 0 0 Z " fill="#D5D5D2" transform="translate(118,116)"/>
<path d="M0 0 C0.33 0.99 0.66 1.98 1 3 C1.66 3 2.32 3 3 3 C3 4.98 3 6.96 3 9 C2.01 9 1.02 9 0 9 C0 6.03 0 3.06 0 0 Z " fill="#C2B9B2" transform="translate(15,103)"/>
<path d="M0 0 C3.94727588 -0.17942163 6.5980513 -0.09350689 10 2 C10.33 1.34 10.66 0.68 11 0 C10.67 1.32 10.34 2.64 10 4 C8.51882199 3.71872579 7.04006751 3.42466268 5.5625 3.125 C4.73878906 2.96257812 3.91507812 2.80015625 3.06640625 2.6328125 C2.38449219 2.42398438 1.70257812 2.21515625 1 2 C0.67 1.34 0.34 0.68 0 0 Z " fill="#CFCEC9" transform="translate(3,152)"/>
<path d="M0 0 C1.45922693 0.11409593 2.91740598 0.24165544 4.375 0.375 C5.59316406 0.47941406 5.59316406 0.47941406 6.8359375 0.5859375 C9 1 9 1 11 3 C9.741875 3.020625 8.48375 3.04125 7.1875 3.0625 C6.47980469 3.07410156 5.77210937 3.08570312 5.04296875 3.09765625 C3 3 3 3 0 2 C0 1.34 0 0.68 0 0 Z " fill="#3E3E40" transform="translate(62,99)"/>
<path d="M0 0 C0.99 0 1.98 0 3 0 C3 2.31 3 4.62 3 7 C2.01 7 1.02 7 0 7 C0 4.69 0 2.38 0 0 Z " fill="#63574C" transform="translate(15,89)"/>
<path d="M0 0 C1.32 0 2.64 0 4 0 C4 0.99 4 1.98 4 3 C-0.455 3.495 -0.455 3.495 -5 4 C-5 3.34 -5 2.68 -5 2 C-3.35 1.67 -1.7 1.34 0 1 C0 0.67 0 0.34 0 0 Z " fill="#EEEDE6" transform="translate(20,81)"/>
<path d="M0 0 C0.99 0.66 1.98 1.32 3 2 C2.67 2.33 2.34 2.66 2 3 C3.65 3.33 5.3 3.66 7 4 C7 4.33 7 4.66 7 5 C0.25 5.125 0.25 5.125 -2 4 C-2 3.01 -2 2.02 -2 1 C-1.34 0.67 -0.68 0.34 0 0 Z " fill="#B8B0A9" transform="translate(123,99)"/>
<path d="M0 0 C0 1.65 0 3.3 0 5 C-1.98 5 -3.96 5 -6 5 C-5 2 -5 2 -3 0.8125 C-1 0 -1 0 0 0 Z " fill="#5D5E4F" transform="translate(160,67)"/>
<path d="M0 0 C0 0.99 0 1.98 0 3 C-2.31 2.67 -4.62 2.34 -7 2 C-7 1.34 -7 0.68 -7 0 C-3.86650268 -1.04449911 -3.01031744 -0.93423645 0 0 Z " fill="#A09F9C" transform="translate(100,131)"/>
<path d="M0 0 C3.3 0 6.6 0 10 0 C10 0.66 10 1.32 10 2 C7.25 2.6875 7.25 2.6875 4 3 C2.68 2.01 1.36 1.02 0 0 Z " fill="#978C84" transform="translate(138,92)"/>
<path d="M0 0 C1.32 0 2.64 0 4 0 C4 1.65 4 3.3 4 5 C3.01 5 2.02 5 1 5 C0.67 3.35 0.34 1.7 0 0 Z " fill="#BCC0B4" transform="translate(156,62)"/>
<path d="M0 0 C0.33 0 0.66 0 1 0 C1 2.97 1 5.94 1 9 C0.01 9.33 -0.98 9.66 -2 10 C-1.34 6.7 -0.68 3.4 0 0 Z " fill="#535354" transform="translate(115,117)"/>
<path d="M0 0 C0 0.33 0 0.66 0 1 C-1.98 1 -3.96 1 -6 1 C-6.33 1.66 -6.66 2.32 -7 3 C-7 2.01 -7 1.02 -7 0 C-8.32 -0.33 -9.64 -0.66 -11 -1 C-6.99799622 -2.60080151 -3.95443764 -1.29279692 0 0 Z " fill="#A99B92" transform="translate(141,93)"/>
<path d="M0 0 C-0.33 1.32 -0.66 2.64 -1 4 C-3.31 3.67 -5.62 3.34 -8 3 C-4.93882432 0.37613513 -4.26826873 0 0 0 Z " fill="#564337" transform="translate(12,92)"/>
<path d="M0 0 C0.33 0.99 0.66 1.98 1 3 C1.66 3 2.32 3 3 3 C3 4.65 3 6.3 3 8 C2.67 7.34 2.34 6.68 2 6 C1.01 5.67 0.02 5.34 -1 5 C-0.67 3.35 -0.34 1.7 0 0 Z " fill="#737765" transform="translate(151,56)"/>
<path d="M0 0 C4.67461851 -0.32613618 7.16674383 0.29417212 11 3 C8.83032311 3.95465783 7.43671207 4.14401212 5.17578125 3.3984375 C3.4315257 2.64129615 1.71372869 1.82390802 0 1 C0 0.67 0 0.34 0 0 Z " fill="#908E8F" transform="translate(72,52)"/>
<path d="M0 0 C0.99 0.99 1.98 1.98 3 3 C-0.96 3 -4.92 3 -9 3 C-9 2.67 -9 2.34 -9 2 C-7.56853622 1.58286485 -6.12941114 1.1919503 -4.6875 0.8125 C-3.88699219 0.59207031 -3.08648437 0.37164062 -2.26171875 0.14453125 C-1.14216797 0.07298828 -1.14216797 0.07298828 0 0 Z " fill="#CDC8C2" transform="translate(144,89)"/>
<path d="M0 0 C0.33 1.32 0.66 2.64 1 4 C0.01 4.33 -0.98 4.66 -2 5 C-2 4.01 -2 3.02 -2 2 C-3.65 2 -5.3 2 -7 2 C-7 1.67 -7 1.34 -7 1 C-3.535 0.505 -3.535 0.505 0 0 Z " fill="#CCC8C0" transform="translate(55,82)"/>
<path d="M0 0 C0 1.98 0 3.96 0 6 C-0.99 6 -1.98 6 -3 6 C-3 4.68 -3 3.36 -3 2 C-3.66 1.67 -4.32 1.34 -5 1 C-3 0 -3 0 0 0 Z " fill="#AEACA1" transform="translate(51,57)"/>
<path d="M0 0 C0 1.65 0 3.3 0 5 C-0.99 4.67 -1.98 4.34 -3 4 C-3 3.34 -3 2.68 -3 2 C-3.99 1.67 -4.98 1.34 -6 1 C-4 0 -4 0 0 0 Z " fill="#475A2E" transform="translate(160,35)"/>
</svg>
